{"glyphs":{"0":{"ha":1014,"x_min":0,"x_max":0,"o":"m 507 -28 b 953 503 782 -28 952 169 b 507 1024 953 836 782 1024 b 61 503 232 1024 62 836 b 507 -28 60 170 232 -27 z m 507 195 b 345 503 412 195 344 291 b 507 803 346 711 412 803 b 669 503 602 803 668 711 b 507 195 669 291 602 195 z "},"1":{"ha":702,"x_min":0,"x_max":0,"o":"m 562 1010 l 310 1010 l 61 858 l 61 625 l 282 758 l 288 758 l 288 0 l 562 0 z "},"2":{"ha":898,"x_min":0,"x_max":0,"o":"m 67 0 l 842 0 l 842 219 l 448 219 l 448 225 l 543 304 b 832 712 773 496 832 595 b 435 1024 832 901 677 1024 b 47 681 200 1024 47 893 l 308 681 b 435 813 307 765 359 813 b 564 689 510 813 564 766 b 444 509 564 617 518 571 l 67 197 z "},"3":{"ha":937,"x_min":0,"x_max":0,"o":"m 462 -14 b 882 290 709 -14 883 112 b 637 519 883 414 800 501 l 637 527 b 844 730 758 540 845 617 b 464 1024 845 900 688 1024 b 71 708 235 1024 72 893 l 333 708 b 464 813 334 769 388 813 b 580 712 533 813 581 771 b 442 608 581 651 524 608 l 339 608 l 339 418 l 442 418 b 592 314 531 418 593 375 b 464 207 593 251 540 207 b 327 308 385 207 328 249 l 51 308 b 462 -14 52 119 222 -14 z "},"4":{"ha":975,"x_min":0,"x_max":0,"o":"m 57 158 l 548 158 l 548 0 l 811 0 l 811 158 l 927 158 l 927 371 l 811 371 l 811 1010 l 464 1010 l 57 371 z m 554 371 l 327 371 l 327 379 l 546 726 l 554 726 z "},"5":{"ha":929,"x_min":0,"x_max":0,"o":"m 472 -14 b 878 347 718 -14 878 136 b 564 675 878 539 744 675 b 347 568 462 675 379 629 l 341 568 l 361 791 l 815 791 l 815 1010 l 136 1010 l 97 454 l 337 406 b 472 485 361 456 413 485 b 614 339 555 485 614 428 b 472 193 614 251 555 193 b 337 308 399 193 339 238 l 71 308 b 472 -14 73 119 239 -14 z "},"6":{"ha":951,"x_min":0,"x_max":0,"o":"m 489 -14 b 894 347 728 -14 895 130 b 588 667 895 532 771 667 b 329 519 472 667 368 612 l 324 519 b 491 791 325 682 376 791 b 612 708 549 791 599 765 l 882 708 b 491 1024 865 881 714 1024 b 51 493 226 1024 52 821 b 489 -14 50 126 254 -14 z m 487 193 b 347 337 407 193 348 254 b 487 481 348 421 407 481 b 627 337 569 481 628 421 b 487 193 628 254 569 193 z "},"7":{"ha":848,"x_min":0,"x_max":0,"o":"m 112 0 l 395 0 l 793 791 l 793 1010 l 43 1010 l 43 791 l 509 791 l 509 785 z "},"8":{"ha":959,"x_min":0,"x_max":0,"o":"m 479 -14 b 904 274 724 -14 904 110 b 669 519 904 399 799 499 l 669 527 b 866 750 782 546 866 637 b 479 1024 866 908 702 1024 b 93 750 256 1024 93 908 b 290 527 93 637 175 546 l 290 519 b 55 274 158 499 55 399 b 479 -14 55 110 235 -14 z m 479 176 b 345 298 402 176 345 228 b 479 418 345 368 402 418 b 614 298 557 418 614 367 b 479 176 614 227 557 176 z m 479 608 b 361 718 411 608 361 655 b 479 827 361 781 411 827 b 598 718 548 827 598 781 b 479 608 598 654 548 608 z "},"9":{"ha":951,"x_min":0,"x_max":0,"o":"m 462 1024 b 57 665 222 1024 56 880 b 363 347 58 481 181 347 b 621 495 478 347 583 402 l 627 495 b 460 219 626 327 575 219 b 339 306 401 219 352 245 l 69 306 b 460 -14 86 128 236 -14 b 900 521 725 -14 901 189 b 462 1024 899 884 697 1024 z m 464 817 b 604 675 544 817 603 756 b 464 533 605 594 544 533 b 324 675 382 533 325 594 b 464 817 323 756 382 817 z "},"A":{"ha":1105,"x_min":0,"x_max":0,"o":"m 327 0 l 386 193 l 719 193 l 777 0 l 1073 0 l 740 1010 l 365 1010 l 32 0 z m 448 399 l 548 732 l 556 732 l 657 399 z "},"Ä":{"ha":1105,"x_min":0,"x_max":0,"o":"m 327 0 l 386 193 l 719 193 l 777 0 l 1073 0 l 740 1010 l 365 1010 l 32 0 z m 397 1099 b 515 1213 462 1099 515 1150 b 397 1328 515 1276 462 1328 b 276 1213 329 1328 276 1276 b 397 1099 276 1150 329 1099 z m 710 1099 b 829 1213 775 1099 829 1150 b 710 1328 829 1276 775 1328 b 590 1213 643 1328 590 1276 b 710 1099 590 1150 643 1099 z m 448 399 l 548 732 l 556 732 l 657 399 z "},"Ã":{"ha":1105,"x_min":0,"x_max":0,"o":"m 327 0 l 386 193 l 719 193 l 777 0 l 1073 0 l 740 1010 l 365 1010 l 32 0 z m 418 1109 b 470 1184 418 1158 438 1184 b 528 1154 490 1184 508 1170 b 653 1103 557 1130 592 1102 b 821 1316 745 1104 819 1176 l 689 1316 b 635 1239 688 1268 673 1239 b 579 1268 617 1239 599 1252 b 452 1320 549 1291 512 1320 b 284 1109 359 1319 284 1251 z m 448 399 l 548 732 l 556 732 l 657 399 z "},"À":{"ha":1105,"x_min":0,"x_max":0,"o":"m 327 0 l 386 193 l 719 193 l 777 0 l 1073 0 l 740 1010 l 365 1010 l 32 0 z m 464 1105 l 643 1105 l 548 1326 l 316 1326 z m 448 399 l 548 732 l 556 732 l 657 399 z "},"Á":{"ha":1105,"x_min":0,"x_max":0,"o":"m 327 0 l 386 193 l 719 193 l 777 0 l 1073 0 l 740 1010 l 365 1010 l 32 0 z m 462 1105 l 641 1105 l 789 1326 l 556 1326 z m 448 399 l 548 732 l 556 732 l 657 399 z "},"Â":{"ha":1105,"x_min":0,"x_max":0,"o":"m 327 0 l 386 193 l 719 193 l 777 0 l 1073 0 l 740 1010 l 365 1010 l 32 0 z m 649 1101 l 874 1101 l 874 1107 l 647 1332 l 458 1332 l 231 1107 l 231 1101 l 456 1101 l 552 1209 z m 448 399 l 548 732 l 556 732 l 657 399 z "},"Å":{"ha":1105,"x_min":0,"x_max":0,"o":"m 327 0 l 386 193 l 719 193 l 777 0 l 1073 0 l 740 1010 l 365 1010 l 32 0 z m 552 1061 b 710 1213 640 1061 710 1129 b 552 1365 710 1297 640 1365 b 395 1213 465 1365 395 1297 b 552 1061 395 1129 465 1061 z m 448 399 l 548 732 l 556 732 l 657 399 z m 552 1154 b 489 1213 517 1154 489 1181 b 552 1272 489 1246 518 1272 b 616 1213 587 1273 616 1246 b 552 1154 616 1181 586 1155 z "},"Ǻ":{"ha":1105,"x_min":0,"x_max":0,"o":"m 327 0 l 386 193 l 719 193 l 777 0 l 1073 0 l 740 1010 l 365 1010 l 32 0 z m 552 1072 b 710 1217 640 1072 710 1137 b 552 1361 710 1297 640 1361 b 395 1217 465 1361 395 1297 b 552 1072 395 1137 465 1072 z m 448 399 l 548 732 l 556 732 l 657 399 z m 473 1413 l 633 1413 l 781 1568 l 572 1568 z m 552 1161 b 489 1217 517 1160 489 1186 b 552 1273 489 1248 518 1272 b 616 1217 587 1273 616 1248 b 552 1161 616 1186 586 1161 z "},"":{"ha":1105,"x_min":0,"x_max":0,"o":"m 327 0 l 386 193 l 719 193 l 777 0 l 794 0 b 793 -144 779 -42 778 -96 b 975 -274 818 -227 883 -274 b 1093 -245 1027 -274 1067 -258 l 1061 -122 b 1020 -130 1049 -124 1037 -130 b 975 -79 994 -130 974 -112 b 1073 0 974 -39 1010 -20 l 740 1010 l 365 1010 l 32 0 z m 552 1061 b 710 1213 640 1061 710 1129 b 552 1365 710 1297 640 1365 b 395 1213 465 1365 395 1297 b 552 1061 395 1129 465 1061 z m 448 399 l 548 732 l 556 732 l 657 399 z m 552 1154 b 489 1213 517 1154 489 1181 b 552 1272 489 1246 518 1272 b 616 1213 587 1273 616 1246 b 552 1154 616 1181 586 1155 z "},"Ā":{"ha":1105,"x_min":0,"x_max":0,"o":"m 327 0 l 386 193 l 719 193 l 777 0 l 1073 0 l 740 1010 l 365 1010 l 32 0 z m 799 1263 l 306 1263 l 306 1138 l 799 1138 z m 448 399 l 548 732 l 556 732 l 657 399 z "},"Ă":{"ha":1105,"x_min":0,"x_max":0,"o":"m 327 0 l 386 193 l 719 193 l 777 0 l 1073 0 l 740 1010 l 365 1010 l 32 0 z m 651 1282 b 552 1199 651 1239 623 1199 b 452 1282 479 1199 451 1241 l 282 1282 b 552 1071 282 1154 386 1071 b 823 1282 718 1071 822 1154 z m 448 399 l 548 732 l 556 732 l 657 399 z "},"Ą":{"ha":1105,"x_min":0,"x_max":0,"o":"m 327 0 l 386 193 l 719 193 l 777 0 l 794 0 b 793 -144 779 -42 778 -96 b 975 -274 818 -227 883 -274 b 1093 -245 1027 -274 1067 -258 l 1061 -122 b 1020 -130 1049 -124 1037 -130 b 975 -79 994 -130 974 -112 b 1073 0 974 -39 1010 -20 l 740 1010 l 365 1010 l 32 0 z m 448 399 l 548 732 l 556 732 l 657 399 z "},"Ǎ":{"ha":1105,"x_min":0,"x_max":0,"o":"m 327 0 l 386 193 l 719 193 l 777 0 l 1073 0 l 740 1010 l 365 1010 l 32 0 z m 456 1332 l 231 1332 l 231 1326 l 458 1101 l 647 1101 l 874 1326 l 874 1332 l 649 1332 l 552 1223 z m 448 399 l 548 732 l 556 732 l 657 399 z "},"Ǟ":{"ha":1105,"x_min":0,"x_max":0,"o":"m 327 0 l 386 193 l 719 193 l 777 0 l 1073 0 l 740 1010 l 365 1010 l 32 0 z m 799 1515 l 306 1515 l 306 1391 l 799 1391 z m 397 1099 b 515 1213 462 1099 515 1150 b 397 1328 515 1276 462 1328 b 276 1213 329 1328 276 1276 b 397 1099 276 1150 329 1099 z m 710 1099 b 829 1213 775 1099 829 1150 b 710 1328 829 1276 775 1328 b 590 1213 643 1328 590 1276 b 710 1099 590 1150 643 1099 z m 448 399 l 548 732 l 556 732 l 657 399 z "},"Ǡ":{"ha":1105,"x_min":0,"x_max":0,"o":"m 327 0 l 386 193 l 719 193 l 777 0 l 1073 0 l 740 1010 l 365 1010 l 32 0 z m 799 1515 l 306 1515 l 306 1391 l 799 1391 z m 553 1098 b 673 1213 619 1098 673 1150 b 553 1327 673 1276 619 1327 b 433 1213 486 1327 433 1276 b 553 1098 433 1150 486 1098 z m 448 399 l 548 732 l 556 732 l 657 399 z "},"Ȁ":{"ha":1105,"x_min":0,"x_max":0,"o":"m 327 0 l 386 193 l 719 193 l 777 0 l 1073 0 l 740 1010 l 365 1010 l 32 0 z m 338 1105 l 518 1105 l 423 1326 l 190 1326 z m 606 1105 l 780 1105 l 730 1326 l 510 1326 z m 448 399 l 548 732 l 556 732 l 657 399 z "},"Ȃ":{"ha":1105,"x_min":0,"x_max":0,"o":"m 327 0 l 386 193 l 719 193 l 777 0 l 1073 0 l 740 1010 l 365 1010 l 32 0 z m 280 1128 l 452 1128 b 550 1209 451 1170 478 1209 b 651 1128 622 1209 650 1170 l 823 1128 b 550 1347 822 1257 715 1347 b 280 1128 384 1347 279 1257 z m 448 399 l 548 732 l 556 732 l 657 399 z "},"Ȧ":{"ha":1105,"x_min":0,"x_max":0,"o":"m 327 0 l 386 193 l 719 193 l 777 0 l 1073 0 l 740 1010 l 365 1010 l 32 0 z m 552 1089 b 687 1213 626 1089 687 1145 b 552 1338 687 1282 626 1338 b 418 1213 478 1338 418 1282 b 552 1089 418 1145 478 1089 z m 448 399 l 548 732 l 556 732 l 657 399 z "},"Ḁ":{"ha":1105,"x_min":0,"x_max":0,"o":"m 327 0 l 386 193 l 719 193 l 777 0 l 1073 0 l 740 1010 l 365 1010 l 32 0 z m 412 -146 b 552 -264 412 -213 472 -264 b 689 -146 629 -264 689 -215 b 552 -30 689 -83 629 -30 b 412 -146 472 -30 412 -83 z m 448 399 l 548 732 l 556 732 l 657 399 z m 503 -146 b 552 -105 503 -122 523 -105 b 596 -146 578 -105 596 -122 b 552 -191 596 -174 578 -191 b 503 -146 523 -191 503 -174 z "},"Ạ":{"ha":1105,"x_min":0,"x_max":0,"o":"m 327 0 l 386 193 l 719 193 l 777 0 l 1073 0 l 740 1010 l 365 1010 l 32 0 z m 552 -306 b 687 -182 626 -306 687 -250 b 552 -57 687 -113 626 -57 b 418 -182 478 -57 418 -113 b 552 -306 418 -250 478 -306 z m 448 399 l 548 732 l 556 732 l 657 399 z "},"Ả":{"ha":1105,"x_min":0,"x_max":0,"o":"m 327 0 l 386 193 l 719 193 l 777 0 l 1073 0 l 740 1010 l 365 1010 l 32 0 z m 647 1123 l 647 1162 b 754 1255 701 1170 755 1199 b 444 1391 755 1342 646 1391 l 438 1282 b 531 1241 492 1282 532 1276 b 434 1199 532 1219 504 1201 l 452 1123 z m 448 399 l 548 732 l 556 732 l 657 399 z "},"Ấ":{"ha":1105,"x_min":0,"x_max":0,"o":"m 327 0 l 386 193 l 719 193 l 777 0 l 1073 0 l 740 1010 l 365 1010 l 32 0 z m 448 399 l 548 732 l 556 732 l 657 399 z m 294 1085 l 450 1085 l 550 1154 l 649 1085 l 807 1085 l 608 1221 l 491 1221 z m 756 1150 l 886 1150 l 1059 1340 l 884 1340 z "},"Ầ":{"ha":1105,"x_min":0,"x_max":0,"o":"m 327 0 l 386 193 l 719 193 l 777 0 l 1073 0 l 740 1010 l 365 1010 l 32 0 z m 448 399 l 548 732 l 556 732 l 657 399 z m 610 1217 l 493 1217 l 296 1081 l 452 1081 l 552 1150 l 651 1081 l 809 1081 z m 217 1334 l 45 1334 l 219 1146 l 347 1146 z "},"Ẩ":{"ha":1105,"x_min":0,"x_max":0,"o":"m 327 0 l 386 193 l 719 193 l 777 0 l 1073 0 l 740 1010 l 365 1010 l 32 0 z m 866 1166 l 866 1198 b 955 1274 909 1205 955 1231 b 732 1387 955 1347 876 1387 l 726 1298 b 805 1263 771 1298 805 1292 b 724 1229 805 1245 781 1231 l 740 1166 z m 606 1221 l 495 1221 l 296 1085 l 456 1085 l 552 1146 l 645 1085 l 805 1085 z m 448 399 l 548 732 l 556 732 l 657 399 z "},"Ẫ":{"ha":1105,"x_min":0,"x_max":0,"o":"m 327 0 l 386 193 l 719 193 l 777 0 l 1073 0 l 740 1010 l 365 1010 l 32 0 z m 616 1233 l 491 1233 l 296 1091 l 460 1091 l 552 1160 l 649 1091 l 809 1091 z m 448 399 l 548 732 l 556 732 l 657 399 z m 651 1397 b 631 1342 651 1371 647 1342 b 475 1381 585 1342 522 1381 b 395 1278 422 1381 394 1328 l 477 1255 b 499 1300 477 1280 481 1300 b 655 1259 546 1300 595 1259 b 736 1365 708 1259 735 1312 z "},"Ậ":{"ha":1105,"x_min":0,"x_max":0,"o":"m 327 0 l 386 193 l 719 193 l 777 0 l 1073 0 l 740 1010 l 365 1010 l 32 0 z m 649 1101 l 874 1101 l 874 1107 l 647 1332 l 458 1332 l 231 1107 l 231 1101 l 456 1101 l 552 1209 z m 552 -306 b 687 -182 626 -306 687 -250 b 552 -57 687 -113 626 -57 b 418 -182 478 -57 418 -113 b 552 -306 418 -250 478 -306 z m 448 399 l 548 732 l 556 732 l 657 399 z "},"Ắ":{"ha":1105,"x_min":0,"x_max":0,"o":"m 327 0 l 386 193 l 719 193 l 777 0 l 1073 0 l 740 1010 l 365 1010 l 32 0 z m 669 1257 b 550 1180 668 1219 637 1180 b 432 1257 465 1180 432 1219 l 282 1257 b 550 1081 282 1152 386 1081 b 823 1257 716 1081 822 1152 z m 448 399 l 548 732 l 556 732 l 657 399 z m 481 1245 l 616 1245 l 746 1365 l 578 1365 z "},"Ằ":{"ha":1105,"x_min":0,"x_max":0,"o":"m 327 0 l 386 193 l 719 193 l 777 0 l 1073 0 l 740 1010 l 365 1010 l 32 0 z m 669 1259 b 550 1182 668 1221 635 1182 b 432 1259 465 1182 432 1221 l 282 1259 b 550 1085 282 1158 386 1085 b 823 1259 718 1085 822 1158 z m 448 399 l 548 732 l 556 732 l 657 399 z m 493 1245 l 623 1245 l 529 1365 l 361 1365 z "},"Ẳ":{"ha":1105,"x_min":0,"x_max":0,"o":"m 327 0 l 386 193 l 719 193 l 777 0 l 1073 0 l 740 1010 l 365 1010 l 32 0 z m 671 1235 b 548 1166 672 1198 636 1166 b 426 1235 463 1166 427 1196 l 272 1235 b 548 1063 273 1130 378 1063 b 827 1235 719 1063 828 1130 z m 616 1263 l 616 1290 b 722 1363 670 1296 723 1318 b 454 1472 723 1434 630 1472 l 448 1387 b 541 1351 502 1387 542 1383 b 444 1322 542 1336 512 1324 l 464 1263 z m 448 399 l 548 732 l 556 732 l 657 399 z "},"Ẵ":{"ha":1105,"x_min":0,"x_max":0,"o":"m 327 0 l 386 193 l 719 193 l 777 0 l 1073 0 l 740 1010 l 365 1010 l 32 0 z m 667 1235 b 548 1168 666 1196 631 1168 b 430 1235 461 1168 430 1198 l 278 1235 b 548 1061 278 1130 384 1061 b 821 1235 714 1061 820 1130 z m 653 1454 b 614 1395 653 1420 633 1395 b 440 1436 552 1395 499 1436 b 326 1314 372 1436 325 1379 l 426 1284 b 470 1342 426 1318 447 1342 b 643 1300 528 1342 568 1300 b 758 1422 708 1300 757 1359 z m 448 399 l 548 732 l 556 732 l 657 399 z "},"Ặ":{"ha":1105,"x_min":0,"x_max":0,"o":"m 327 0 l 386 193 l 719 193 l 777 0 l 1073 0 l 740 1010 l 365 1010 l 32 0 z m 651 1282 b 552 1199 651 1239 623 1199 b 452 1282 479 1199 451 1241 l 282 1282 b 552 1071 282 1154 386 1071 b 823 1282 718 1071 822 1154 z m 552 -306 b 687 -182 626 -306 687 -250 b 552 -57 687 -113 626 -57 b 418 -182 478 -57 418 -113 b 552 -306 418 -250 478 -306 z m 448 399 l 548 732 l 556 732 l 657 399 z "},"Α":{"ha":1105,"x_min":0,"x_max":0,"o":"m 327 0 l 386 193 l 719 193 l 777 0 l 1073 0 l 740 1010 l 365 1010 l 32 0 z m 448 399 l 548 732 l 556 732 l 657 399 z "},"Ά":{"ha":1105,"x_min":0,"x_max":0,"o":"m 327 0 l 386 193 l 719 193 l 777 0 l 1073 0 l 740 1010 l 365 1010 l 32 0 z m 37 852 l 189 852 l 331 1089 l 103 1089 z m 448 399 l 548 732 l 556 732 l 657 399 z "},"Ἀ":{"ha":1105,"x_min":0,"x_max":0,"o":"m 327 0 l 386 193 l 719 193 l 777 0 l 1073 0 l 740 1010 l 365 1010 l 32 0 z m 448 399 l 548 732 l 556 732 l 657 399 z m 256 1010 l 140 1010 l 140 943 b 87 840 140 898 130 860 l 148 765 b 256 939 205 789 256 850 z "},"Ἁ":{"ha":1105,"x_min":0,"x_max":0,"o":"m 327 0 l 386 193 l 719 193 l 777 0 l 1073 0 l 740 1010 l 365 1010 l 32 0 z m 448 399 l 548 732 l 556 732 l 657 399 z m 118 939 b 227 765 119 850 171 789 l 288 840 b 237 943 244 862 238 908 l 237 1010 l 118 1010 z "},"Ἂ":{"ha":1105,"x_min":0,"x_max":0,"o":"m 327 0 l 386 193 l 719 193 l 777 0 l 1073 0 l 740 1010 l 365 1010 l 302 818 l 231 1010 l 81 1010 l 81 996 l 245 781 l 290 781 l 32 0 z m 448 399 l 548 732 l 556 732 l 657 399 z m 49 1010 l -81 1010 l -81 959 b -138 807 -80 896 -100 848 l -83 765 b 49 955 0 809 50 876 z "},"Ἃ":{"ha":1105,"x_min":0,"x_max":0,"o":"m 327 0 l 386 193 l 719 193 l 777 0 l 1073 0 l 740 1010 l 365 1010 l 299 811 l 225 1010 l 73 1010 l 73 996 l 237 779 l 289 779 l 32 0 z m 448 399 l 548 732 l 556 732 l 657 399 z m -109 939 b 4 765 -109 850 -58 789 l 65 840 b 12 943 15 862 11 908 l 12 1010 l -109 1010 z "},"Ἄ":{"ha":1105,"x_min":0,"x_max":0,"o":"m 327 0 l 386 193 l 719 193 l 777 0 l 1073 0 l 740 1010 l 365 1010 l 32 0 z m 448 399 l 548 732 l 556 732 l 657 399 z m 43 1010 l -77 1010 l -77 943 b -130 840 -78 908 -82 862 l -69 765 b 43 939 -9 789 42 852 z m 71 779 l 138 779 l 302 996 l 302 1010 l 152 1010 l 71 799 z "},"Ἅ":{"ha":1105,"x_min":0,"x_max":0,"o":"m 327 0 l 386 193 l 719 193 l 777 0 l 1073 0 l 740 1010 l 365 1010 l 32 0 z m 448 399 l 548 732 l 556 732 l 657 399 z m 69 779 l 132 779 l 298 996 l 298 1010 l 146 1010 l 69 799 z m -39 765 l 22 840 b -30 943 -21 860 -29 898 l -30 1010 l -148 1010 l -148 939 b -39 765 -147 846 -92 787 z "},"Ἆ":{"ha":1105,"x_min":0,"x_max":0,"o":"m 327 0 l 386 193 l 719 193 l 777 0 l 1073 0 l 740 1010 l 365 1010 l 32 0 z m 296 1184 b 254 1126 296 1152 278 1126 b 83 1168 197 1126 142 1168 b -32 1044 16 1168 -32 1109 l 71 1014 b 112 1073 71 1046 87 1073 b 284 1030 174 1073 211 1030 b 399 1152 351 1030 399 1087 z m 448 399 l 548 732 l 556 732 l 657 399 z m 253 994 l 136 994 l 136 941 b 85 854 136 909 132 868 l 138 793 b 253 935 199 811 253 856 z "},"Ἇ":{"ha":1105,"x_min":0,"x_max":0,"o":"m 327 0 l 386 193 l 719 193 l 777 0 l 1073 0 l 740 1010 l 365 1010 l 32 0 z m 268 1184 b 227 1126 268 1152 251 1126 b 55 1168 170 1126 114 1168 b -59 1044 -12 1168 -59 1109 l 43 1014 b 85 1073 43 1046 59 1073 b 256 1030 146 1073 183 1030 b 371 1152 324 1030 371 1087 z m 448 399 l 548 732 l 556 732 l 657 399 z m 110 935 b 223 793 110 852 170 809 l 278 854 b 227 941 231 868 227 909 l 227 994 l 110 994 z "},"Ᾰ":{"ha":1105,"x_min":0,"x_max":0,"o":"m 327 0 l 386 193 l 719 193 l 777 0 l 1073 0 l 740 1010 l 365 1010 l 32 0 z m 651 1282 b 552 1199 651 1239 623 1199 b 452 1282 479 1199 451 1241 l 282 1282 b 552 1071 282 1154 386 1071 b 823 1282 718 1071 822 1154 z m 448 399 l 548 732 l 556 732 l 657 399 z "},"Ᾱ":{"ha":1105,"x_min":0,"x_max":0,"o":"m 327 0 l 386 193 l 719 193 l 777 0 l 1073 0 l 740 1010 l 365 1010 l 32 0 z m 799 1263 l 306 1263 l 306 1138 l 799 1138 z m 448 399 l 548 732 l 556 732 l 657 399 z "},"Ὰ":{"ha":1105,"x_min":0,"x_max":0,"o":"m 327 0 l 386 193 l 719 193 l 777 0 l 1073 0 l 740 1010 l 365 1010 l 298 807 l 223 1010 l 73 1010 l 73 996 l 237 779 l 289 779 l 32 0 z m 448 399 l 548 732 l 556 732 l 657 399 z "},"Ⱥ":{"ha":1105,"x_min":0,"x_max":0,"o":"m 896 1138 l 756 1138 l 717 1010 l 365 1010 l 32 0 l 327 0 l 386 193 l 470 193 l 373 -128 l 513 -128 l 610 193 l 719 193 l 777 0 l 1073 0 l 801 825 z m 532 399 l 448 399 l 548 732 l 556 732 l 594 605 z "},"Ά":{"ha":1105,"x_min":0,"x_max":0,"o":"m 327 0 l 386 193 l 719 193 l 777 0 l 1073 0 l 740 1010 l 365 1010 l 32 0 z m 43 852 l 176 852 l 339 1069 l 339 1083 l 122 1083 l 43 876 z m 448 399 l 548 732 l 556 732 l 657 399 z "},"А":{"ha":1105,"x_min":0,"x_max":0,"o":"m 327 0 l 386 193 l 719 193 l 777 0 l 1073 0 l 740 1010 l 365 1010 l 32 0 z m 448 399 l 548 732 l 556 732 l 657 399 z "},"Ӑ":{"ha":1105,"x_min":0,"x_max":0,"o":"m 327 0 l 386 193 l 719 193 l 777 0 l 1073 0 l 740 1010 l 365 1010 l 32 0 z m 651 1282 b 552 1199 651 1239 623 1199 b 452 1282 479 1199 451 1241 l 282 1282 b 552 1071 282 1154 386 1071 b 823 1282 718 1071 822 1154 z m 448 399 l 548 732 l 556 732 l 657 399 z "},"Ӓ":{"ha":1105,"x_min":0,"x_max":0,"o":"m 327 0 l 386 193 l 719 193 l 777 0 l 1073 0 l 740 1010 l 365 1010 l 32 0 z m 397 1099 b 515 1213 462 1099 515 1150 b 397 1328 515 1276 462 1328 b 276 1213 329 1328 276 1276 b 397 1099 276 1150 329 1099 z m 710 1099 b 829 1213 775 1099 829 1150 b 710 1328 829 1276 775 1328 b 590 1213 643 1328 590 1276 b 710 1099 590 1150 643 1099 z m 448 399 l 548 732 l 556 732 l 657 399 z "},"ᾈ":{"ha":1105,"x_min":0,"x_max":0,"o":"m 327 0 l 386 193 l 719 193 l 777 0 l 1073 0 l 740 1010 l 365 1010 l 32 0 z m 623 -335 b 696 -326 652 -335 673 -331 l 696 -237 b 665 -239 689 -237 681 -239 b 625 -207 632 -239 625 -227 l 625 -69 l 485 -69 l 485 -207 b 623 -335 485 -298 549 -335 z m 448 399 l 548 732 l 556 732 l 657 399 z m 256 1010 l 140 1010 l 140 943 b 87 840 140 898 130 860 l 148 765 b 256 939 205 789 256 850 z "},"ᾉ":{"ha":1105,"x_min":0,"x_max":0,"o":"m 327 0 l 386 193 l 719 193 l 777 0 l 1073 0 l 740 1010 l 365 1010 l 32 0 z m 623 -335 b 696 -326 652 -335 673 -331 l 696 -237 b 665 -239 689 -237 681 -239 b 625 -207 632 -239 625 -227 l 625 -69 l 485 -69 l 485 -207 b 623 -335 485 -298 549 -335 z m 448 399 l 548 732 l 556 732 l 657 399 z m 118 939 b 227 765 119 850 171 789 l 288 840 b 237 943 244 862 238 908 l 237 1010 l 118 1010 z "},"ᾊ":{"ha":1105,"x_min":0,"x_max":0,"o":"m 327 0 l 386 193 l 719 193 l 777 0 l 1073 0 l 740 1010 l 365 1010 l 302 818 l 231 1010 l 81 1010 l 81 996 l 245 781 l 290 781 l 32 0 z m 623 -335 b 696 -326 652 -335 673 -331 l 696 -237 b 665 -239 689 -237 681 -239 b 625 -207 632 -239 625 -227 l 625 -69 l 485 -69 l 485 -207 b 623 -335 485 -298 549 -335 z m 448 399 l 548 732 l 556 732 l 657 399 z m 49 1010 l -81 1010 l -81 959 b -138 807 -80 896 -100 848 l -83 765 b 49 955 0 809 50 876 z "},"ᾋ":{"ha":1105,"x_min":0,"x_max":0,"o":"m 327 0 l 386 193 l 719 193 l 777 0 l 1073 0 l 740 1010 l 365 1010 l 299 811 l 225 1010 l 73 1010 l 73 996 l 237 779 l 289 779 l 32 0 z m 623 -335 b 696 -326 652 -335 673 -331 l 696 -237 b 665 -239 689 -237 681 -239 b 625 -207 632 -239 625 -227 l 625 -69 l 485 -69 l 485 -207 b 623 -335 485 -298 549 -335 z m 448 399 l 548 732 l 556 732 l 657 399 z m -109 939 b 4 765 -109 850 -58 789 l 65 840 b 12 943 15 862 11 908 l 12 1010 l -109 1010 z "},"ᾌ":{"ha":1105,"x_min":0,"x_max":0,"o":"m 327 0 l 386 193 l 719 193 l 777 0 l 1073 0 l 740 1010 l 365 1010 l 32 0 z m 623 -335 b 696 -326 652 -335 673 -331 l 696 -237 b 665 -239 689 -237 681 -239 b 625 -207 632 -239 625 -227 l 625 -69 l 485 -69 l 485 -207 b 623 -335 485 -298 549 -335 z m 448 399 l 548 732 l 556 732 l 657 399 z m 43 1010 l -77 1010 l -77 943 b -130 840 -78 908 -82 862 l -69 765 b 43 939 -9 789 42 852 z m 71 779 l 138 779 l 302 996 l 302 1010 l 152 1010 l 71 799 z "},"ᾍ":{"ha":1105,"x_min":0,"x_max":0,"o":"m 327 0 l 386 193 l 719 193 l 777 0 l 1073 0 l 740 1010 l 365 1010 l 32 0 z m 623 -335 b 696 -326 652 -335 673 -331 l 696 -237 b 665 -239 689 -237 681 -239 b 625 -207 632 -239 625 -227 l 625 -69 l 485 -69 l 485 -207 b 623 -335 485 -298 549 -335 z m 448 399 l 548 732 l 556 732 l 657 399 z m 69 779 l 132 779 l 298 996 l 298 1010 l 146 1010 l 69 799 z m -39 765 l 22 840 b -30 943 -21 860 -29 898 l -30 1010 l -148 1010 l -148 939 b -39 765 -147 846 -92 787 z "},"ᾎ":{"ha":1105,"x_min":0,"x_max":0,"o":"m 327 0 l 386 193 l 719 193 l 777 0 l 1073 0 l 740 1010 l 365 1010 l 32 0 z m 296 1184 b 254 1126 296 1152 278 1126 b 83 1168 197 1126 142 1168 b -32 1044 16 1168 -32 1109 l 71 1014 b 112 1073 71 1046 87 1073 b 284 1030 174 1073 211 1030 b 399 1152 351 1030 399 1087 z m 623 -335 b 696 -326 652 -335 673 -331 l 696 -237 b 665 -239 689 -237 681 -239 b 625 -207 632 -239 625 -227 l 625 -69 l 485 -69 l 485 -207 b 623 -335 485 -298 549 -335 z m 448 399 l 548 732 l 556 732 l 657 399 z m 253 994 l 136 994 l 136 941 b 85 854 136 909 132 868 l 138 793 b 253 935 199 811 253 856 z "},"ᾏ":{"ha":1105,"x_min":0,"x_max":0,"o":"m 327 0 l 386 193 l 719 193 l 777 0 l 1073 0 l 740 1010 l 365 1010 l 32 0 z m 268 1184 b 227 1126 268 1152 251 1126 b 55 1168 170 1126 114 1168 b -59 1044 -12 1168 -59 1109 l 43 1014 b 85 1073 43 1046 59 1073 b 256 1030 146 1073 183 1030 b 371 1152 324 1030 371 1087 z m 623 -335 b 696 -326 652 -335 673 -331 l 696 -237 b 665 -239 689 -237 681 -239 b 625 -207 632 -239 625 -227 l 625 -69 l 485 -69 l 485 -207 b 623 -335 485 -298 549 -335 z m 448 399 l 548 732 l 556 732 l 657 399 z m 110 935 b 223 793 110 852 170 809 l 278 854 b 227 941 231 868 227 909 l 227 994 l 110 994 z "},"ᾼ":{"ha":1105,"x_min":0,"x_max":0,"o":"m 327 0 l 386 193 l 719 193 l 777 0 l 1073 0 l 740 1010 l 365 1010 l 32 0 z m 623 -335 b 696 -326 652 -335 673 -331 l 696 -237 b 665 -239 689 -237 681 -239 b 625 -207 632 -239 625 -227 l 625 -69 l 485 -69 l 485 -207 b 623 -335 485 -298 549 -335 z m 448 399 l 548 732 l 556 732 l 657 399 z "},"Λ":{"ha":1105,"x_min":0,"x_max":0,"o":"m 327 0 l 548 732 l 556 732 l 777 0 l 1073 0 l 740 1010 l 365 1010 l 32 0 z "},"Æ":{"ha":1468,"x_min":0,"x_max":0,"o":"m 32 0 l 333 0 l 404 193 l 669 193 l 669 0 l 1395 0 l 1395 221 l 943 221 l 943 395 l 1359 395 l 1359 616 l 943 616 l 943 789 l 1397 789 l 1397 1010 l 426 1010 z m 478 399 l 600 732 l 669 732 l 669 399 z "},"Ǣ":{"ha":1468,"x_min":0,"x_max":0,"o":"m 32 0 l 333 0 l 404 193 l 669 193 l 669 0 l 1395 0 l 1395 221 l 943 221 l 943 395 l 1359 395 l 1359 616 l 943 616 l 943 789 l 1397 789 l 1397 1010 l 426 1010 z m 1164 1263 l 671 1263 l 671 1138 l 1164 1138 z m 478 399 l 600 732 l 669 732 l 669 399 z "},"Ǽ":{"ha":1468,"x_min":0,"x_max":0,"o":"m 32 0 l 333 0 l 404 193 l 669 193 l 669 0 l 1395 0 l 1395 221 l 943 221 l 943 395 l 1359 395 l 1359 616 l 943 616 l 943 789 l 1397 789 l 1397 1010 l 426 1010 z m 827 1105 l 1006 1105 l 1154 1326 l 921 1326 z m 478 399 l 600 732 l 669 732 l 669 399 z "},"Ӕ":{"ha":1468,"x_min":0,"x_max":0,"o":"m 32 0 l 333 0 l 404 193 l 669 193 l 669 0 l 1395 0 l 1395 221 l 943 221 l 943 395 l 1359 395 l 1359 616 l 943 616 l 943 789 l 1397 789 l 1397 1010 l 426 1010 z m 478 399 l 600 732 l 669 732 l 669 399 z "},"B":{"ha":927,"x_min":0,"x_max":0,"o":"m 65 0 l 541 0 b 896 286 760 0 896 120 b 661 527 896 429 791 522 l 661 537 b 856 758 778 560 856 646 b 503 1010 856 911 734 1010 l 65 1010 z m 339 219 l 339 432 l 472 432 b 606 322 555 432 606 393 b 468 219 606 254 560 219 z m 339 602 l 339 795 l 456 795 b 574 698 524 795 574 761 b 452 602 574 636 524 602 z "},"Ḃ":{"ha":927,"x_min":0,"x_max":0,"o":"m 65 0 l 541 0 b 896 286 760 0 896 120 b 661 527 896 429 791 522 l 661 537 b 856 758 778 560 856 646 b 503 1010 856 911 734 1010 l 65 1010 z m 452 1089 b 586 1213 526 1089 586 1145 b 452 1338 586 1282 526 1338 b 318 1213 378 1338 318 1282 b 452 1089 318 1145 378 1089 z m 339 219 l 339 432 l 472 432 b 606 322 555 432 606 393 b 468 219 606 254 560 219 z m 339 602 l 339 795 l 456 795 b 574 698 524 795 574 761 b 452 602 574 636 524 602 z "},"Ḅ":{"ha":927,"x_min":0,"x_max":0,"o":"m 65 0 l 541 0 b 896 286 760 0 896 120 b 661 527 896 429 791 522 l 661 537 b 856 758 778 560 856 646 b 503 1010 856 911 734 1010 l 65 1010 z m 450 -306 b 584 -182 524 -306 584 -250 b 450 -57 584 -113 524 -57 b 316 -182 376 -57 316 -113 b 450 -306 316 -250 376 -306 z m 339 219 l 339 432 l 472 432 b 606 322 555 432 606 393 b 468 219 606 254 560 219 z m 339 602 l 339 795 l 456 795 b 574 698 524 795 574 761 b 452 602 574 636 524 602 z "},"Ḇ":{"ha":927,"x_min":0,"x_max":0,"o":"m 65 0 l 541 0 b 896 286 760 0 896 120 b 661 527 896 429 791 522 l 661 537 b 856 758 778 560 856 646 b 503 1010 856 911 734 1010 l 65 1010 z m 696 -127 l 203 -127 l 203 -252 l 696 -252 z m 339 219 l 339 432 l 472 432 b 606 322 555 432 606 393 b 468 219 606 254 560 219 z m 339 602 l 339 795 l 456 795 b 574 698 524 795 574 761 b 452 602 574 636 524 602 z "},"Ƀ":{"ha":1022,"x_min":0,"x_max":0,"o":"m 160 0 l 635 0 b 990 286 855 0 990 120 b 756 527 990 429 885 522 l 756 537 b 951 758 872 560 951 646 b 598 1010 951 911 829 1010 l 160 1010 l 160 399 l 22 399 l 22 253 l 160 253 z m 434 602 l 434 795 l 550 795 b 669 698 618 795 669 761 b 546 602 669 636 618 602 z m 434 219 l 434 253 l 552 253 l 552 399 l 434 399 l 434 432 l 566 432 b 700 322 650 432 700 393 b 562 219 700 254 654 219 z "},"Ɓ":{"ha":1263,"x_min":0,"x_max":0,"o":"m 400 0 l 876 0 b 1231 286 1095 0 1231 120 b 996 527 1231 429 1126 522 l 996 537 b 1192 758 1113 560 1192 646 b 838 1010 1192 911 1069 1010 l 385 1010 b 37 710 173 1010 36 902 l 37 590 l 278 590 l 278 663 b 385 791 277 722 301 791 l 400 791 z m 675 219 l 675 432 l 807 432 b 941 322 890 432 941 393 b 803 219 941 254 895 219 z m 675 602 l 675 795 l 791 795 b 909 698 859 795 909 761 b 787 602 909 636 859 602 z "},"В":{"ha":927,"x_min":0,"x_max":0,"o":"m 65 0 l 541 0 b 896 286 760 0 896 120 b 661 527 896 429 791 522 l 661 537 b 856 758 778 560 856 646 b 503 1010 856 911 734 1010 l 65 1010 z m 339 219 l 339 432 l 472 432 b 606 322 555 432 606 393 b 468 219 606 254 560 219 z m 339 602 l 339 795 l 456 795 b 574 698 524 795 574 761 b 452 602 574 636 524 602 z "},"Β":{"ha":927,"x_min":0,"x_max":0,"o":"m 65 0 l 541 0 b 896 286 760 0 896 120 b 661 527 896 429 791 522 l 661 537 b 856 758 778 560 856 646 b 503 1010 856 911 734 1010 l 65 1010 z m 339 219 l 339 432 l 472 432 b 606 322 555 432 606 393 b 468 219 606 254 560 219 z m 339 602 l 339 795 l 456 795 b 574 698 524 795 574 761 b 452 602 574 636 524 602 z "},"C":{"ha":1067,"x_min":0,"x_max":0,"o":"m 1008 631 b 548 1024 986 882 803 1024 b 61 505 276 1024 61 842 b 548 -14 61 169 270 -14 b 1008 363 844 -14 994 191 l 730 365 b 554 225 716 279 655 225 b 343 505 421 225 343 320 b 556 785 343 681 418 785 b 730 631 662 785 722 723 z "},"Ƈ":{"ha":1225,"x_min":0,"x_max":0,"o":"m 1008 631 l 1008 689 b 1162 831 1008 795 1099 831 b 1237 829 1180 831 1217 829 l 1237 1046 b 1115 1052 1190 1052 1156 1052 b 830 948 1004 1052 900 1016 b 548 1024 754 998 658 1024 b 61 505 276 1024 61 842 b 548 -14 61 169 270 -14 b 1008 363 844 -14 994 191 l 730 365 b 554 225 716 279 655 225 b 343 505 421 225 343 320 b 556 785 343 681 418 785 b 730 631 662 785 722 723 z "},"Ç":{"ha":1067,"x_min":0,"x_max":0,"o":"m 1008 631 b 548 1024 986 882 803 1024 b 61 505 276 1024 61 842 b 491 -11 61 193 242 13 l 472 -95 b 564 -166 535 -105 567 -129 b 412 -227 562 -206 509 -227 l 412 -331 b 708 -160 597 -331 709 -266 b 584 -37 708 -96 662 -49 l 588 -12 b 1008 363 858 5 995 199 l 730 365 b 554 225 716 279 655 225 b 343 505 421 225 343 320 b 556 785 343 681 418 785 b 730 631 662 785 722 723 z "},"Ć":{"ha":1067,"x_min":0,"x_max":0,"o":"m 1008 631 b 548 1024 986 882 803 1024 b 61 505 276 1024 61 842 b 548 -14 61 169 270 -14 b 1008 363 844 -14 994 191 l 730 365 b 554 225 716 279 655 225 b 343 505 421 225 343 320 b 556 785 343 681 418 785 b 730 631 662 785 722 723 z m 458 1105 l 637 1105 l 785 1326 l 552 1326 z "},"Ĉ":{"ha":1067,"x_min":0,"x_max":0,"o":"m 1008 631 b 548 1024 986 882 803 1024 b 61 505 276 1024 61 842 b 548 -14 61 169 270 -14 b 1008 363 844 -14 994 191 l 730 365 b 554 225 716 279 655 225 b 343 505 421 225 343 320 b 556 785 343 681 418 785 b 730 631 662 785 722 723 z m 645 1101 l 870 1101 l 870 1107 l 643 1332 l 454 1332 l 227 1107 l 227 1101 l 452 1101 l 548 1209 z "},"Ċ":{"ha":1067,"x_min":0,"x_max":0,"o":"m 1008 631 b 548 1024 986 882 803 1024 b 61 505 276 1024 61 842 b 548 -14 61 169 270 -14 b 1008 363 844 -14 994 191 l 730 365 b 554 225 716 279 655 225 b 343 505 421 225 343 320 b 556 785 343 681 418 785 b 730 631 662 785 722 723 z m 548 1089 b 683 1213 622 1089 683 1145 b 548 1338 683 1282 622 1338 b 414 1213 474 1338 414 1282 b 548 1089 414 1145 474 1089 z "},"Č":{"ha":1067,"x_min":0,"x_max":0,"o":"m 1008 631 b 548 1024 986 882 803 1024 b 61 505 276 1024 61 842 b 548 -14 61 169 270 -14 b 1008 363 844 -14 994 191 l 730 365 b 554 225 716 279 655 225 b 343 505 421 225 343 320 b 556 785 343 681 418 785 b 730 631 662 785 722 723 z m 452 1332 l 227 1332 l 227 1326 l 454 1101 l 643 1101 l 870 1326 l 870 1332 l 645 1332 l 548 1223 z "},"Ḉ":{"ha":1067,"x_min":0,"x_max":0,"o":"m 1008 631 b 548 1024 986 882 803 1024 b 61 505 276 1024 61 842 b 491 -11 61 193 242 13 l 472 -95 b 564 -166 535 -105 567 -129 b 412 -227 562 -206 509 -227 l 412 -331 b 708 -160 597 -331 709 -266 b 584 -37 708 -96 662 -49 l 588 -12 b 1008 363 858 5 995 199 l 730 365 b 554 225 716 279 655 225 b 343 505 421 225 343 320 b 556 785 343 681 418 785 b 730 631 662 785 722 723 z m 458 1105 l 637 1105 l 785 1326 l 552 1326 z "},"Ȼ":{"ha":1067,"x_min":0,"x_max":0,"o":"m 274 -128 l 414 -128 l 451 -6 b 548 -14 482 -11 515 -14 b 1008 363 844 -14 994 191 l 730 365 b 554 225 716 279 655 225 b 522 227 543 225 532 225 l 678 744 b 730 631 708 717 726 678 l 1008 631 b 752 988 993 808 897 931 l 797 1138 l 657 1138 l 621 1020 b 548 1024 598 1022 574 1024 b 61 505 276 1024 61 842 b 323 34 61 269 165 108 z m 401 292 b 343 505 363 339 343 410 b 550 785 343 678 416 782 z "},"Ɔ":{"ha":1067,"x_min":0,"x_max":0,"o":"m 59 379 b 519 -14 81 128 264 -14 b 1006 505 791 -14 1006 168 b 519 1024 1006 841 797 1024 b 59 647 223 1024 73 819 l 337 645 b 513 785 351 731 412 785 b 724 505 647 785 724 690 b 511 225 724 329 649 225 b 337 379 405 225 345 287 z "},"Ϲ":{"ha":1067,"x_min":0,"x_max":0,"o":"m 1008 631 b 548 1024 986 882 803 1024 b 61 505 276 1024 61 842 b 548 -14 61 169 270 -14 b 1008 363 844 -14 994 191 l 730 365 b 554 225 716 279 655 225 b 343 505 421 225 343 320 b 556 785 343 681 418 785 b 730 631 662 785 722 723 z "},"D":{"ha":1018,"x_min":0,"x_max":0,"o":"m 454 0 b 957 505 762 0 957 189 b 450 1010 957 821 762 1010 l 65 1010 l 65 0 z m 339 233 l 339 777 l 436 777 b 681 505 594 777 681 716 b 444 233 681 294 594 233 z "},"Ɗ":{"ha":1355,"x_min":0,"x_max":0,"o":"m 37 590 l 278 590 l 278 663 b 385 777 277 722 301 777 l 402 777 l 402 0 l 791 0 b 1294 505 1099 0 1294 189 b 787 1010 1294 821 1099 1010 l 385 1010 b 37 710 173 1010 36 902 z m 677 777 l 773 777 b 1018 505 931 777 1018 716 b 781 233 1018 294 931 233 l 677 233 z "},"Ď":{"ha":1018,"x_min":0,"x_max":0,"o":"m 454 0 b 957 505 762 0 957 189 b 450 1010 957 821 762 1010 l 65 1010 l 65 0 z m 339 233 l 339 777 l 436 777 b 681 505 594 777 681 716 b 444 233 681 294 594 233 z m 306 1332 l 81 1332 l 81 1326 l 308 1101 l 497 1101 l 724 1326 l 724 1332 l 499 1332 l 402 1223 z "},"Ḋ":{"ha":1018,"x_min":0,"x_max":0,"o":"m 454 0 b 957 505 762 0 957 189 b 450 1010 957 821 762 1010 l 65 1010 l 65 0 z m 339 233 l 339 777 l 436 777 b 681 505 594 777 681 716 b 444 233 681 294 594 233 z m 402 1089 b 537 1213 476 1089 537 1145 b 402 1338 537 1282 476 1338 b 268 1213 328 1338 268 1282 b 402 1089 268 1145 328 1089 z "},"Ḍ":{"ha":1018,"x_min":0,"x_max":0,"o":"m 454 0 b 957 505 762 0 957 189 b 450 1010 957 821 762 1010 l 65 1010 l 65 0 z m 339 233 l 339 777 l 436 777 b 681 505 594 777 681 716 b 444 233 681 294 594 233 z m 458 -306 b 592 -182 532 -306 592 -250 b 458 -57 592 -113 532 -57 b 324 -182 384 -57 324 -113 b 458 -306 324 -250 384 -306 z "},"Ḏ":{"ha":1018,"x_min":0,"x_max":0,"o":"m 454 0 b 957 505 762 0 957 189 b 450 1010 957 821 762 1010 l 65 1010 l 65 0 z m 339 233 l 339 777 l 436 777 b 681 505 594 777 681 716 b 444 233 681 294 594 233 z m 704 -127 l 211 -127 l 211 -252 l 704 -252 z "},"Ḑ":{"ha":1018,"x_min":0,"x_max":0,"o":"m 454 0 b 957 505 762 0 957 189 b 450 1010 957 821 762 1010 l 65 1010 l 65 0 z m 339 233 l 339 777 l 436 777 b 681 505 594 777 681 716 b 444 233 681 294 594 233 z m 273 -316 l 459 -316 l 583 -80 l 338 -80 z "},"Ḓ":{"ha":1018,"x_min":0,"x_max":0,"o":"m 454 0 b 957 505 762 0 957 189 b 450 1010 957 821 762 1010 l 65 1010 l 65 0 z m 339 233 l 339 777 l 436 777 b 681 505 594 777 681 716 b 444 233 681 294 594 233 z m 554 -294 l 779 -294 l 779 -288 l 552 -63 l 363 -63 l 136 -288 l 136 -294 l 361 -294 l 458 -185 z "},"Ɖ":{"ha":1018,"x_min":0,"x_max":0,"o":"m 454 0 b 957 505 762 0 957 189 b 450 1010 957 821 762 1010 l 65 1010 l 65 614 l -65 614 l -65 468 l 65 468 l 65 0 z m 339 233 l 339 468 l 466 468 l 466 614 l 339 614 l 339 777 l 436 777 b 681 505 594 777 681 716 b 444 233 681 294 594 233 z "},"ǲ":{"ha":1841,"x_min":0,"x_max":0,"o":"m 454 0 b 957 505 762 0 957 189 b 450 1010 957 821 762 1010 l 65 1010 l 65 0 z m 1095 0 l 1760 0 l 1760 207 l 1446 207 l 1446 211 l 1748 592 l 1748 758 l 1107 758 l 1107 550 l 1426 550 l 1426 546 l 1095 150 z m 339 233 l 339 777 l 436 777 b 681 505 594 777 681 716 b 444 233 681 294 594 233 z "},"ǅ":{"ha":1841,"x_min":0,"x_max":0,"o":"m 454 0 b 957 505 762 0 957 189 b 450 1010 957 821 762 1010 l 65 1010 l 65 0 z m 1095 0 l 1760 0 l 1760 207 l 1446 207 l 1446 211 l 1748 592 l 1748 758 l 1107 758 l 1107 550 l 1426 550 l 1426 546 l 1095 150 z m 339 233 l 339 777 l 436 777 b 681 505 594 777 681 716 b 444 233 681 294 594 233 z m 1332 1079 l 1107 1079 l 1107 1073 l 1334 848 l 1523 848 l 1750 1073 l 1750 1079 l 1525 1079 l 1428 971 z "},"E":{"ha":864,"x_min":0,"x_max":0,"o":"m 65 0 l 791 0 l 791 221 l 339 221 l 339 395 l 756 395 l 756 616 l 339 616 l 339 789 l 793 789 l 793 1010 l 65 1010 z "},"È":{"ha":864,"x_min":0,"x_max":0,"o":"m 65 0 l 791 0 l 791 221 l 339 221 l 339 395 l 756 395 l 756 616 l 339 616 l 339 789 l 793 789 l 793 1010 l 65 1010 z m 343 1105 l 523 1105 l 428 1326 l 195 1326 z "},"É":{"ha":864,"x_min":0,"x_max":0,"o":"m 65 0 l 791 0 l 791 221 l 339 221 l 339 395 l 756 395 l 756 616 l 339 616 l 339 789 l 793 789 l 793 1010 l 65 1010 z m 341 1105 l 521 1105 l 669 1326 l 436 1326 z "},"Ê":{"ha":864,"x_min":0,"x_max":0,"o":"m 65 0 l 791 0 l 791 221 l 339 221 l 339 395 l 756 395 l 756 616 l 339 616 l 339 789 l 793 789 l 793 1010 l 65 1010 z m 529 1101 l 754 1101 l 754 1107 l 527 1332 l 337 1332 l 110 1107 l 110 1101 l 335 1101 l 432 1209 z "},"Ë":{"ha":864,"x_min":0,"x_max":0,"o":"m 65 0 l 791 0 l 791 221 l 339 221 l 339 395 l 756 395 l 756 616 l 339 616 l 339 789 l 793 789 l 793 1010 l 65 1010 z m 276 1099 b 395 1213 341 1099 395 1150 b 276 1328 395 1276 341 1328 b 156 1213 209 1328 156 1276 b 276 1099 156 1150 209 1099 z m 590 1099 b 708 1213 655 1099 708 1150 b 590 1328 708 1276 655 1328 b 470 1213 523 1328 470 1276 b 590 1099 470 1150 523 1099 z "},"Ē":{"ha":864,"x_min":0,"x_max":0,"o":"m 65 0 l 791 0 l 791 221 l 339 221 l 339 395 l 756 395 l 756 616 l 339 616 l 339 789 l 793 789 l 793 1010 l 65 1010 z m 679 1263 l 185 1263 l 185 1138 l 679 1138 z "},"Ĕ":{"ha":864,"x_min":0,"x_max":0,"o":"m 65 0 l 791 0 l 791 221 l 339 221 l 339 395 l 756 395 l 756 616 l 339 616 l 339 789 l 793 789 l 793 1010 l 65 1010 z m 531 1282 b 432 1199 530 1239 503 1199 b 331 1282 359 1199 331 1241 l 162 1282 b 432 1071 161 1154 266 1071 b 702 1282 597 1071 702 1154 z "},"Ė":{"ha":864,"x_min":0,"x_max":0,"o":"m 65 0 l 791 0 l 791 221 l 339 221 l 339 395 l 756 395 l 756 616 l 339 616 l 339 789 l 793 789 l 793 1010 l 65 1010 z m 432 1089 b 566 1213 506 1089 566 1145 b 432 1338 566 1282 506 1338 b 298 1213 358 1338 298 1282 b 432 1089 298 1145 358 1089 z "},"Ę":{"ha":864,"x_min":0,"x_max":0,"o":"m 65 0 l 512 0 b 511 -144 497 -42 496 -96 b 692 -274 536 -227 601 -274 b 811 -245 745 -274 785 -258 l 779 -122 b 738 -130 767 -124 755 -130 b 692 -79 712 -130 692 -112 b 791 0 692 -39 727 -20 l 791 221 l 339 221 l 339 395 l 756 395 l 756 616 l 339 616 l 339 789 l 793 789 l 793 1010 l 65 1010 z "},"Ě":{"ha":864,"x_min":0,"x_max":0,"o":"m 65 0 l 791 0 l 791 221 l 339 221 l 339 395 l 756 395 l 756 616 l 339 616 l 339 789 l 793 789 l 793 1010 l 65 1010 z m 335 1332 l 110 1332 l 110 1326 l 337 1101 l 527 1101 l 754 1326 l 754 1332 l 529 1332 l 432 1223 z "},"Ȅ":{"ha":864,"x_min":0,"x_max":0,"o":"m 65 0 l 791 0 l 791 221 l 339 221 l 339 395 l 756 395 l 756 616 l 339 616 l 339 789 l 793 789 l 793 1010 l 65 1010 z m 218 1105 l 398 1105 l 303 1326 l 70 1326 z m 485 1105 l 660 1105 l 610 1326 l 390 1326 z "},"Ȇ":{"ha":864,"x_min":0,"x_max":0,"o":"m 65 0 l 791 0 l 791 221 l 339 221 l 339 395 l 756 395 l 756 616 l 339 616 l 339 789 l 793 789 l 793 1010 l 65 1010 z m 160 1128 l 331 1128 b 430 1209 330 1170 358 1209 b 531 1128 502 1209 530 1170 l 702 1128 b 430 1347 701 1257 595 1347 b 160 1128 263 1347 159 1257 z "},"Ȩ":{"ha":864,"x_min":0,"x_max":0,"o":"m 65 0 l 386 0 l 363 -99 b 456 -170 427 -109 458 -133 b 304 -231 453 -210 401 -231 l 304 -335 b 600 -164 489 -335 601 -270 b 475 -41 599 -100 553 -53 l 483 0 l 791 0 l 791 221 l 339 221 l 339 395 l 756 395 l 756 616 l 339 616 l 339 789 l 793 789 l 793 1010 l 65 1010 z "},"Ḕ":{"ha":864,"x_min":0,"x_max":0,"o":"m 65 0 l 791 0 l 791 221 l 339 221 l 339 395 l 756 395 l 756 616 l 339 616 l 339 789 l 793 789 l 793 1010 l 65 1010 z m 679 1243 l 185 1243 l 185 1119 l 679 1119 z m 349 1338 l 533 1338 l 401 1528 l 179 1528 z "},"Ḗ":{"ha":864,"x_min":0,"x_max":0,"o":"m 65 0 l 791 0 l 791 221 l 339 221 l 339 395 l 756 395 l 756 616 l 339 616 l 339 789 l 793 789 l 793 1010 l 65 1010 z m 679 1243 l 185 1243 l 185 1119 l 679 1119 z m 331 1338 l 515 1338 l 686 1528 l 463 1528 z "},"Ḙ":{"ha":864,"x_min":0,"x_max":0,"o":"m 65 0 l 791 0 l 791 221 l 339 221 l 339 395 l 756 395 l 756 616 l 339 616 l 339 789 l 793 789 l 793 1010 l 65 1010 z m 529 -294 l 754 -294 l 754 -288 l 527 -63 l 337 -63 l 110 -288 l 110 -294 l 335 -294 l 432 -185 z "},"Ḛ":{"ha":864,"x_min":0,"x_max":0,"o":"m 65 0 l 791 0 l 791 221 l 339 221 l 339 395 l 756 395 l 756 616 l 339 616 l 339 789 l 793 789 l 793 1010 l 65 1010 z m 316 -284 b 367 -209 316 -235 335 -209 b 425 -239 388 -209 405 -223 b 550 -290 454 -262 490 -291 b 718 -77 643 -289 716 -217 l 586 -77 b 533 -154 585 -125 571 -153 b 476 -125 514 -154 497 -141 b 349 -73 447 -102 410 -73 b 182 -284 256 -73 182 -142 z "},"Ḝ":{"ha":864,"x_min":0,"x_max":0,"o":"m 65 0 l 386 0 l 363 -99 b 456 -170 427 -109 458 -133 b 304 -231 453 -210 401 -231 l 304 -335 b 600 -164 489 -335 601 -270 b 475 -41 599 -100 553 -53 l 483 0 l 791 0 l 791 221 l 339 221 l 339 395 l 756 395 l 756 616 l 339 616 l 339 789 l 793 789 l 793 1010 l 65 1010 z m 531 1282 b 432 1199 530 1239 503 1199 b 331 1282 359 1199 331 1241 l 162 1282 b 432 1071 161 1154 266 1071 b 702 1282 597 1071 702 1154 z "},"Ẹ":{"ha":864,"x_min":0,"x_max":0,"o":"m 65 0 l 791 0 l 791 221 l 339 221 l 339 395 l 756 395 l 756 616 l 339 616 l 339 789 l 793 789 l 793 1010 l 65 1010 z m 432 -306 b 566 -182 506 -306 566 -250 b 432 -57 566 -113 506 -57 b 298 -182 358 -57 298 -113 b 432 -306 298 -250 358 -306 z "},"Ẻ":{"ha":864,"x_min":0,"x_max":0,"o":"m 65 0 l 791 0 l 791 221 l 339 221 l 339 395 l 756 395 l 756 616 l 339 616 l 339 789 l 793 789 l 793 1010 l 65 1010 z m 527 1123 l 527 1162 b 633 1255 581 1170 634 1199 b 324 1391 634 1342 526 1391 l 318 1282 b 410 1241 372 1282 411 1276 b 314 1199 411 1219 384 1201 l 331 1123 z "},"Ẽ":{"ha":864,"x_min":0,"x_max":0,"o":"m 65 0 l 791 0 l 791 221 l 339 221 l 339 395 l 756 395 l 756 616 l 339 616 l 339 789 l 793 789 l 793 1010 l 65 1010 z m 298 1105 b 349 1180 298 1154 318 1180 b 407 1150 370 1180 387 1166 b 533 1099 436 1126 472 1098 b 700 1312 625 1100 698 1172 l 568 1312 b 515 1235 567 1264 553 1235 b 459 1264 496 1235 479 1248 b 331 1316 429 1287 392 1316 b 164 1105 238 1315 164 1247 z "},"Ế":{"ha":864,"x_min":0,"x_max":0,"o":"m 65 0 l 791 0 l 791 221 l 339 221 l 339 395 l 756 395 l 756 616 l 339 616 l 339 789 l 793 789 l 793 1010 l 65 1010 z m 174 1085 l 329 1085 l 430 1154 l 529 1085 l 687 1085 l 487 1221 l 371 1221 z m 635 1150 l 765 1150 l 939 1340 l 763 1340 z "},"Ề":{"ha":864,"x_min":0,"x_max":0,"o":"m 65 0 l 791 0 l 791 221 l 339 221 l 339 395 l 756 395 l 756 616 l 339 616 l 339 789 l 793 789 l 793 1010 l 65 1010 z m 489 1217 l 373 1217 l 176 1081 l 331 1081 l 432 1150 l 531 1081 l 689 1081 z m 97 1334 l -75 1334 l 99 1146 l 227 1146 z "},"Ể":{"ha":864,"x_min":0,"x_max":0,"o":"m 65 0 l 791 0 l 791 221 l 339 221 l 339 395 l 756 395 l 756 616 l 339 616 l 339 789 l 793 789 l 793 1010 l 65 1010 z m 746 1166 l 746 1198 b 835 1274 789 1205 835 1231 b 612 1387 835 1347 756 1387 l 606 1298 b 685 1263 651 1298 685 1292 b 604 1229 685 1245 661 1231 l 619 1166 z m 485 1221 l 375 1221 l 176 1085 l 335 1085 l 432 1146 l 525 1085 l 685 1085 z "},"Ễ":{"ha":864,"x_min":0,"x_max":0,"o":"m 65 0 l 791 0 l 791 221 l 339 221 l 339 395 l 756 395 l 756 616 l 339 616 l 339 789 l 793 789 l 793 1010 l 65 1010 z m 495 1233 l 371 1233 l 176 1091 l 339 1091 l 432 1160 l 529 1091 l 689 1091 z m 531 1397 b 511 1342 530 1371 526 1342 b 355 1381 465 1342 402 1381 b 274 1278 301 1381 274 1328 l 357 1255 b 379 1300 357 1280 361 1300 b 535 1259 426 1300 475 1259 b 616 1365 587 1259 615 1312 z "},"Ệ":{"ha":864,"x_min":0,"x_max":0,"o":"m 65 0 l 791 0 l 791 221 l 339 221 l 339 395 l 756 395 l 756 616 l 339 616 l 339 789 l 793 789 l 793 1010 l 65 1010 z m 529 1101 l 754 1101 l 754 1107 l 527 1332 l 337 1332 l 110 1107 l 110 1101 l 335 1101 l 432 1209 z m 432 -306 b 566 -182 506 -306 566 -250 b 432 -57 566 -113 506 -57 b 298 -182 358 -57 298 -113 b 432 -306 298 -250 358 -306 z "},"Ɇ":{"ha":864,"x_min":0,"x_max":0,"o":"m 696 1138 l 584 1138 l 547 1010 l 65 1010 l 65 0 l 256 0 l 219 -128 l 331 -128 l 368 0 l 791 0 l 791 221 l 432 221 l 482 395 l 756 395 l 756 616 l 546 616 l 596 789 l 793 789 l 793 1010 l 659 1010 z m 483 789 l 434 616 l 339 616 l 339 789 z m 369 395 l 339 290 l 339 395 z "},"Ǝ":{"ha":864,"x_min":0,"x_max":0,"o":"m 799 1010 l 73 1010 l 73 789 l 525 789 l 525 616 l 109 616 l 109 395 l 525 395 l 525 221 l 71 221 l 71 0 l 799 0 z "},"Ε":{"ha":864,"x_min":0,"x_max":0,"o":"m 65 0 l 791 0 l 791 221 l 339 221 l 339 395 l 756 395 l 756 616 l 339 616 l 339 789 l 793 789 l 793 1010 l 65 1010 z "},"Έ":{"ha":1178,"x_min":0,"x_max":0,"o":"m 379 0 l 1105 0 l 1105 221 l 653 221 l 653 395 l 1069 395 l 1069 616 l 653 616 l 653 789 l 1107 789 l 1107 1010 l 379 1010 z m 77 852 l 229 852 l 371 1089 l 142 1089 z "},"Ἐ":{"ha":1083,"x_min":0,"x_max":0,"o":"m 284 0 l 1010 0 l 1010 221 l 558 221 l 558 395 l 975 395 l 975 616 l 558 616 l 558 789 l 1012 789 l 1012 1010 l 284 1010 z m 201 1010 l 85 1010 l 85 943 b 32 840 85 898 75 860 l 93 765 b 201 939 150 789 201 850 z "},"Ἑ":{"ha":1093,"x_min":0,"x_max":0,"o":"m 294 0 l 1020 0 l 1020 221 l 568 221 l 568 395 l 984 395 l 984 616 l 568 616 l 568 789 l 1022 789 l 1022 1010 l 294 1010 z m 73 939 b 182 765 74 850 125 789 l 243 840 b 191 943 198 862 192 908 l 191 1010 l 73 1010 z "},"Ἒ":{"ha":1347,"x_min":0,"x_max":0,"o":"m 548 0 l 1274 0 l 1274 221 l 823 221 l 823 395 l 1239 395 l 1239 616 l 823 616 l 823 789 l 1276 789 l 1276 1010 l 548 1010 z m 258 1010 l 128 1010 l 128 959 b 71 807 129 896 109 848 l 126 765 b 258 955 210 809 259 876 z m 521 791 l 440 1010 l 290 1010 l 290 996 l 454 781 l 521 781 z "},"Ἓ":{"ha":1314,"x_min":0,"x_max":0,"o":"m 515 0 l 1241 0 l 1241 221 l 789 221 l 789 395 l 1205 395 l 1205 616 l 789 616 l 789 789 l 1243 789 l 1243 1010 l 515 1010 z m 67 939 b 180 765 66 850 117 789 l 241 840 b 187 943 190 862 186 908 l 187 1010 l 67 1010 z m 479 799 l 400 1010 l 249 1010 l 249 996 l 412 779 l 479 779 z "},"Ἔ":{"ha":1344,"x_min":0,"x_max":0,"o":"m 545 0 l 1271 0 l 1271 221 l 819 221 l 819 395 l 1235 395 l 1235 616 l 819 616 l 819 789 l 1272 789 l 1272 1010 l 545 1010 z m 249 1010 l 128 1010 l 128 943 b 75 840 127 908 123 862 l 136 765 b 249 939 196 789 248 852 z m 276 779 l 343 779 l 507 996 l 507 1010 l 357 1010 l 276 799 z "},"Ἕ":{"ha":1359,"x_min":0,"x_max":0,"o":"m 560 0 l 1286 0 l 1286 221 l 835 221 l 835 395 l 1251 395 l 1251 616 l 835 616 l 835 789 l 1288 789 l 1288 1010 l 560 1010 z m 290 779 l 353 779 l 519 996 l 519 1010 l 367 1010 l 290 799 z m 182 765 l 243 840 b 191 943 200 860 192 898 l 191 1010 l 73 1010 l 73 939 b 182 765 73 846 129 787 z "},"Ὲ":{"ha":1136,"x_min":0,"x_max":0,"o":"m 337 0 l 1063 0 l 1063 221 l 612 221 l 612 395 l 1028 395 l 1028 616 l 612 616 l 612 789 l 1065 789 l 1065 1010 l 337 1010 z m 235 779 l 298 779 l 298 803 l 221 1010 l 71 1010 l 71 996 z "},"Έ":{"ha":1136,"x_min":0,"x_max":0,"o":"m 337 0 l 1063 0 l 1063 221 l 612 221 l 612 395 l 1028 395 l 1028 616 l 612 616 l 612 789 l 1065 789 l 1065 1010 l 337 1010 z m 41 852 l 174 852 l 337 1069 l 337 1083 l 120 1083 l 41 876 z "},"Е":{"ha":864,"x_min":0,"x_max":0,"o":"m 65 0 l 791 0 l 791 221 l 339 221 l 339 395 l 756 395 l 756 616 l 339 616 l 339 789 l 793 789 l 793 1010 l 65 1010 z "},"Ѐ":{"ha":864,"x_min":0,"x_max":0,"o":"m 65 0 l 791 0 l 791 221 l 339 221 l 339 395 l 756 395 l 756 616 l 339 616 l 339 789 l 793 789 l 793 1010 l 65 1010 z m 343 1105 l 523 1105 l 428 1326 l 195 1326 z "},"Ё":{"ha":864,"x_min":0,"x_max":0,"o":"m 65 0 l 791 0 l 791 221 l 339 221 l 339 395 l 756 395 l 756 616 l 339 616 l 339 789 l 793 789 l 793 1010 l 65 1010 z m 276 1099 b 395 1213 341 1099 395 1150 b 276 1328 395 1276 341 1328 b 156 1213 209 1328 156 1276 b 276 1099 156 1150 209 1099 z m 590 1099 b 708 1213 655 1099 708 1150 b 590 1328 708 1276 655 1328 b 470 1213 523 1328 470 1276 b 590 1099 470 1150 523 1099 z "},"Ӗ":{"ha":864,"x_min":0,"x_max":0,"o":"m 65 0 l 791 0 l 791 221 l 339 221 l 339 395 l 756 395 l 756 616 l 339 616 l 339 789 l 793 789 l 793 1010 l 65 1010 z m 531 1282 b 432 1199 530 1239 503 1199 b 331 1282 359 1199 331 1241 l 162 1282 b 432 1071 161 1154 266 1071 b 702 1282 597 1071 702 1154 z "},"F":{"ha":811,"x_min":0,"x_max":0,"o":"m 65 0 l 339 0 l 339 395 l 732 395 l 732 616 l 339 616 l 339 789 l 775 789 l 775 1010 l 65 1010 z "},"Ƒ":{"ha":862,"x_min":0,"x_max":0,"o":"m 116 -24 b 14 -79 116 -69 64 -79 b 2 -79 10 -79 6 -79 b -32 -79 -8 -80 -21 -80 l -32 -280 b 87 -284 -3 -284 60 -284 b 391 -24 230 -284 391 -262 l 391 395 l 783 395 l 783 616 l 391 616 l 391 789 l 827 789 l 827 1010 l 116 1010 z "},"Ḟ":{"ha":811,"x_min":0,"x_max":0,"o":"m 65 0 l 339 0 l 339 395 l 732 395 l 732 616 l 339 616 l 339 789 l 775 789 l 775 1010 l 65 1010 z m 422 1089 b 556 1213 496 1089 556 1145 b 422 1338 556 1282 496 1338 b 288 1213 348 1338 288 1282 b 422 1089 288 1145 348 1089 z "},"Ⅎ":{"ha":811,"x_min":0,"x_max":0,"o":"m 746 1010 l 472 1010 l 472 616 l 79 616 l 79 395 l 472 395 l 472 221 l 36 221 l 36 0 l 746 0 z "},"G":{"ha":1073,"x_min":0,"x_max":0,"o":"m 721 677 l 998 677 b 554 1024 977 879 793 1024 b 61 503 282 1024 61 836 b 556 -14 61 183 261 -14 b 1010 424 821 -14 1010 148 l 1010 564 l 562 564 l 562 369 l 746 369 b 558 225 743 281 681 225 b 343 507 416 225 343 329 b 560 785 343 682 422 785 b 721 677 646 785 704 746 z "},"Ǥ":{"ha":1073,"x_min":0,"x_max":0,"o":"m 1042 339 l 1004 339 b 1010 424 1008 366 1010 395 l 1010 564 l 562 564 l 562 369 l 746 369 b 742 339 745 359 744 349 l 562 339 l 562 278 l 712 278 b 558 225 682 244 631 225 b 343 507 416 225 343 329 b 560 785 343 682 422 785 b 721 677 646 785 704 746 l 998 677 b 554 1024 977 879 793 1024 b 61 503 282 1024 61 836 b 556 -14 61 183 261 -14 b 990 278 770 -14 935 92 l 1042 278 z "},"Ɠ":{"ha":1215,"x_min":0,"x_max":0,"o":"m 998 677 l 998 862 b 1142 959 998 947 1069 959 b 1215 953 1166 959 1190 955 l 1215 1166 b 1095 1182 1170 1176 1134 1182 b 743 990 948 1182 802 1115 b 554 1024 687 1012 622 1024 b 61 503 282 1024 61 836 b 556 -14 61 183 261 -14 b 1010 424 821 -14 1010 148 l 1010 564 l 562 564 l 562 369 l 746 369 b 558 225 743 281 681 225 b 343 507 416 225 343 329 b 560 785 343 682 422 785 b 718 688 642 785 698 750 l 718 677 z "},"Ĝ":{"ha":1073,"x_min":0,"x_max":0,"o":"m 721 677 l 998 677 b 554 1024 977 879 793 1024 b 61 503 282 1024 61 836 b 556 -14 61 183 261 -14 b 1010 424 821 -14 1010 148 l 1010 564 l 562 564 l 562 369 l 746 369 b 558 225 743 281 681 225 b 343 507 416 225 343 329 b 560 785 343 682 422 785 b 721 677 646 785 704 746 z m 643 1101 l 868 1101 l 868 1107 l 641 1332 l 452 1332 l 225 1107 l 225 1101 l 450 1101 l 546 1209 z "},"Ğ":{"ha":1073,"x_min":0,"x_max":0,"o":"m 721 677 l 998 677 b 554 1024 977 879 793 1024 b 61 503 282 1024 61 836 b 556 -14 61 183 261 -14 b 1010 424 821 -14 1010 148 l 1010 564 l 562 564 l 562 369 l 746 369 b 558 225 743 281 681 225 b 343 507 416 225 343 329 b 560 785 343 682 422 785 b 721 677 646 785 704 746 z m 645 1282 b 546 1199 645 1239 617 1199 b 446 1282 473 1199 445 1241 l 276 1282 b 546 1071 276 1154 380 1071 b 817 1282 712 1071 816 1154 z "},"Ġ":{"ha":1073,"x_min":0,"x_max":0,"o":"m 721 677 l 998 677 b 554 1024 977 879 793 1024 b 61 503 282 1024 61 836 b 556 -14 61 183 261 -14 b 1010 424 821 -14 1010 148 l 1010 564 l 562 564 l 562 369 l 746 369 b 558 225 743 281 681 225 b 343 507 416 225 343 329 b 560 785 343 682 422 785 b 721 677 646 785 704 746 z m 546 1089 b 681 1213 620 1089 681 1145 b 546 1338 681 1282 620 1338 b 412 1213 472 1338 412 1282 b 546 1089 412 1145 472 1089 z "},"Ģ":{"ha":1073,"x_min":0,"x_max":0,"o":"m 721 677 l 998 677 b 554 1024 977 879 793 1024 b 61 503 282 1024 61 836 b 556 -14 61 183 261 -14 b 1010 424 821 -14 1010 148 l 1010 564 l 562 564 l 562 369 l 746 369 b 558 225 743 281 681 225 b 343 507 416 225 343 329 b 560 785 343 682 422 785 b 721 677 646 785 704 746 z m 360 -312 l 545 -312 l 670 -76 l 425 -76 z "},"Ǧ":{"ha":1073,"x_min":0,"x_max":0,"o":"m 721 677 l 998 677 b 554 1024 977 879 793 1024 b 61 503 282 1024 61 836 b 556 -14 61 183 261 -14 b 1010 424 821 -14 1010 148 l 1010 564 l 562 564 l 562 369 l 746 369 b 558 225 743 281 681 225 b 343 507 416 225 343 329 b 560 785 343 682 422 785 b 721 677 646 785 704 746 z m 450 1332 l 225 1332 l 225 1326 l 452 1101 l 641 1101 l 868 1326 l 868 1332 l 643 1332 l 546 1223 z "},"Ǵ":{"ha":1073,"x_min":0,"x_max":0,"o":"m 721 677 l 998 677 b 554 1024 977 879 793 1024 b 61 503 282 1024 61 836 b 556 -14 61 183 261 -14 b 1010 424 821 -14 1010 148 l 1010 564 l 562 564 l 562 369 l 746 369 b 558 225 743 281 681 225 b 343 507 416 225 343 329 b 560 785 343 682 422 785 b 721 677 646 785 704 746 z m 456 1105 l 635 1105 l 783 1326 l 550 1326 z "},"Ḡ":{"ha":1073,"x_min":0,"x_max":0,"o":"m 721 677 l 998 677 b 554 1024 977 879 793 1024 b 61 503 282 1024 61 836 b 556 -14 61 183 261 -14 b 1010 424 821 -14 1010 148 l 1010 564 l 562 564 l 562 369 l 746 369 b 558 225 743 281 681 225 b 343 507 416 225 343 329 b 560 785 343 682 422 785 b 721 677 646 785 704 746 z m 793 1263 l 300 1263 l 300 1138 l 793 1138 z "},"":{"ha":1081,"x_min":0,"x_max":0,"o":"m 556 -14 b 827 110 674 -14 764 32 l 833 110 l 843 0 l 1018 0 l 1018 564 l 562 564 l 562 369 l 746 369 b 558 225 743 281 681 225 b 343 507 418 225 343 329 b 565 785 343 683 427 785 b 732 677 651 785 715 747 l 1008 677 b 559 1024 987 881 798 1024 b 61 503 287 1024 61 836 b 556 -14 61 183 263 -14 z "},"":{"ha":1083,"x_min":0,"x_max":0,"o":"m 1052 339 l 1018 339 l 1018 564 l 562 564 l 562 369 l 746 369 b 742 339 745 359 744 349 l 562 339 l 562 278 l 712 278 b 558 225 682 244 631 225 b 343 507 418 225 343 329 b 565 785 343 683 427 785 b 732 677 651 785 715 747 l 1008 677 b 559 1024 987 881 798 1024 b 61 503 287 1024 61 836 b 556 -14 61 183 263 -14 b 827 110 674 -14 764 32 l 833 110 l 843 0 l 1018 0 l 1018 278 l 1052 278 z "},"":{"ha":1215,"x_min":0,"x_max":0,"o":"m 1008 677 l 1008 862 b 1152 959 1008 947 1079 959 b 1225 953 1176 959 1199 955 l 1225 1166 b 1105 1182 1180 1176 1144 1182 b 753 989 957 1182 811 1115 b 559 1024 694 1012 629 1024 b 61 503 287 1024 61 836 b 556 -14 61 183 263 -14 b 827 110 674 -14 764 32 l 833 110 l 843 0 l 1018 0 l 1018 564 l 562 564 l 562 369 l 746 369 b 558 225 743 281 681 225 b 343 507 418 225 343 329 b 565 785 343 683 427 785 b 728 690 645 785 706 752 l 728 677 z "},"":{"ha":1081,"x_min":0,"x_max":0,"o":"m 556 -14 b 827 110 674 -14 764 32 l 833 110 l 843 0 l 1018 0 l 1018 564 l 562 564 l 562 369 l 746 369 b 558 225 743 281 681 225 b 343 507 418 225 343 329 b 565 785 343 683 427 785 b 732 677 651 785 715 747 l 1008 677 b 559 1024 987 881 798 1024 b 61 503 287 1024 61 836 b 556 -14 61 183 263 -14 z m 643 1101 l 868 1101 l 868 1107 l 641 1332 l 452 1332 l 225 1107 l 225 1101 l 450 1101 l 546 1209 z "},"":{"ha":1081,"x_min":0,"x_max":0,"o":"m 556 -14 b 827 110 674 -14 764 32 l 833 110 l 843 0 l 1018 0 l 1018 564 l 562 564 l 562 369 l 746 369 b 558 225 743 281 681 225 b 343 507 418 225 343 329 b 565 785 343 683 427 785 b 732 677 651 785 715 747 l 1008 677 b 559 1024 987 881 798 1024 b 61 503 287 1024 61 836 b 556 -14 61 183 263 -14 z m 645 1282 b 546 1199 645 1239 617 1199 b 446 1282 473 1199 445 1241 l 276 1282 b 546 1071 276 1154 380 1071 b 817 1282 712 1071 816 1154 z "},"":{"ha":1081,"x_min":0,"x_max":0,"o":"m 556 -14 b 827 110 674 -14 764 32 l 833 110 l 843 0 l 1018 0 l 1018 564 l 562 564 l 562 369 l 746 369 b 558 225 743 281 681 225 b 343 507 418 225 343 329 b 565 785 343 683 427 785 b 732 677 651 785 715 747 l 1008 677 b 559 1024 987 881 798 1024 b 61 503 287 1024 61 836 b 556 -14 61 183 263 -14 z m 546 1089 b 681 1213 620 1089 681 1145 b 546 1338 681 1282 620 1338 b 412 1213 472 1338 412 1282 b 546 1089 412 1145 472 1089 z "},"":{"ha":1081,"x_min":0,"x_max":0,"o":"m 556 -14 b 827 110 674 -14 764 32 l 833 110 l 843 0 l 1018 0 l 1018 564 l 562 564 l 562 369 l 746 369 b 558 225 743 281 681 225 b 343 507 418 225 343 329 b 565 785 343 683 427 785 b 732 677 651 785 715 747 l 1008 677 b 559 1024 987 881 798 1024 b 61 503 287 1024 61 836 b 556 -14 61 183 263 -14 z m 360 -312 l 545 -312 l 670 -76 l 425 -76 z "},"":{"ha":1081,"x_min":0,"x_max":0,"o":"m 556 -14 b 827 110 674 -14 764 32 l 833 110 l 843 0 l 1018 0 l 1018 564 l 562 564 l 562 369 l 746 369 b 558 225 743 281 681 225 b 343 507 418 225 343 329 b 565 785 343 683 427 785 b 732 677 651 785 715 747 l 1008 677 b 559 1024 987 881 798 1024 b 61 503 287 1024 61 836 b 556 -14 61 183 263 -14 z m 450 1332 l 225 1332 l 225 1326 l 452 1101 l 641 1101 l 868 1326 l 868 1332 l 643 1332 l 546 1223 z "},"":{"ha":1081,"x_min":0,"x_max":0,"o":"m 556 -14 b 827 110 674 -14 764 32 l 833 110 l 843 0 l 1018 0 l 1018 564 l 562 564 l 562 369 l 746 369 b 558 225 743 281 681 225 b 343 507 418 225 343 329 b 565 785 343 683 427 785 b 732 677 651 785 715 747 l 1008 677 b 559 1024 987 881 798 1024 b 61 503 287 1024 61 836 b 556 -14 61 183 263 -14 z m 456 1105 l 635 1105 l 783 1326 l 550 1326 z "},"":{"ha":1081,"x_min":0,"x_max":0,"o":"m 556 -14 b 827 110 674 -14 764 32 l 833 110 l 843 0 l 1018 0 l 1018 564 l 562 564 l 562 369 l 746 369 b 558 225 743 281 681 225 b 343 507 418 225 343 329 b 565 785 343 683 427 785 b 732 677 651 785 715 747 l 1008 677 b 559 1024 987 881 798 1024 b 61 503 287 1024 61 836 b 556 -14 61 183 263 -14 z m 793 1263 l 300 1263 l 300 1138 l 793 1138 z "},"H":{"ha":1042,"x_min":0,"x_max":0,"o":"m 65 0 l 339 0 l 339 395 l 702 395 l 702 0 l 977 0 l 977 1010 l 702 1010 l 702 616 l 339 616 l 339 1010 l 65 1010 z "},"Ḩ":{"ha":1042,"x_min":0,"x_max":0,"o":"m 65 0 l 147 0 l 124 -99 b 217 -170 188 -109 219 -133 b 65 -231 215 -210 162 -231 l 65 -335 b 361 -164 250 -335 362 -270 b 237 -41 361 -100 315 -53 l 244 0 l 339 0 l 339 395 l 702 395 l 702 0 l 977 0 l 977 1010 l 702 1010 l 702 616 l 339 616 l 339 1010 l 65 1010 z "},"Ĥ":{"ha":1042,"x_min":0,"x_max":0,"o":"m 65 0 l 339 0 l 339 395 l 702 395 l 702 0 l 977 0 l 977 1010 l 702 1010 l 702 616 l 339 616 l 339 1010 l 65 1010 z m 618 1101 l 842 1101 l 842 1107 l 616 1332 l 426 1332 l 199 1107 l 199 1101 l 424 1101 l 521 1209 z "},"Ȟ":{"ha":1042,"x_min":0,"x_max":0,"o":"m 65 0 l 339 0 l 339 395 l 702 395 l 702 0 l 977 0 l 977 1010 l 702 1010 l 702 616 l 339 616 l 339 1010 l 65 1010 z m 424 1332 l 199 1332 l 199 1326 l 426 1101 l 616 1101 l 842 1326 l 842 1332 l 618 1332 l 521 1223 z "},"Ḣ":{"ha":1042,"x_min":0,"x_max":0,"o":"m 65 0 l 339 0 l 339 395 l 702 395 l 702 0 l 977 0 l 977 1010 l 702 1010 l 702 616 l 339 616 l 339 1010 l 65 1010 z m 521 1089 b 655 1213 595 1089 655 1145 b 521 1338 655 1282 595 1338 b 387 1213 447 1338 387 1282 b 521 1089 387 1145 447 1089 z "},"Ḥ":{"ha":1042,"x_min":0,"x_max":0,"o":"m 65 0 l 339 0 l 339 395 l 702 395 l 702 0 l 977 0 l 977 1010 l 702 1010 l 702 616 l 339 616 l 339 1010 l 65 1010 z m 521 -306 b 655 -182 595 -306 655 -250 b 521 -57 655 -113 595 -57 b 387 -182 447 -57 387 -113 b 521 -306 387 -250 447 -306 z "},"Ḧ":{"ha":1042,"x_min":0,"x_max":0,"o":"m 65 0 l 339 0 l 339 395 l 702 395 l 702 0 l 977 0 l 977 1010 l 702 1010 l 702 616 l 339 616 l 339 1010 l 65 1010 z m 365 1099 b 483 1213 430 1099 483 1150 b 365 1328 483 1276 430 1328 b 245 1213 298 1328 245 1276 b 365 1099 245 1150 298 1099 z m 679 1099 b 797 1213 744 1099 797 1150 b 679 1328 797 1276 744 1328 b 558 1213 612 1328 558 1276 b 679 1099 558 1150 612 1099 z "},"Ḫ":{"ha":1042,"x_min":0,"x_max":0,"o":"m 65 0 l 339 0 l 339 395 l 702 395 l 702 0 l 977 0 l 977 1010 l 702 1010 l 702 616 l 339 616 l 339 1010 l 65 1010 z m 623 -49 b 523 -132 622 -89 593 -132 b 422 -49 449 -132 421 -91 l 253 -49 b 521 -268 252 -182 360 -268 b 793 -49 690 -268 792 -174 z "},"Ħ":{"ha":1156,"x_min":0,"x_max":0,"o":"m 1119 860 l 1034 860 l 1034 1010 l 760 1010 l 760 860 l 397 860 l 397 1010 l 122 1010 l 122 860 l 37 860 l 37 730 l 122 730 l 122 0 l 397 0 l 397 395 l 760 395 l 760 0 l 1034 0 l 1034 730 l 1119 730 z m 760 730 l 760 616 l 397 616 l 397 730 z "},"Ӈ":{"ha":1042,"x_min":0,"x_max":0,"o":"m 65 0 l 339 0 l 339 395 l 702 395 l 702 -8 b 568 -91 702 -79 629 -91 b 493 -87 549 -91 511 -88 l 493 -304 b 578 -310 498 -304 541 -310 b 977 -28 977 -310 977 -99 l 977 1010 l 702 1010 l 702 616 l 339 616 l 339 1010 l 65 1010 z "},"Ң":{"ha":1267,"x_min":0,"x_max":0,"o":"m 65 0 l 339 0 l 339 395 l 702 395 l 702 0 l 977 0 l 977 -243 l 1239 -243 l 1239 170 l 977 170 l 977 1010 l 702 1010 l 702 616 l 339 616 l 339 1010 l 65 1010 z "},"Ӊ":{"ha":1205,"x_min":0,"x_max":0,"o":"m 65 0 l 339 0 l 339 395 l 702 395 l 702 0 l 977 0 l 977 -14 b 915 -211 977 -111 944 -165 b 898 -239 909 -220 903 -229 l 1018 -308 b 1178 6 1109 -245 1180 -116 l 1178 140 l 977 140 l 977 1010 l 702 1010 l 702 616 l 339 616 l 339 1010 l 65 1010 z "},"Ҥ":{"ha":1417,"x_min":0,"x_max":0,"o":"m 1379 1010 l 702 1010 l 702 616 l 339 616 l 339 1010 l 65 1010 l 65 0 l 339 0 l 339 395 l 702 395 l 702 0 l 977 0 l 977 789 l 1379 789 z "},"Ƕ":{"ha":1568,"x_min":0,"x_max":0,"o":"m 1101 -14 b 1499 353 1349 -14 1499 126 l 1499 724 l 1225 724 l 1225 353 b 1101 211 1225 264 1178 211 b 977 353 1024 211 977 264 l 977 1010 l 702 1010 l 702 616 l 339 616 l 339 1010 l 65 1010 l 65 0 l 339 0 l 339 395 l 702 395 l 702 353 b 1101 -14 702 126 854 -14 z "},"Η":{"ha":1042,"x_min":0,"x_max":0,"o":"m 65 0 l 339 0 l 339 395 l 702 395 l 702 0 l 977 0 l 977 1010 l 702 1010 l 702 616 l 339 616 l 339 1010 l 65 1010 z "},"Ή":{"ha":1351,"x_min":0,"x_max":0,"o":"m 375 0 l 649 0 l 649 395 l 1012 395 l 1012 0 l 1286 0 l 1286 1010 l 1012 1010 l 1012 616 l 649 616 l 649 1010 l 375 1010 z m 77 852 l 229 852 l 371 1089 l 142 1089 z "},"Ἠ":{"ha":1290,"x_min":0,"x_max":0,"o":"m 314 0 l 588 0 l 588 395 l 951 395 l 951 0 l 1225 0 l 1225 1010 l 951 1010 l 951 616 l 588 616 l 588 1010 l 314 1010 z m 235 1010 l 118 1010 l 118 943 b 65 840 118 898 109 860 l 126 765 b 235 939 183 789 235 850 z "},"Ἡ":{"ha":1267,"x_min":0,"x_max":0,"o":"m 290 0 l 564 0 l 564 395 l 927 395 l 927 0 l 1201 0 l 1201 1010 l 927 1010 l 927 616 l 564 616 l 564 1010 l 290 1010 z m 73 939 b 182 765 74 850 125 789 l 243 840 b 191 943 198 862 192 908 l 191 1010 l 73 1010 z "},"Ἢ":{"ha":1521,"x_min":0,"x_max":0,"o":"m 545 0 l 819 0 l 819 395 l 1182 395 l 1182 0 l 1456 0 l 1456 1010 l 1182 1010 l 1182 616 l 819 616 l 819 1010 l 545 1010 z m 258 1010 l 128 1010 l 128 959 b 71 807 129 896 109 848 l 126 765 b 258 955 210 809 259 876 z m 521 791 l 440 1010 l 290 1010 l 290 996 l 454 781 l 521 781 z "},"Ἣ":{"ha":1488,"x_min":0,"x_max":0,"o":"m 511 0 l 785 0 l 785 395 l 1148 395 l 1148 0 l 1422 0 l 1422 1010 l 1148 1010 l 1148 616 l 785 616 l 785 1010 l 511 1010 z m 67 939 b 180 765 66 850 117 789 l 241 840 b 187 943 190 862 186 908 l 187 1010 l 67 1010 z m 479 799 l 400 1010 l 249 1010 l 249 996 l 412 779 l 479 779 z "},"Ἤ":{"ha":1517,"x_min":0,"x_max":0,"o":"m 541 0 l 815 0 l 815 395 l 1178 395 l 1178 0 l 1452 0 l 1452 1010 l 1178 1010 l 1178 616 l 815 616 l 815 1010 l 541 1010 z m 249 1010 l 128 1010 l 128 943 b 75 840 127 908 123 862 l 136 765 b 249 939 196 789 248 852 z m 276 779 l 343 779 l 507 996 l 507 1010 l 357 1010 l 276 799 z "},"Ἥ":{"ha":1533,"x_min":0,"x_max":0,"o":"m 556 0 l 831 0 l 831 395 l 1194 395 l 1194 0 l 1468 0 l 1468 1010 l 1194 1010 l 1194 616 l 831 616 l 831 1010 l 556 1010 z m 290 779 l 353 779 l 519 996 l 519 1010 l 367 1010 l 290 799 z m 182 765 l 243 840 b 191 943 200 860 192 898 l 191 1010 l 73 1010 l 73 939 b 182 765 73 846 129 787 z "},"Ἦ":{"ha":1411,"x_min":0,"x_max":0,"o":"m 434 0 l 708 0 l 708 395 l 1071 395 l 1071 0 l 1345 0 l 1345 1010 l 1071 1010 l 1071 616 l 708 616 l 708 1010 l 434 1010 z m 395 1184 b 353 1126 395 1152 377 1126 b 182 1168 296 1126 241 1168 b 67 1044 114 1168 67 1109 l 170 1014 b 211 1073 170 1046 185 1073 b 383 1030 272 1073 310 1030 b 497 1152 450 1030 497 1087 z m 351 994 l 235 994 l 235 941 b 183 854 235 909 231 868 l 237 793 b 351 935 298 811 351 856 z "},"Ἧ":{"ha":1438,"x_min":0,"x_max":0,"o":"m 462 0 l 736 0 l 736 395 l 1099 395 l 1099 0 l 1373 0 l 1373 1010 l 1099 1010 l 1099 616 l 736 616 l 736 1010 l 462 1010 z m 395 1184 b 353 1126 395 1152 377 1126 b 182 1168 296 1126 241 1168 b 67 1044 114 1168 67 1109 l 170 1014 b 211 1073 170 1046 185 1073 b 383 1030 272 1073 310 1030 b 497 1152 450 1030 497 1087 z m 237 935 b 349 793 237 852 296 809 l 404 854 b 353 941 357 868 353 909 l 353 994 l 237 994 z "},"Ὴ":{"ha":1310,"x_min":0,"x_max":0,"o":"m 333 0 l 608 0 l 608 395 l 971 395 l 971 0 l 1245 0 l 1245 1010 l 971 1010 l 971 616 l 608 616 l 608 1010 l 333 1010 z m 235 779 l 298 779 l 298 803 l 221 1010 l 71 1010 l 71 996 z "},"Ή":{"ha":1310,"x_min":0,"x_max":0,"o":"m 333 0 l 608 0 l 608 395 l 971 395 l 971 0 l 1245 0 l 1245 1010 l 971 1010 l 971 616 l 608 616 l 608 1010 l 333 1010 z m 41 852 l 174 852 l 337 1069 l 337 1083 l 120 1083 l 41 876 z "},"Н":{"ha":1042,"x_min":0,"x_max":0,"o":"m 65 0 l 339 0 l 339 395 l 702 395 l 702 0 l 977 0 l 977 1010 l 702 1010 l 702 616 l 339 616 l 339 1010 l 65 1010 z "},"ᾘ":{"ha":1271,"x_min":0,"x_max":0,"o":"m 294 0 l 568 0 l 568 395 l 931 395 l 931 0 l 1205 0 l 1205 1010 l 931 1010 l 931 616 l 568 616 l 568 1010 l 294 1010 z m 821 -335 b 894 -326 849 -335 871 -331 l 894 -237 b 862 -239 886 -237 878 -239 b 823 -207 829 -239 823 -227 l 823 -69 l 683 -69 l 683 -207 b 821 -335 683 -298 746 -335 z m 215 1010 l 99 1010 l 99 943 b 45 840 99 898 89 860 l 107 765 b 215 939 164 789 215 850 z "},"ᾙ":{"ha":1267,"x_min":0,"x_max":0,"o":"m 290 0 l 564 0 l 564 395 l 927 395 l 927 0 l 1201 0 l 1201 1010 l 927 1010 l 927 616 l 564 616 l 564 1010 l 290 1010 z m 817 -335 b 890 -326 845 -335 867 -331 l 890 -237 b 858 -239 882 -237 874 -239 b 819 -207 825 -239 819 -227 l 819 -69 l 679 -69 l 679 -207 b 817 -335 679 -298 742 -335 z m 73 939 b 182 765 74 850 125 789 l 243 840 b 191 943 198 862 192 908 l 191 1010 l 73 1010 z "},"ᾚ":{"ha":1521,"x_min":0,"x_max":0,"o":"m 545 0 l 819 0 l 819 395 l 1182 395 l 1182 0 l 1456 0 l 1456 1010 l 1182 1010 l 1182 616 l 819 616 l 819 1010 l 545 1010 z m 1071 -335 b 1144 -326 1099 -335 1121 -331 l 1144 -237 b 1113 -239 1137 -237 1129 -239 b 1073 -207 1080 -239 1073 -227 l 1073 -69 l 933 -69 l 933 -207 b 1071 -335 933 -298 997 -335 z m 258 1010 l 128 1010 l 128 959 b 71 807 129 896 109 848 l 126 765 b 258 955 210 809 259 876 z m 521 791 l 440 1010 l 290 1010 l 290 996 l 454 781 l 521 781 z "},"ᾛ":{"ha":1488,"x_min":0,"x_max":0,"o":"m 511 0 l 785 0 l 785 395 l 1148 395 l 1148 0 l 1422 0 l 1422 1010 l 1148 1010 l 1148 616 l 785 616 l 785 1010 l 511 1010 z m 1038 -335 b 1111 -326 1066 -335 1088 -331 l 1111 -237 b 1079 -239 1103 -237 1095 -239 b 1040 -207 1046 -239 1040 -227 l 1040 -69 l 900 -69 l 900 -207 b 1038 -335 900 -298 963 -335 z m 67 939 b 180 765 66 850 117 789 l 241 840 b 187 943 190 862 186 908 l 187 1010 l 67 1010 z m 479 799 l 400 1010 l 249 1010 l 249 996 l 412 779 l 479 779 z "},"ᾜ":{"ha":1517,"x_min":0,"x_max":0,"o":"m 541 0 l 815 0 l 815 395 l 1178 395 l 1178 0 l 1452 0 l 1452 1010 l 1178 1010 l 1178 616 l 815 616 l 815 1010 l 541 1010 z m 1067 -335 b 1140 -326 1095 -335 1117 -331 l 1140 -237 b 1109 -239 1133 -237 1125 -239 b 1069 -207 1076 -239 1069 -227 l 1069 -69 l 929 -69 l 929 -207 b 1067 -335 929 -298 993 -335 z m 249 1010 l 128 1010 l 128 943 b 75 840 127 908 123 862 l 136 765 b 249 939 196 789 248 852 z m 276 779 l 343 779 l 507 996 l 507 1010 l 357 1010 l 276 799 z "},"ᾝ":{"ha":1533,"x_min":0,"x_max":0,"o":"m 556 0 l 831 0 l 831 395 l 1194 395 l 1194 0 l 1468 0 l 1468 1010 l 1194 1010 l 1194 616 l 831 616 l 831 1010 l 556 1010 z m 1083 -335 b 1156 -326 1111 -335 1133 -331 l 1156 -237 b 1125 -239 1149 -237 1141 -239 b 1085 -207 1091 -239 1085 -227 l 1085 -69 l 945 -69 l 945 -207 b 1083 -335 945 -298 1009 -335 z m 290 779 l 353 779 l 519 996 l 519 1010 l 367 1010 l 290 799 z m 182 765 l 243 840 b 191 943 200 860 192 898 l 191 1010 l 73 1010 l 73 939 b 182 765 73 846 129 787 z "},"ᾞ":{"ha":1411,"x_min":0,"x_max":0,"o":"m 434 0 l 708 0 l 708 395 l 1071 395 l 1071 0 l 1345 0 l 1345 1010 l 1071 1010 l 1071 616 l 708 616 l 708 1010 l 434 1010 z m 395 1184 b 353 1126 395 1152 377 1126 b 182 1168 296 1126 241 1168 b 67 1044 114 1168 67 1109 l 170 1014 b 211 1073 170 1046 185 1073 b 383 1030 272 1073 310 1030 b 497 1152 450 1030 497 1087 z m 961 -335 b 1034 -326 989 -335 1011 -331 l 1034 -237 b 1002 -239 1026 -237 1018 -239 b 963 -207 969 -239 963 -227 l 963 -69 l 823 -69 l 823 -207 b 961 -335 823 -298 886 -335 z m 351 994 l 235 994 l 235 941 b 183 854 235 909 231 868 l 237 793 b 351 935 298 811 351 856 z "},"ᾟ":{"ha":1438,"x_min":0,"x_max":0,"o":"m 462 0 l 736 0 l 736 395 l 1099 395 l 1099 0 l 1373 0 l 1373 1010 l 1099 1010 l 1099 616 l 736 616 l 736 1010 l 462 1010 z m 395 1184 b 353 1126 395 1152 377 1126 b 182 1168 296 1126 241 1168 b 67 1044 114 1168 67 1109 l 170 1014 b 211 1073 170 1046 185 1073 b 383 1030 272 1073 310 1030 b 497 1152 450 1030 497 1087 z m 988 -335 b 1061 -326 1017 -335 1038 -331 l 1061 -237 b 1030 -239 1054 -237 1046 -239 b 990 -207 997 -239 990 -227 l 990 -69 l 850 -69 l 850 -207 b 988 -335 850 -298 914 -335 z m 237 935 b 349 793 237 852 296 809 l 404 854 b 353 941 357 868 353 909 l 353 994 l 237 994 z "},"ῌ":{"ha":1042,"x_min":0,"x_max":0,"o":"m 65 0 l 339 0 l 339 395 l 702 395 l 702 0 l 977 0 l 977 1010 l 702 1010 l 702 616 l 339 616 l 339 1010 l 65 1010 z m 592 -335 b 665 -326 620 -335 642 -331 l 665 -237 b 633 -239 657 -237 650 -239 b 594 -207 600 -239 594 -227 l 594 -69 l 454 -69 l 454 -207 b 592 -335 454 -298 517 -335 z "},"I":{"ha":404,"x_min":0,"x_max":0,"o":"m 339 1010 l 65 1010 l 65 0 l 339 0 z "},"Ï":{"ha":404,"x_min":0,"x_max":0,"o":"m 339 1010 l 65 1010 l 65 0 l 339 0 z m 47 1099 b 166 1213 112 1099 166 1150 b 47 1328 166 1276 112 1328 b -73 1213 -20 1328 -73 1276 b 47 1099 -73 1150 -20 1099 z m 361 1099 b 479 1213 426 1099 479 1150 b 361 1328 479 1276 426 1328 b 241 1213 294 1328 241 1276 b 361 1099 241 1150 294 1099 z "},"Ḯ":{"ha":404,"x_min":0,"x_max":0,"o":"m 339 1010 l 65 1010 l 65 0 l 339 0 z m 103 1338 l 286 1338 l 457 1528 l 234 1528 z m 58 1073 b 168 1176 118 1073 168 1120 b 58 1280 168 1234 118 1280 b -55 1176 -5 1280 -55 1234 b 58 1073 -55 1120 -5 1073 z m 351 1073 b 462 1176 412 1073 462 1120 b 351 1280 462 1234 412 1280 b 238 1176 288 1280 238 1234 b 351 1073 238 1120 288 1073 z "},"Ɨ":{"ha":404,"x_min":0,"x_max":0,"o":"m 339 1010 l 65 1010 l 65 614 l -65 614 l -65 468 l 65 468 l 65 0 l 339 0 l 339 468 l 466 468 l 466 614 l 339 614 z "},"Ḭ":{"ha":404,"x_min":0,"x_max":0,"o":"m 339 1010 l 65 1010 l 65 0 l 339 0 z m 85 -284 b 136 -209 85 -235 105 -209 b 194 -239 157 -209 174 -223 b 320 -290 223 -262 259 -291 b 487 -77 412 -289 485 -217 l 355 -77 b 302 -154 354 -125 340 -153 b 246 -125 283 -154 266 -141 b 118 -73 216 -102 179 -73 b -49 -284 25 -73 -49 -142 z "},"Ì":{"ha":404,"x_min":0,"x_max":0,"o":"m 339 1010 l 65 1010 l 65 0 l 339 0 z m 114 1105 l 294 1105 l 199 1326 l -34 1326 z "},"Í":{"ha":404,"x_min":0,"x_max":0,"o":"m 339 1010 l 65 1010 l 65 0 l 339 0 z m 112 1105 l 292 1105 l 440 1326 l 207 1326 z "},"Î":{"ha":404,"x_min":0,"x_max":0,"o":"m 339 1010 l 65 1010 l 65 0 l 339 0 z m 300 1101 l 525 1101 l 525 1107 l 298 1332 l 109 1332 l -118 1107 l -118 1101 l 107 1101 l 203 1209 z "},"Ĩ":{"ha":633,"x_min":0,"x_max":0,"o":"m 452 1010 l 178 1010 l 178 0 l 452 0 z m 182 1105 b 233 1180 182 1154 201 1180 b 291 1150 254 1180 271 1166 b 416 1099 320 1126 356 1098 b 584 1312 509 1100 582 1172 l 452 1312 b 399 1235 451 1264 436 1235 b 342 1264 380 1235 363 1248 b 215 1316 313 1287 276 1316 b 47 1105 122 1315 47 1247 z "},"Ī":{"ha":404,"x_min":0,"x_max":0,"o":"m 339 1010 l 65 1010 l 65 0 l 339 0 z m 450 1263 l -43 1263 l -43 1138 l 450 1138 z "},"Ĭ":{"ha":404,"x_min":0,"x_max":0,"o":"m 339 1010 l 65 1010 l 65 0 l 339 0 z m 302 1282 b 203 1199 301 1239 274 1199 b 103 1282 130 1199 102 1241 l -67 1282 b 203 1071 -68 1154 37 1071 b 473 1282 368 1071 473 1154 z "},"Į":{"ha":404,"x_min":0,"x_max":0,"o":"m 339 1010 l 65 1010 l 65 12 b 59 -144 46 -31 43 -91 b 241 -274 84 -227 149 -274 b 359 -245 293 -274 333 -258 l 327 -122 b 286 -130 315 -124 303 -130 b 241 -79 260 -130 240 -112 b 339 0 240 -39 276 -20 z "},"İ":{"ha":404,"x_min":0,"x_max":0,"o":"m 339 1010 l 65 1010 l 65 0 l 339 0 z m 203 1089 b 337 1213 277 1089 337 1145 b 203 1338 337 1282 277 1338 b 69 1213 129 1338 69 1282 b 203 1089 69 1145 129 1089 z "},"Ǐ":{"ha":404,"x_min":0,"x_max":0,"o":"m 339 1010 l 65 1010 l 65 0 l 339 0 z m 107 1332 l -118 1332 l -118 1326 l 109 1101 l 298 1101 l 525 1326 l 525 1332 l 300 1332 l 203 1223 z "},"Ȉ":{"ha":404,"x_min":0,"x_max":0,"o":"m 339 1010 l 65 1010 l 65 0 l 339 0 z m -11 1105 l 169 1105 l 74 1326 l -159 1326 z m 256 1105 l 431 1105 l 381 1326 l 161 1326 z "},"Ȋ":{"ha":404,"x_min":0,"x_max":0,"o":"m 339 1010 l 65 1010 l 65 0 l 339 0 z m -69 1128 l 103 1128 b 201 1209 102 1170 129 1209 b 302 1128 273 1209 301 1170 l 473 1128 b 201 1347 472 1257 366 1347 b -69 1128 35 1347 -70 1257 z "},"Ỉ":{"ha":404,"x_min":0,"x_max":0,"o":"m 339 1010 l 65 1010 l 65 0 l 339 0 z m 298 1123 l 298 1162 b 404 1255 352 1170 405 1199 b 95 1391 405 1342 297 1391 l 89 1282 b 182 1241 143 1282 182 1276 b 85 1199 182 1219 155 1201 l 103 1123 z "},"Ị":{"ha":404,"x_min":0,"x_max":0,"o":"m 339 1010 l 65 1010 l 65 0 l 339 0 z m 201 -306 b 335 -182 275 -306 335 -250 b 201 -57 335 -113 275 -57 b 67 -182 127 -57 67 -113 b 201 -306 67 -250 127 -306 z "},"Ɩ":{"ha":458,"x_min":0,"x_max":0,"o":"m 69 1010 l 69 221 b 353 -4 70 52 158 -14 b 466 16 417 0 443 8 l 426 203 b 393 199 420 201 410 199 b 341 247 360 199 342 216 l 341 1010 z "},"Ι":{"ha":404,"x_min":0,"x_max":0,"o":"m 339 1010 l 65 1010 l 65 0 l 339 0 z "},"Ί":{"ha":614,"x_min":0,"x_max":0,"o":"m 548 1010 l 274 1010 l 274 0 l 548 0 z m 0 852 l 152 852 l 294 1089 l 65 1089 z "},"Ϊ":{"ha":404,"x_min":0,"x_max":0,"o":"m 339 1010 l 65 1010 l 65 0 l 339 0 z m 47 1099 b 166 1213 112 1099 166 1150 b 47 1328 166 1276 112 1328 b -73 1213 -20 1328 -73 1276 b 47 1099 -73 1150 -20 1099 z m 361 1099 b 479 1213 426 1099 479 1150 b 361 1328 479 1276 426 1328 b 241 1213 294 1328 241 1276 b 361 1099 241 1150 294 1099 z "},"Ἰ":{"ha":623,"x_min":0,"x_max":0,"o":"m 564 1010 l 290 1010 l 290 0 l 564 0 z m 235 1010 l 118 1010 l 118 943 b 65 840 118 898 109 860 l 126 765 b 235 939 183 789 235 850 z "},"Ἱ":{"ha":600,"x_min":0,"x_max":0,"o":"m 541 1010 l 266 1010 l 266 0 l 541 0 z m 73 939 b 182 765 74 850 125 789 l 243 840 b 191 943 198 862 192 908 l 191 1010 l 73 1010 z "},"Ἲ":{"ha":854,"x_min":0,"x_max":0,"o":"m 795 1010 l 521 1010 l 521 791 l 440 1010 l 290 1010 l 290 996 l 454 781 l 521 781 l 521 0 l 795 0 z m 258 1010 l 128 1010 l 128 959 b 71 807 129 896 109 848 l 126 765 b 258 955 210 809 259 876 z "},"Ἳ":{"ha":821,"x_min":0,"x_max":0,"o":"m 762 1010 l 487 1010 l 487 0 l 762 0 z m 67 939 b 180 765 66 850 117 789 l 241 840 b 187 943 190 862 186 908 l 187 1010 l 67 1010 z m 479 799 l 400 1010 l 249 1010 l 249 996 l 412 779 l 479 779 z "},"Ἴ":{"ha":850,"x_min":0,"x_max":0,"o":"m 791 1010 l 517 1010 l 517 0 l 791 0 z m 249 1010 l 128 1010 l 128 943 b 75 840 127 908 123 862 l 136 765 b 249 939 196 789 248 852 z m 276 779 l 343 779 l 507 996 l 507 1010 l 357 1010 l 276 799 z "},"Ἵ":{"ha":866,"x_min":0,"x_max":0,"o":"m 807 1010 l 533 1010 l 533 0 l 807 0 z m 290 779 l 353 779 l 519 996 l 519 1010 l 367 1010 l 290 799 z m 182 765 l 243 840 b 191 943 200 860 192 898 l 191 1010 l 73 1010 l 73 939 b 182 765 73 846 129 787 z "},"Ἶ":{"ha":744,"x_min":0,"x_max":0,"o":"m 685 1010 l 410 1010 l 410 0 l 685 0 z m 395 1184 b 353 1126 395 1152 377 1126 b 182 1168 296 1126 241 1168 b 67 1044 114 1168 67 1109 l 170 1014 b 211 1073 170 1046 185 1073 b 383 1030 272 1073 310 1030 b 497 1152 450 1030 497 1087 z m 351 994 l 235 994 l 235 941 b 183 854 235 909 231 868 l 237 793 b 351 935 298 811 351 856 z "},"Ἷ":{"ha":771,"x_min":0,"x_max":0,"o":"m 712 1010 l 438 1010 l 438 0 l 712 0 z m 395 1184 b 353 1126 395 1152 377 1126 b 182 1168 296 1126 241 1168 b 67 1044 114 1168 67 1109 l 170 1014 b 211 1073 170 1046 185 1073 b 383 1030 272 1073 310 1030 b 497 1152 450 1030 497 1087 z m 237 935 b 349 793 237 852 296 809 l 404 854 b 353 941 357 868 353 909 l 353 994 l 237 994 z "},"Ῐ":{"ha":404,"x_min":0,"x_max":0,"o":"m 339 1010 l 65 1010 l 65 0 l 339 0 z m 302 1282 b 203 1199 301 1239 274 1199 b 103 1282 130 1199 102 1241 l -67 1282 b 203 1071 -68 1154 37 1071 b 473 1282 368 1071 473 1154 z "},"Ῑ":{"ha":404,"x_min":0,"x_max":0,"o":"m 339 1010 l 65 1010 l 65 0 l 339 0 z m 450 1263 l -43 1263 l -43 1138 l 450 1138 z "},"Ὶ":{"ha":643,"x_min":0,"x_max":0,"o":"m 584 1010 l 310 1010 l 310 0 l 584 0 z m 235 779 l 298 779 l 298 803 l 221 1010 l 71 1010 l 71 996 z "},"Ί":{"ha":643,"x_min":0,"x_max":0,"o":"m 584 1010 l 310 1010 l 310 0 l 584 0 z m 41 852 l 174 852 l 337 1069 l 337 1083 l 120 1083 l 41 876 z "},"І":{"ha":404,"x_min":0,"x_max":0,"o":"m 339 1010 l 65 1010 l 65 0 l 339 0 z "},"Ї":{"ha":404,"x_min":0,"x_max":0,"o":"m 339 1010 l 65 1010 l 65 0 l 339 0 z m 47 1099 b 166 1213 112 1099 166 1150 b 47 1328 166 1276 112 1328 b -73 1213 -20 1328 -73 1276 b 47 1099 -73 1150 -20 1099 z m 361 1099 b 479 1213 426 1099 479 1150 b 361 1328 479 1276 426 1328 b 241 1213 294 1328 241 1276 b 361 1099 241 1150 294 1099 z "},"":{"ha":700,"x_min":0,"x_max":0,"o":"m 37 789 l 213 789 l 213 221 l 37 221 l 37 0 l 663 0 l 663 221 l 487 221 l 487 789 l 663 789 l 663 1010 l 37 1010 z "},"":{"ha":700,"x_min":0,"x_max":0,"o":"m 37 789 l 213 789 l 213 221 l 37 221 l 37 0 l 663 0 l 663 221 l 487 221 l 487 789 l 663 789 l 663 1010 l 37 1010 z m 195 1099 b 314 1213 260 1099 314 1150 b 195 1328 314 1276 260 1328 b 75 1213 128 1328 75 1276 b 195 1099 75 1150 128 1099 z m 509 1099 b 627 1213 574 1099 627 1150 b 509 1328 627 1276 574 1328 b 389 1213 442 1328 389 1276 b 509 1099 389 1150 442 1099 z "},"":{"ha":700,"x_min":0,"x_max":0,"o":"m 37 789 l 213 789 l 213 221 l 37 221 l 37 0 l 663 0 l 663 221 l 487 221 l 487 789 l 663 789 l 663 1010 l 37 1010 z m 251 1338 l 434 1338 l 605 1528 l 382 1528 z m 206 1073 b 316 1176 266 1073 316 1120 b 206 1280 316 1234 266 1280 b 93 1176 143 1280 93 1234 b 206 1073 93 1120 143 1073 z m 499 1073 b 610 1176 560 1073 610 1120 b 499 1280 610 1234 560 1280 b 386 1176 436 1280 386 1234 b 499 1073 386 1120 436 1073 z "},"":{"ha":700,"x_min":0,"x_max":0,"o":"m 37 789 l 213 789 l 213 614 l 83 614 l 83 468 l 213 468 l 213 221 l 37 221 l 37 0 l 663 0 l 663 221 l 487 221 l 487 468 l 614 468 l 614 614 l 487 614 l 487 789 l 663 789 l 663 1010 l 37 1010 z "},"":{"ha":700,"x_min":0,"x_max":0,"o":"m 37 789 l 213 789 l 213 221 l 37 221 l 37 0 l 663 0 l 663 221 l 487 221 l 487 789 l 663 789 l 663 1010 l 37 1010 z m 233 -284 b 284 -209 233 -235 253 -209 b 342 -239 305 -209 322 -223 b 468 -290 371 -262 407 -291 b 635 -77 560 -289 633 -217 l 503 -77 b 450 -154 502 -125 488 -153 b 394 -125 431 -154 414 -141 b 266 -73 364 -102 327 -73 b 99 -284 173 -73 99 -142 z "},"":{"ha":700,"x_min":0,"x_max":0,"o":"m 37 789 l 213 789 l 213 221 l 37 221 l 37 0 l 663 0 l 663 221 l 487 221 l 487 789 l 663 789 l 663 1010 l 37 1010 z m 262 1105 l 442 1105 l 347 1326 l 114 1326 z "},"":{"ha":700,"x_min":0,"x_max":0,"o":"m 37 789 l 213 789 l 213 221 l 37 221 l 37 0 l 663 0 l 663 221 l 487 221 l 487 789 l 663 789 l 663 1010 l 37 1010 z m 260 1105 l 440 1105 l 588 1326 l 355 1326 z "},"":{"ha":700,"x_min":0,"x_max":0,"o":"m 37 789 l 213 789 l 213 221 l 37 221 l 37 0 l 663 0 l 663 221 l 487 221 l 487 789 l 663 789 l 663 1010 l 37 1010 z m 448 1101 l 673 1101 l 673 1107 l 446 1332 l 256 1332 l 30 1107 l 30 1101 l 254 1101 l 351 1209 z "},"":{"ha":700,"x_min":0,"x_max":0,"o":"m 37 789 l 213 789 l 213 221 l 37 221 l 37 0 l 663 0 l 663 221 l 487 221 l 487 789 l 663 789 l 663 1010 l 37 1010 z m 217 1105 b 268 1180 217 1154 237 1180 b 327 1150 289 1180 306 1166 b 452 1099 356 1126 391 1098 b 619 1312 544 1100 618 1172 l 487 1312 b 434 1235 486 1264 472 1235 b 378 1264 415 1235 398 1248 b 251 1316 348 1287 311 1316 b 83 1105 157 1315 83 1247 z "},"":{"ha":700,"x_min":0,"x_max":0,"o":"m 37 789 l 213 789 l 213 221 l 37 221 l 37 0 l 663 0 l 663 221 l 487 221 l 487 789 l 663 789 l 663 1010 l 37 1010 z m 598 1263 l 105 1263 l 105 1138 l 598 1138 z "},"":{"ha":700,"x_min":0,"x_max":0,"o":"m 37 789 l 213 789 l 213 221 l 37 221 l 37 0 l 663 0 l 663 221 l 487 221 l 487 789 l 663 789 l 663 1010 l 37 1010 z m 450 1282 b 351 1199 449 1239 422 1199 b 251 1282 278 1199 250 1241 l 81 1282 b 351 1071 80 1154 185 1071 b 621 1282 516 1071 621 1154 z "},"":{"ha":700,"x_min":0,"x_max":0,"o":"m 37 789 l 213 789 l 213 221 l 37 221 l 37 0 l 384 0 b 383 -144 369 -42 368 -96 b 564 -274 408 -227 473 -274 b 683 -245 617 -274 656 -258 l 651 -122 b 610 -130 639 -124 627 -130 b 564 -79 583 -130 564 -112 b 663 0 564 -39 599 -20 l 663 221 l 487 221 l 487 789 l 663 789 l 663 1010 l 37 1010 z "},"":{"ha":700,"x_min":0,"x_max":0,"o":"m 37 789 l 213 789 l 213 221 l 37 221 l 37 0 l 663 0 l 663 221 l 487 221 l 487 789 l 663 789 l 663 1010 l 37 1010 z m 351 1089 b 485 1213 425 1089 485 1145 b 351 1338 485 1282 425 1338 b 217 1213 277 1338 217 1282 b 351 1089 217 1145 277 1089 z "},"":{"ha":700,"x_min":0,"x_max":0,"o":"m 37 789 l 213 789 l 213 221 l 37 221 l 37 0 l 663 0 l 663 221 l 487 221 l 487 789 l 663 789 l 663 1010 l 37 1010 z m 254 1332 l 30 1332 l 30 1326 l 256 1101 l 446 1101 l 673 1326 l 673 1332 l 448 1332 l 351 1223 z "},"":{"ha":700,"x_min":0,"x_max":0,"o":"m 37 789 l 213 789 l 213 221 l 37 221 l 37 0 l 663 0 l 663 221 l 487 221 l 487 789 l 663 789 l 663 1010 l 37 1010 z m 137 1105 l 317 1105 l 222 1326 l -11 1326 z m 404 1105 l 579 1105 l 529 1326 l 309 1326 z "},"":{"ha":700,"x_min":0,"x_max":0,"o":"m 37 789 l 213 789 l 213 221 l 37 221 l 37 0 l 663 0 l 663 221 l 487 221 l 487 789 l 663 789 l 663 1010 l 37 1010 z m 79 1128 l 251 1128 b 349 1209 250 1170 277 1209 b 450 1128 421 1209 449 1170 l 621 1128 b 349 1347 620 1257 514 1347 b 79 1128 182 1347 78 1257 z "},"":{"ha":700,"x_min":0,"x_max":0,"o":"m 37 789 l 213 789 l 213 221 l 37 221 l 37 0 l 663 0 l 663 221 l 487 221 l 487 789 l 663 789 l 663 1010 l 37 1010 z m 446 1123 l 446 1162 b 552 1255 500 1170 553 1199 b 243 1391 553 1342 445 1391 l 237 1282 b 329 1241 291 1282 330 1276 b 233 1199 330 1219 303 1201 l 251 1123 z "},"":{"ha":700,"x_min":0,"x_max":0,"o":"m 37 789 l 213 789 l 213 221 l 37 221 l 37 0 l 663 0 l 663 221 l 487 221 l 487 789 l 663 789 l 663 1010 l 37 1010 z m 349 -306 b 483 -182 423 -306 483 -250 b 349 -57 483 -113 423 -57 b 215 -182 275 -57 215 -113 b 349 -306 215 -250 275 -306 z "},"":{"ha":925,"x_min":0,"x_max":0,"o":"m 262 789 l 438 789 l 438 221 l 262 221 l 262 0 l 888 0 l 888 221 l 712 221 l 712 789 l 888 789 l 888 1010 l 262 1010 z m 207 1010 l 91 1010 l 91 943 b 37 840 91 898 81 860 l 99 765 b 207 939 156 789 207 850 z "},"":{"ha":894,"x_min":0,"x_max":0,"o":"m 231 789 l 406 789 l 406 221 l 231 221 l 231 0 l 856 0 l 856 221 l 681 221 l 681 789 l 856 789 l 856 1010 l 231 1010 z m 37 939 b 146 765 38 850 90 789 l 207 840 b 156 943 163 862 157 908 l 156 1010 l 37 1010 z "},"":{"ha":1150,"x_min":0,"x_max":0,"o":"m 487 789 l 663 789 l 663 221 l 487 221 l 487 0 l 1113 0 l 1113 221 l 937 221 l 937 789 l 1113 789 l 1113 1010 l 487 1010 l 487 791 l 406 1010 l 256 1010 l 256 996 l 420 781 l 487 781 z m 225 1010 l 95 1010 l 95 959 b 37 807 95 896 75 848 l 93 765 b 225 955 176 809 225 876 z "},"":{"ha":1121,"x_min":0,"x_max":0,"o":"m 458 789 l 633 789 l 633 221 l 458 221 l 458 0 l 1083 0 l 1083 221 l 908 221 l 908 789 l 1083 789 l 1083 1010 l 458 1010 z m 37 939 b 150 765 36 850 88 789 l 211 840 b 158 943 161 862 157 908 l 158 1010 l 37 1010 z m 450 799 l 371 1010 l 219 1010 l 219 996 l 383 779 l 450 779 z "},"":{"ha":1142,"x_min":0,"x_max":0,"o":"m 479 789 l 655 789 l 655 221 l 479 221 l 479 0 l 1105 0 l 1105 221 l 929 221 l 929 789 l 1105 789 l 1105 1010 l 479 1010 z m 211 1010 l 91 1010 l 91 943 b 37 840 90 908 86 862 l 99 765 b 211 939 159 789 210 852 z m 239 779 l 306 779 l 470 996 l 470 1010 l 320 1010 l 239 799 z "},"":{"ha":1160,"x_min":0,"x_max":0,"o":"m 497 789 l 673 789 l 673 221 l 497 221 l 497 0 l 1123 0 l 1123 221 l 947 221 l 947 789 l 1123 789 l 1123 1010 l 497 1010 z m 254 779 l 318 779 l 483 996 l 483 1010 l 331 1010 l 254 799 z m 146 765 l 207 840 b 156 943 164 860 156 898 l 156 1010 l 37 1010 l 37 939 b 146 765 38 846 93 787 z "},"":{"ha":1044,"x_min":0,"x_max":0,"o":"m 381 789 l 556 789 l 556 221 l 381 221 l 381 0 l 1006 0 l 1006 221 l 831 221 l 831 789 l 1006 789 l 1006 1010 l 381 1010 z m 365 1184 b 324 1126 365 1152 347 1126 b 152 1168 266 1126 211 1168 b 37 1044 85 1168 37 1109 l 140 1014 b 182 1073 140 1046 156 1073 b 353 1030 243 1073 280 1030 b 468 1152 420 1030 468 1087 z m 322 994 l 205 994 l 205 941 b 154 854 205 909 201 868 l 207 793 b 322 935 268 811 322 856 z "},"":{"ha":1071,"x_min":0,"x_max":0,"o":"m 408 789 l 584 789 l 584 221 l 408 221 l 408 0 l 1034 0 l 1034 221 l 858 221 l 858 789 l 1034 789 l 1034 1010 l 408 1010 z m 365 1184 b 324 1126 365 1152 347 1126 b 152 1168 266 1126 211 1168 b 37 1044 85 1168 37 1109 l 140 1014 b 182 1073 140 1046 156 1073 b 353 1030 243 1073 280 1030 b 468 1152 420 1030 468 1087 z m 207 935 b 320 793 207 852 266 809 l 375 854 b 324 941 327 868 324 909 l 324 994 l 207 994 z "},"":{"ha":700,"x_min":0,"x_max":0,"o":"m 37 789 l 213 789 l 213 221 l 37 221 l 37 0 l 663 0 l 663 221 l 487 221 l 487 789 l 663 789 l 663 1010 l 37 1010 z m 450 1282 b 351 1199 449 1239 422 1199 b 251 1282 278 1199 250 1241 l 81 1282 b 351 1071 80 1154 185 1071 b 621 1282 516 1071 621 1154 z "},"":{"ha":700,"x_min":0,"x_max":0,"o":"m 37 789 l 213 789 l 213 221 l 37 221 l 37 0 l 663 0 l 663 221 l 487 221 l 487 789 l 663 789 l 663 1010 l 37 1010 z m 598 1263 l 105 1263 l 105 1138 l 598 1138 z "},"":{"ha":939,"x_min":0,"x_max":0,"o":"m 276 789 l 452 789 l 452 221 l 276 221 l 276 0 l 902 0 l 902 221 l 726 221 l 726 789 l 902 789 l 902 1010 l 276 1010 z m 201 779 l 264 779 l 264 803 l 187 1010 l 37 1010 l 37 996 z "},"":{"ha":939,"x_min":0,"x_max":0,"o":"m 276 789 l 452 789 l 452 221 l 276 221 l 276 0 l 902 0 l 902 221 l 726 221 l 726 789 l 902 789 l 902 1010 l 276 1010 z m 8 852 l 140 852 l 304 1069 l 304 1083 l 87 1083 l 8 876 z "},"":{"ha":700,"x_min":0,"x_max":0,"o":"m 37 789 l 213 789 l 213 221 l 37 221 l 37 0 l 663 0 l 663 221 l 487 221 l 487 789 l 663 789 l 663 1010 l 37 1010 z "},"":{"ha":700,"x_min":0,"x_max":0,"o":"m 37 789 l 213 789 l 213 221 l 37 221 l 37 0 l 663 0 l 663 221 l 487 221 l 487 789 l 663 789 l 663 1010 l 37 1010 z m 195 1099 b 314 1213 260 1099 314 1150 b 195 1328 314 1276 260 1328 b 75 1213 128 1328 75 1276 b 195 1099 75 1150 128 1099 z m 509 1099 b 627 1213 574 1099 627 1150 b 509 1328 627 1276 574 1328 b 389 1213 442 1328 389 1276 b 509 1099 389 1150 442 1099 z "},"J":{"ha":817,"x_min":0,"x_max":0,"o":"m 481 1010 l 481 318 b 387 199 480 240 448 199 b 290 316 327 199 293 239 l 16 316 b 369 -14 15 83 175 -14 b 752 318 593 -14 751 120 l 752 1010 z "},"Ĵ":{"ha":817,"x_min":0,"x_max":0,"o":"m 481 1010 l 481 318 b 387 199 480 240 448 199 b 290 316 327 199 293 239 l 16 316 b 369 -14 15 83 175 -14 b 752 318 593 -14 751 120 l 752 1010 z m 712 1101 l 937 1101 l 937 1107 l 710 1332 l 521 1332 l 294 1107 l 294 1101 l 519 1101 l 616 1209 z "},"Ɉ":{"ha":817,"x_min":0,"x_max":0,"o":"m 481 1010 l 481 679 l 347 679 l 347 533 l 481 533 l 481 318 b 387 199 480 240 448 199 b 290 316 327 199 293 239 l 16 316 b 369 -14 15 83 175 -14 b 752 318 593 -14 751 120 l 752 533 l 878 533 l 878 679 l 752 679 l 752 1010 z "},"Ϳ":{"ha":817,"x_min":0,"x_max":0,"o":"m 481 1010 l 481 318 b 387 199 480 240 448 199 b 290 316 327 199 293 239 l 16 316 b 369 -14 15 83 175 -14 b 752 318 593 -14 751 120 l 752 1010 z "},"Ј":{"ha":817,"x_min":0,"x_max":0,"o":"m 481 1010 l 481 318 b 387 199 480 240 448 199 b 290 316 327 199 293 239 l 16 316 b 369 -14 15 83 175 -14 b 752 318 593 -14 751 120 l 752 1010 z "},"K":{"ha":992,"x_min":0,"x_max":0,"o":"m 65 0 l 339 0 l 339 260 l 430 379 l 657 0 l 984 0 l 635 560 l 977 1010 l 657 1010 l 353 602 l 339 602 l 339 1010 l 65 1010 z "},"Ķ":{"ha":992,"x_min":0,"x_max":0,"o":"m 65 0 l 339 0 l 339 260 l 430 379 l 657 0 l 984 0 l 635 560 l 977 1010 l 657 1010 l 353 602 l 339 602 l 339 1010 l 65 1010 z m 305 -314 l 490 -314 l 615 -78 l 370 -78 z "},"Ǩ":{"ha":992,"x_min":0,"x_max":0,"o":"m 65 0 l 339 0 l 339 260 l 430 379 l 657 0 l 984 0 l 635 560 l 977 1010 l 657 1010 l 353 602 l 339 602 l 339 1010 l 65 1010 z m 395 1332 l 170 1332 l 170 1326 l 397 1101 l 586 1101 l 813 1326 l 813 1332 l 588 1332 l 491 1223 z "},"Ḱ":{"ha":992,"x_min":0,"x_max":0,"o":"m 65 0 l 339 0 l 339 260 l 430 379 l 657 0 l 984 0 l 635 560 l 977 1010 l 657 1010 l 353 602 l 339 602 l 339 1010 l 65 1010 z m 400 1105 l 580 1105 l 728 1326 l 495 1326 z "},"Ḳ":{"ha":992,"x_min":0,"x_max":0,"o":"m 65 0 l 339 0 l 339 260 l 430 379 l 657 0 l 984 0 l 635 560 l 977 1010 l 657 1010 l 353 602 l 339 602 l 339 1010 l 65 1010 z m 489 -304 b 623 -180 563 -304 623 -248 b 489 -55 623 -111 563 -55 b 355 -180 415 -55 355 -111 b 489 -304 355 -248 415 -304 z "},"Ḵ":{"ha":992,"x_min":0,"x_max":0,"o":"m 65 0 l 339 0 l 339 260 l 430 379 l 657 0 l 984 0 l 635 560 l 977 1010 l 657 1010 l 353 602 l 339 602 l 339 1010 l 65 1010 z m 736 -125 l 243 -125 l 243 -250 l 736 -250 z "},"Ҡ":{"ha":1274,"x_min":0,"x_max":0,"o":"m 867 0 l 1211 0 l 805 525 l 1190 1010 l 844 1010 l 554 629 l 519 629 l 519 1010 l 30 1010 l 30 805 l 245 805 l 245 0 l 519 0 l 519 408 l 557 408 z "},"Қ":{"ha":1077,"x_min":0,"x_max":0,"o":"m 688 0 l 783 0 l 783 -231 l 1046 -231 l 1046 182 l 891 182 l 625 525 l 1010 1010 l 665 1010 l 375 629 l 339 629 l 339 1010 l 65 1010 l 65 0 l 339 0 l 339 408 l 378 408 z "},"Ƙ":{"ha":1065,"x_min":0,"x_max":0,"o":"m 65 0 l 339 0 l 339 215 l 462 341 l 722 0 l 1050 0 l 637 537 l 842 744 b 977 781 885 786 913 811 l 1057 973 b 639 909 900 1059 760 1032 l 353 619 l 339 619 l 339 1010 l 65 1010 z "},"Κ":{"ha":992,"x_min":0,"x_max":0,"o":"m 65 0 l 339 0 l 339 260 l 430 379 l 657 0 l 984 0 l 635 560 l 977 1010 l 657 1010 l 353 602 l 339 602 l 339 1010 l 65 1010 z "},"L":{"ha":793,"x_min":0,"x_max":0,"o":"m 65 0 l 748 0 l 748 221 l 339 221 l 339 1010 l 65 1010 z "},"Ĺ":{"ha":793,"x_min":0,"x_max":0,"o":"m 65 0 l 748 0 l 748 221 l 339 221 l 339 1010 l 65 1010 z m 109 1105 l 288 1105 l 436 1326 l 203 1326 z "},"Ļ":{"ha":793,"x_min":0,"x_max":0,"o":"m 65 0 l 748 0 l 748 221 l 339 221 l 339 1010 l 65 1010 z m 222 -316 l 407 -316 l 532 -80 l 287 -80 z "},"Ľ":{"ha":793,"x_min":0,"x_max":0,"o":"m 65 0 l 748 0 l 748 221 l 339 221 l 339 1010 l 65 1010 z m 477 802 l 624 802 l 661 1065 l 477 1065 z "},"Ḷ":{"ha":793,"x_min":0,"x_max":0,"o":"m 65 0 l 748 0 l 748 221 l 339 221 l 339 1010 l 65 1010 z m 406 -306 b 541 -182 480 -306 541 -250 b 406 -57 541 -113 480 -57 b 272 -182 332 -57 272 -113 b 406 -306 272 -250 332 -306 z "},"Ḹ":{"ha":793,"x_min":0,"x_max":0,"o":"m 65 0 l 748 0 l 748 221 l 339 221 l 339 1010 l 65 1010 z m 446 1263 l -47 1263 l -47 1138 l 446 1138 z m 406 -306 b 541 -182 480 -306 541 -250 b 406 -57 541 -113 480 -57 b 272 -182 332 -57 272 -113 b 406 -306 272 -250 332 -306 z "},"Ḻ":{"ha":793,"x_min":0,"x_max":0,"o":"m 65 0 l 748 0 l 748 221 l 339 221 l 339 1010 l 65 1010 z m 653 -127 l 160 -127 l 160 -252 l 653 -252 z "},"Ḽ":{"ha":793,"x_min":0,"x_max":0,"o":"m 65 0 l 748 0 l 748 221 l 339 221 l 339 1010 l 65 1010 z m 503 -294 l 728 -294 l 728 -288 l 501 -63 l 312 -63 l 85 -288 l 85 -294 l 310 -294 l 406 -185 z "},"Ł":{"ha":835,"x_min":0,"x_max":0,"o":"m 509 667 l 410 641 l 410 1010 l 136 1010 l 136 570 l 14 539 l 14 404 l 136 436 l 136 0 l 819 0 l 819 221 l 410 221 l 410 506 l 509 531 z "},"Ƚ":{"ha":793,"x_min":0,"x_max":0,"o":"m 65 0 l 748 0 l 748 221 l 339 221 l 339 468 l 466 468 l 466 614 l 339 614 l 339 1010 l 65 1010 l 65 614 l -65 614 l -65 468 l 65 468 z "},"ǈ":{"ha":1203,"x_min":0,"x_max":0,"o":"m 65 0 l 748 0 l 748 221 l 339 221 l 339 1010 l 65 1010 z m 862 758 l 862 -20 b 777 -83 862 -64 842 -83 b 746 -81 767 -83 759 -82 l 746 -282 b 801 -284 766 -284 781 -284 b 1134 -26 1001 -284 1134 -225 l 1134 758 z m 998 836 b 1132 961 1072 836 1132 892 b 998 1085 1132 1029 1072 1085 b 864 961 924 1085 864 1029 b 998 836 864 892 924 836 z "},"M":{"ha":1294,"x_min":0,"x_max":0,"o":"m 65 1010 l 65 0 l 333 0 l 333 588 l 341 588 l 566 8 l 728 8 l 953 584 l 961 584 l 961 0 l 1229 0 l 1229 1010 l 888 1010 l 653 438 l 641 438 l 406 1010 z "},"Ḿ":{"ha":1294,"x_min":0,"x_max":0,"o":"m 65 1010 l 65 0 l 333 0 l 333 588 l 341 588 l 566 8 l 728 8 l 953 584 l 961 584 l 961 0 l 1229 0 l 1229 1010 l 888 1010 l 653 438 l 641 438 l 406 1010 z m 556 1105 l 736 1105 l 884 1326 l 651 1326 z "},"Ṁ":{"ha":1294,"x_min":0,"x_max":0,"o":"m 65 1010 l 65 0 l 333 0 l 333 588 l 341 588 l 566 8 l 728 8 l 953 584 l 961 584 l 961 0 l 1229 0 l 1229 1010 l 888 1010 l 653 438 l 641 438 l 406 1010 z m 647 1089 b 781 1213 721 1089 781 1145 b 647 1338 781 1282 721 1338 b 513 1213 573 1338 513 1282 b 647 1089 513 1145 573 1089 z "},"Ṃ":{"ha":1294,"x_min":0,"x_max":0,"o":"m 65 1010 l 65 0 l 333 0 l 333 588 l 341 588 l 566 8 l 728 8 l 953 584 l 961 584 l 961 0 l 1229 0 l 1229 1010 l 888 1010 l 653 438 l 641 438 l 406 1010 z m 647 -306 b 781 -182 721 -306 781 -250 b 647 -57 781 -113 721 -57 b 513 -182 573 -57 513 -113 b 647 -306 513 -250 573 -306 z "},"Ӎ":{"ha":1446,"x_min":0,"x_max":0,"o":"m 65 1010 l 65 0 l 333 0 l 333 588 l 341 588 l 566 8 l 728 8 l 953 584 l 961 584 l 961 0 l 1229 0 l 1229 -14 b 1167 -211 1230 -111 1196 -165 b 1150 -239 1162 -220 1156 -229 l 1271 -308 b 1430 6 1362 -245 1433 -116 l 1430 140 l 1229 140 l 1229 1010 l 888 1010 l 653 438 l 641 438 l 406 1010 z "},"Μ":{"ha":1294,"x_min":0,"x_max":0,"o":"m 65 1010 l 65 0 l 333 0 l 333 588 l 341 588 l 566 8 l 728 8 l 953 584 l 961 584 l 961 0 l 1229 0 l 1229 1010 l 888 1010 l 653 438 l 641 438 l 406 1010 z "},"Ϻ":{"ha":1294,"x_min":0,"x_max":0,"o":"m 65 1010 l 65 0 l 333 0 l 333 588 l 341 588 l 566 8 l 728 8 l 953 584 l 961 584 l 961 0 l 1229 0 l 1229 1010 l 888 1010 l 653 438 l 641 438 l 406 1010 z "},"М":{"ha":1294,"x_min":0,"x_max":0,"o":"m 65 1010 l 65 0 l 333 0 l 333 588 l 341 588 l 566 8 l 728 8 l 953 584 l 961 584 l 961 0 l 1229 0 l 1229 1010 l 888 1010 l 653 438 l 641 438 l 406 1010 z "},"N":{"ha":1004,"x_min":0,"x_max":0,"o":"m 939 1010 l 665 1010 l 665 481 l 657 481 l 298 1010 l 65 1010 l 65 0 l 339 0 l 339 531 l 345 531 l 710 0 l 939 0 z "},"Ñ":{"ha":1004,"x_min":0,"x_max":0,"o":"m 939 1010 l 665 1010 l 665 481 l 657 481 l 298 1010 l 65 1010 l 65 0 l 339 0 l 339 531 l 345 531 l 710 0 l 939 0 z m 369 1105 b 420 1180 369 1154 389 1180 b 478 1150 441 1180 458 1166 b 604 1099 508 1126 543 1098 b 771 1312 696 1100 769 1172 l 639 1312 b 586 1235 638 1264 624 1235 b 530 1264 567 1235 550 1248 b 402 1316 500 1287 463 1316 b 235 1105 309 1315 235 1247 z "},"Ń":{"ha":1004,"x_min":0,"x_max":0,"o":"m 939 1010 l 665 1010 l 665 481 l 657 481 l 298 1010 l 65 1010 l 65 0 l 339 0 l 339 531 l 345 531 l 710 0 l 939 0 z m 412 1105 l 592 1105 l 740 1326 l 507 1326 z "},"Ņ":{"ha":1004,"x_min":0,"x_max":0,"o":"m 939 1010 l 665 1010 l 665 481 l 657 481 l 298 1010 l 65 1010 l 65 0 l 339 0 l 339 531 l 345 531 l 710 0 l 939 0 z m 319 -316 l 504 -316 l 628 -80 l 384 -80 z "},"Ň":{"ha":1004,"x_min":0,"x_max":0,"o":"m 939 1010 l 665 1010 l 665 481 l 657 481 l 298 1010 l 65 1010 l 65 0 l 339 0 l 339 531 l 345 531 l 710 0 l 939 0 z m 406 1332 l 182 1332 l 182 1326 l 408 1101 l 598 1101 l 825 1326 l 825 1332 l 600 1332 l 503 1223 z "},"Ǹ":{"ha":1004,"x_min":0,"x_max":0,"o":"m 939 1010 l 665 1010 l 665 481 l 657 481 l 298 1010 l 65 1010 l 65 0 l 339 0 l 339 531 l 345 531 l 710 0 l 939 0 z m 414 1105 l 594 1105 l 499 1326 l 266 1326 z "},"Ṅ":{"ha":1004,"x_min":0,"x_max":0,"o":"m 939 1010 l 665 1010 l 665 481 l 657 481 l 298 1010 l 65 1010 l 65 0 l 339 0 l 339 531 l 345 531 l 710 0 l 939 0 z m 503 1089 b 637 1213 577 1089 637 1145 b 503 1338 637 1282 577 1338 b 369 1213 429 1338 369 1282 b 503 1089 369 1145 429 1089 z "},"Ṇ":{"ha":1004,"x_min":0,"x_max":0,"o":"m 939 1010 l 665 1010 l 665 481 l 657 481 l 298 1010 l 65 1010 l 65 0 l 339 0 l 339 531 l 345 531 l 710 0 l 939 0 z m 503 -306 b 637 -182 577 -306 637 -250 b 503 -57 637 -113 577 -57 b 369 -182 429 -57 369 -113 b 503 -306 369 -250 429 -306 z "},"Ṉ":{"ha":1004,"x_min":0,"x_max":0,"o":"m 939 1010 l 665 1010 l 665 481 l 657 481 l 298 1010 l 65 1010 l 65 0 l 339 0 l 339 531 l 345 531 l 710 0 l 939 0 z m 750 -127 l 256 -127 l 256 -252 l 750 -252 z "},"Ṋ":{"ha":1004,"x_min":0,"x_max":0,"o":"m 939 1010 l 665 1010 l 665 481 l 657 481 l 298 1010 l 65 1010 l 65 0 l 339 0 l 339 531 l 345 531 l 710 0 l 939 0 z m 600 -294 l 825 -294 l 825 -288 l 598 -63 l 408 -63 l 182 -288 l 182 -294 l 406 -294 l 503 -185 z "},"Ɲ":{"ha":1040,"x_min":0,"x_max":0,"o":"m 975 1010 l 700 1010 l 700 481 l 692 481 l 333 1010 l 101 1010 l 101 -24 b -2 -79 101 -69 48 -79 b -14 -79 -5 -79 -9 -79 b -47 -79 -24 -80 -37 -80 l -47 -280 b 71 -284 -19 -284 44 -284 b 375 -24 214 -284 375 -262 l 375 531 l 381 531 l 746 0 l 975 0 z "},"Ŋ":{"ha":1004,"x_min":0,"x_max":0,"o":"m 710 0 l 710 -20 b 592 -109 710 -75 665 -109 b 495 -99 558 -109 521 -105 l 495 -296 b 578 -310 522 -304 553 -310 b 939 -14 802 -310 939 -247 l 939 1010 l 665 1010 l 665 481 l 657 481 l 298 1010 l 65 1010 l 65 0 l 339 0 l 339 531 l 345 531 z "},"И":{"ha":1004,"x_min":0,"x_max":0,"o":"m 65 1010 l 65 0 l 294 0 l 659 531 l 665 531 l 665 0 l 939 0 l 939 1010 l 706 1010 l 347 481 l 339 481 l 339 1010 z "},"Ѝ":{"ha":1004,"x_min":0,"x_max":0,"o":"m 65 1010 l 65 0 l 294 0 l 659 531 l 665 531 l 665 0 l 939 0 l 939 1010 l 706 1010 l 347 481 l 339 481 l 339 1010 z m 414 1105 l 594 1105 l 499 1326 l 266 1326 z "},"Й":{"ha":1004,"x_min":0,"x_max":0,"o":"m 65 1010 l 65 0 l 294 0 l 659 531 l 665 531 l 665 0 l 939 0 l 939 1010 l 706 1010 l 347 481 l 339 481 l 339 1010 z m 602 1282 b 503 1199 601 1239 574 1199 b 402 1282 430 1199 402 1241 l 233 1282 b 503 1071 232 1154 337 1071 b 773 1282 668 1071 773 1154 z "},"Ӣ":{"ha":1004,"x_min":0,"x_max":0,"o":"m 65 1010 l 65 0 l 294 0 l 659 531 l 665 531 l 665 0 l 939 0 l 939 1010 l 706 1010 l 347 481 l 339 481 l 339 1010 z m 750 1263 l 256 1263 l 256 1138 l 750 1138 z "},"Ӥ":{"ha":1004,"x_min":0,"x_max":0,"o":"m 65 1010 l 65 0 l 294 0 l 659 531 l 665 531 l 665 0 l 939 0 l 939 1010 l 706 1010 l 347 481 l 339 481 l 339 1010 z m 347 1099 b 466 1213 412 1099 466 1150 b 347 1328 466 1276 412 1328 b 227 1213 280 1328 227 1276 b 347 1099 227 1150 280 1099 z m 661 1099 b 779 1213 726 1099 779 1150 b 661 1328 779 1276 726 1328 b 541 1213 594 1328 541 1276 b 661 1099 541 1150 594 1099 z "},"Ҋ":{"ha":1004,"x_min":0,"x_max":0,"o":"m 65 1010 l 65 0 l 294 0 l 659 531 l 665 531 l 665 0 l 939 0 l 939 -14 b 877 -211 940 -111 906 -165 b 860 -239 872 -220 866 -229 l 981 -308 b 1140 6 1072 -245 1143 -116 l 1140 140 l 939 140 l 939 1010 l 706 1010 l 347 481 l 339 481 l 339 1010 z m 602 1282 b 503 1199 601 1239 574 1199 b 402 1282 430 1199 402 1241 l 233 1282 b 503 1071 232 1154 337 1071 b 773 1282 668 1071 773 1154 z "},"Ͷ":{"ha":1097,"x_min":0,"x_max":0,"o":"m 110 1010 l 110 0 l 339 0 l 704 531 l 710 531 l 710 0 l 984 0 l 984 1010 l 752 1010 l 393 481 l 385 481 l 385 1010 z "},"Ν":{"ha":1004,"x_min":0,"x_max":0,"o":"m 939 1010 l 665 1010 l 665 481 l 657 481 l 298 1010 l 65 1010 l 65 0 l 339 0 l 339 531 l 345 531 l 710 0 l 939 0 z "},"ǋ":{"ha":1367,"x_min":0,"x_max":0,"o":"m 939 1010 l 665 1010 l 665 481 l 657 481 l 298 1010 l 65 1010 l 65 0 l 339 0 l 339 531 l 345 531 l 710 0 l 939 0 z m 1026 758 l 1026 -20 b 941 -83 1026 -64 1006 -83 b 909 -81 931 -83 922 -82 l 909 -282 b 965 -284 930 -284 945 -284 b 1298 -26 1164 -284 1298 -225 l 1298 758 z m 1162 836 b 1296 961 1236 836 1296 892 b 1162 1085 1296 1029 1236 1085 b 1028 961 1088 1085 1028 1029 b 1162 836 1028 892 1088 836 z "},"O":{"ha":1105,"x_min":0,"x_max":0,"o":"m 1044 505 b 552 1024 1044 842 827 1024 b 61 505 276 1024 61 842 b 552 -14 61 170 276 -14 b 1044 505 827 -14 1044 168 z m 762 505 b 552 225 762 324 689 225 b 343 505 416 225 343 324 b 552 785 343 687 416 785 b 762 505 689 785 762 687 z "},"Ö":{"ha":1105,"x_min":0,"x_max":0,"o":"m 1044 505 b 552 1024 1044 842 827 1024 b 61 505 276 1024 61 842 b 552 -14 61 170 276 -14 b 1044 505 827 -14 1044 168 z m 762 505 b 552 225 762 324 689 225 b 343 505 416 225 343 324 b 552 785 343 687 416 785 b 762 505 689 785 762 687 z m 397 1099 b 515 1213 462 1099 515 1150 b 397 1328 515 1276 462 1328 b 276 1213 329 1328 276 1276 b 397 1099 276 1150 329 1099 z m 710 1099 b 829 1213 775 1099 829 1150 b 710 1328 829 1276 775 1328 b 590 1213 643 1328 590 1276 b 710 1099 590 1150 643 1099 z "},"Õ":{"ha":1105,"x_min":0,"x_max":0,"o":"m 1044 505 b 552 1024 1044 842 827 1024 b 61 505 276 1024 61 842 b 552 -14 61 170 276 -14 b 1044 505 827 -14 1044 168 z m 762 505 b 552 225 762 324 689 225 b 343 505 416 225 343 324 b 552 785 343 687 416 785 b 762 505 689 785 762 687 z m 418 1109 b 470 1184 418 1158 438 1184 b 528 1154 490 1184 508 1170 b 653 1103 557 1130 592 1102 b 821 1316 745 1104 819 1176 l 689 1316 b 635 1239 688 1268 673 1239 b 579 1268 617 1239 599 1252 b 452 1320 549 1291 512 1320 b 284 1109 359 1319 284 1251 z "},"Ø":{"ha":1105,"x_min":0,"x_max":0,"o":"m 239 -53 l 307 43 b 552 -14 379 5 463 -14 b 1044 505 827 -14 1044 168 b 906 886 1044 671 991 799 l 977 986 l 866 1061 l 799 966 b 552 1024 727 1004 643 1024 b 61 505 276 1024 61 842 b 200 123 61 339 113 211 l 128 22 z m 365 356 b 343 505 351 397 343 447 b 552 785 343 687 416 785 b 653 762 591 785 625 777 z m 762 505 b 552 225 762 324 689 225 b 453 248 514 225 481 233 l 740 653 b 762 505 754 612 762 563 z "},"Ơ":{"ha":1166,"x_min":0,"x_max":0,"o":"m 1002 1044 b 938 849 1002 941 989 872 b 552 1024 848 964 710 1024 b 61 505 276 1024 61 842 b 552 -14 61 170 276 -14 b 1044 505 827 -14 1044 168 b 1000 742 1044 595 1028 674 b 1150 1044 1105 782 1150 888 z m 762 505 b 552 225 762 324 689 225 b 343 505 416 225 343 324 b 552 785 343 687 416 785 b 762 505 689 785 762 687 z "},"Ò":{"ha":1105,"x_min":0,"x_max":0,"o":"m 1044 505 b 552 1024 1044 842 827 1024 b 61 505 276 1024 61 842 b 552 -14 61 170 276 -14 b 1044 505 827 -14 1044 168 z m 762 505 b 552 225 762 324 689 225 b 343 505 416 225 343 324 b 552 785 343 687 416 785 b 762 505 689 785 762 687 z m 464 1105 l 643 1105 l 548 1326 l 316 1326 z "},"Ó":{"ha":1105,"x_min":0,"x_max":0,"o":"m 1044 505 b 552 1024 1044 842 827 1024 b 61 505 276 1024 61 842 b 552 -14 61 170 276 -14 b 1044 505 827 -14 1044 168 z m 762 505 b 552 225 762 324 689 225 b 343 505 416 225 343 324 b 552 785 343 687 416 785 b 762 505 689 785 762 687 z m 462 1105 l 641 1105 l 789 1326 l 556 1326 z "},"Ô":{"ha":1105,"x_min":0,"x_max":0,"o":"m 1044 505 b 552 1024 1044 842 827 1024 b 61 505 276 1024 61 842 b 552 -14 61 170 276 -14 b 1044 505 827 -14 1044 168 z m 762 505 b 552 225 762 324 689 225 b 343 505 416 225 343 324 b 552 785 343 687 416 785 b 762 505 689 785 762 687 z m 649 1101 l 874 1101 l 874 1107 l 647 1332 l 458 1332 l 231 1107 l 231 1101 l 456 1101 l 552 1209 z "},"Ō":{"ha":1105,"x_min":0,"x_max":0,"o":"m 1044 505 b 552 1024 1044 842 827 1024 b 61 505 276 1024 61 842 b 552 -14 61 170 276 -14 b 1044 505 827 -14 1044 168 z m 762 505 b 552 225 762 324 689 225 b 343 505 416 225 343 324 b 552 785 343 687 416 785 b 762 505 689 785 762 687 z m 799 1263 l 306 1263 l 306 1138 l 799 1138 z "},"Ŏ":{"ha":1105,"x_min":0,"x_max":0,"o":"m 1044 505 b 552 1024 1044 842 827 1024 b 61 505 276 1024 61 842 b 552 -14 61 170 276 -14 b 1044 505 827 -14 1044 168 z m 762 505 b 552 225 762 324 689 225 b 343 505 416 225 343 324 b 552 785 343 687 416 785 b 762 505 689 785 762 687 z m 651 1282 b 552 1199 651 1239 623 1199 b 452 1282 479 1199 451 1241 l 282 1282 b 552 1071 282 1154 386 1071 b 823 1282 718 1071 822 1154 z "},"Ő":{"ha":1105,"x_min":0,"x_max":0,"o":"m 1044 505 b 552 1024 1044 842 827 1024 b 61 505 276 1024 61 842 b 552 -14 61 170 276 -14 b 1044 505 827 -14 1044 168 z m 762 505 b 552 225 762 324 689 225 b 343 505 416 225 343 324 b 552 785 343 687 416 785 b 762 505 689 785 762 687 z m 308 1101 l 491 1101 l 663 1302 l 454 1302 z m 594 1101 l 773 1101 l 963 1302 l 754 1302 z "},"Ǒ":{"ha":1105,"x_min":0,"x_max":0,"o":"m 1044 505 b 552 1024 1044 842 827 1024 b 61 505 276 1024 61 842 b 552 -14 61 170 276 -14 b 1044 505 827 -14 1044 168 z m 762 505 b 552 225 762 324 689 225 b 343 505 416 225 343 324 b 552 785 343 687 416 785 b 762 505 689 785 762 687 z m 456 1332 l 231 1332 l 231 1326 l 458 1101 l 647 1101 l 874 1326 l 874 1332 l 649 1332 l 552 1223 z "},"Ǫ":{"ha":1105,"x_min":0,"x_max":0,"o":"m 1044 505 b 552 1024 1044 842 827 1024 b 61 505 276 1024 61 842 b 413 3 61 229 207 55 b 412 -140 399 -38 398 -92 b 594 -270 437 -223 503 -270 b 712 -241 647 -270 686 -254 l 681 -118 b 639 -126 668 -120 656 -126 b 594 -75 613 -126 593 -109 b 683 1 593 -37 625 -18 b 1044 505 893 51 1044 223 z m 762 505 b 552 225 762 324 689 225 b 343 505 416 225 343 324 b 552 785 343 687 416 785 b 762 505 689 785 762 687 z "},"Ǭ":{"ha":1105,"x_min":0,"x_max":0,"o":"m 1044 505 b 552 1024 1044 842 827 1024 b 61 505 276 1024 61 842 b 413 3 61 229 207 55 b 412 -140 399 -38 398 -92 b 594 -270 437 -223 503 -270 b 712 -241 647 -270 686 -254 l 681 -118 b 639 -126 668 -120 656 -126 b 594 -75 613 -126 593 -109 b 683 1 593 -37 625 -18 b 1044 505 893 51 1044 223 z m 762 505 b 552 225 762 324 689 225 b 343 505 416 225 343 324 b 552 785 343 687 416 785 b 762 505 689 785 762 687 z m 799 1263 l 306 1263 l 306 1138 l 799 1138 z "},"Ȍ":{"ha":1105,"x_min":0,"x_max":0,"o":"m 1044 505 b 552 1024 1044 842 827 1024 b 61 505 276 1024 61 842 b 552 -14 61 170 276 -14 b 1044 505 827 -14 1044 168 z m 762 505 b 552 225 762 324 689 225 b 343 505 416 225 343 324 b 552 785 343 687 416 785 b 762 505 689 785 762 687 z m 338 1105 l 518 1105 l 423 1326 l 190 1326 z m 606 1105 l 780 1105 l 730 1326 l 510 1326 z "},"Ȏ":{"ha":1105,"x_min":0,"x_max":0,"o":"m 1044 505 b 552 1024 1044 842 827 1024 b 61 505 276 1024 61 842 b 552 -14 61 170 276 -14 b 1044 505 827 -14 1044 168 z m 762 505 b 552 225 762 324 689 225 b 343 505 416 225 343 324 b 552 785 343 687 416 785 b 762 505 689 785 762 687 z m 280 1128 l 452 1128 b 550 1209 451 1170 478 1209 b 651 1128 622 1209 650 1170 l 823 1128 b 550 1347 822 1257 715 1347 b 280 1128 384 1347 279 1257 z "},"Ȫ":{"ha":1105,"x_min":0,"x_max":0,"o":"m 1044 505 b 552 1024 1044 842 827 1024 b 61 505 276 1024 61 842 b 552 -14 61 170 276 -14 b 1044 505 827 -14 1044 168 z m 762 505 b 552 225 762 324 689 225 b 343 505 416 225 343 324 b 552 785 343 687 416 785 b 762 505 689 785 762 687 z m 799 1515 l 306 1515 l 306 1391 l 799 1391 z m 397 1099 b 515 1213 462 1099 515 1150 b 397 1328 515 1276 462 1328 b 276 1213 329 1328 276 1276 b 397 1099 276 1150 329 1099 z m 710 1099 b 829 1213 775 1099 829 1150 b 710 1328 829 1276 775 1328 b 590 1213 643 1328 590 1276 b 710 1099 590 1150 643 1099 z "},"Ȭ":{"ha":1105,"x_min":0,"x_max":0,"o":"m 1044 505 b 552 1024 1044 842 827 1024 b 61 505 276 1024 61 842 b 552 -14 61 170 276 -14 b 1044 505 827 -14 1044 168 z m 762 505 b 552 225 762 324 689 225 b 343 505 416 225 343 324 b 552 785 343 687 416 785 b 762 505 689 785 762 687 z m 799 1466 l 304 1466 l 304 1342 l 799 1342 z m 665 1278 b 623 1221 664 1247 645 1221 b 450 1263 566 1221 510 1263 b 337 1140 382 1263 337 1203 l 440 1111 b 479 1168 439 1142 457 1168 b 653 1126 540 1168 578 1126 b 769 1249 720 1126 769 1186 z "},"Ȯ":{"ha":1105,"x_min":0,"x_max":0,"o":"m 1044 505 b 552 1024 1044 842 827 1024 b 61 505 276 1024 61 842 b 552 -14 61 170 276 -14 b 1044 505 827 -14 1044 168 z m 762 505 b 552 225 762 324 689 225 b 343 505 416 225 343 324 b 552 785 343 687 416 785 b 762 505 689 785 762 687 z m 552 1089 b 687 1213 626 1089 687 1145 b 552 1338 687 1282 626 1338 b 418 1213 478 1338 418 1282 b 552 1089 418 1145 478 1089 z "},"Ȱ":{"ha":1105,"x_min":0,"x_max":0,"o":"m 1044 505 b 552 1024 1044 842 827 1024 b 61 505 276 1024 61 842 b 552 -14 61 170 276 -14 b 1044 505 827 -14 1044 168 z m 762 505 b 552 225 762 324 689 225 b 343 505 416 225 343 324 b 552 785 343 687 416 785 b 762 505 689 785 762 687 z m 799 1515 l 306 1515 l 306 1391 l 799 1391 z m 553 1098 b 673 1213 619 1098 673 1150 b 553 1327 673 1276 619 1327 b 433 1213 486 1327 433 1276 b 553 1098 433 1150 486 1098 z "},"Ṍ":{"ha":1105,"x_min":0,"x_max":0,"o":"m 1044 505 b 552 1024 1044 842 827 1024 b 61 505 276 1024 61 842 b 552 -14 61 170 276 -14 b 1044 505 827 -14 1044 168 z m 762 505 b 552 225 762 324 689 225 b 343 505 416 225 343 324 b 552 785 343 687 416 785 b 762 505 689 785 762 687 z m 427 1091 b 475 1158 427 1135 445 1158 b 529 1131 494 1158 510 1146 b 647 1086 556 1111 589 1086 b 803 1275 732 1087 801 1151 l 680 1275 b 630 1207 679 1233 665 1207 b 578 1233 612 1206 596 1218 b 458 1278 549 1253 515 1279 b 302 1091 371 1278 302 1217 z m 444 1338 l 627 1338 l 798 1528 l 575 1528 z "},"Ṏ":{"ha":1105,"x_min":0,"x_max":0,"o":"m 1044 505 b 552 1024 1044 842 827 1024 b 61 505 276 1024 61 842 b 552 -14 61 170 276 -14 b 1044 505 827 -14 1044 168 z m 762 505 b 552 225 762 324 689 225 b 343 505 416 225 343 324 b 552 785 343 687 416 785 b 762 505 689 785 762 687 z m 663 1259 b 623 1201 662 1227 644 1201 b 450 1243 565 1201 510 1243 b 337 1121 382 1243 336 1184 l 440 1091 b 479 1148 439 1123 457 1148 b 653 1107 540 1148 577 1107 b 767 1229 717 1107 766 1164 z m 590 1383 b 696 1300 589 1336 634 1300 b 803 1383 757 1300 802 1336 b 696 1468 802 1430 757 1468 b 590 1383 634 1468 589 1430 z m 300 1383 b 404 1300 299 1336 344 1300 b 513 1383 467 1300 512 1336 b 404 1468 512 1430 465 1468 b 300 1383 344 1468 299 1430 z "},"Ṑ":{"ha":1105,"x_min":0,"x_max":0,"o":"m 1044 505 b 552 1024 1044 842 827 1024 b 61 505 276 1024 61 842 b 552 -14 61 170 276 -14 b 1044 505 827 -14 1044 168 z m 762 505 b 552 225 762 324 689 225 b 343 505 416 225 343 324 b 552 785 343 687 416 785 b 762 505 689 785 762 687 z m 799 1243 l 306 1243 l 306 1119 l 799 1119 z m 470 1338 l 653 1338 l 522 1528 l 299 1528 z "},"Ṓ":{"ha":1105,"x_min":0,"x_max":0,"o":"m 1044 505 b 552 1024 1044 842 827 1024 b 61 505 276 1024 61 842 b 552 -14 61 170 276 -14 b 1044 505 827 -14 1044 168 z m 762 505 b 552 225 762 324 689 225 b 343 505 416 225 343 324 b 552 785 343 687 416 785 b 762 505 689 785 762 687 z m 799 1243 l 306 1243 l 306 1119 l 799 1119 z m 452 1338 l 635 1338 l 806 1528 l 583 1528 z "},"Ọ":{"ha":1105,"x_min":0,"x_max":0,"o":"m 1044 505 b 552 1024 1044 842 827 1024 b 61 505 276 1024 61 842 b 552 -14 61 170 276 -14 b 1044 505 827 -14 1044 168 z m 762 505 b 552 225 762 324 689 225 b 343 505 416 225 343 324 b 552 785 343 687 416 785 b 762 505 689 785 762 687 z m 552 -306 b 687 -182 626 -306 687 -250 b 552 -57 687 -113 626 -57 b 418 -182 478 -57 418 -113 b 552 -306 418 -250 478 -306 z "},"Ỏ":{"ha":1105,"x_min":0,"x_max":0,"o":"m 1044 505 b 552 1024 1044 842 827 1024 b 61 505 276 1024 61 842 b 552 -14 61 170 276 -14 b 1044 505 827 -14 1044 168 z m 762 505 b 552 225 762 324 689 225 b 343 505 416 225 343 324 b 552 785 343 687 416 785 b 762 505 689 785 762 687 z m 647 1123 l 647 1162 b 754 1255 701 1170 755 1199 b 444 1391 755 1342 646 1391 l 438 1282 b 531 1241 492 1282 532 1276 b 434 1199 532 1219 504 1201 l 452 1123 z "},"Ố":{"ha":1105,"x_min":0,"x_max":0,"o":"m 1044 505 b 552 1024 1044 842 827 1024 b 61 505 276 1024 61 842 b 552 -14 61 170 276 -14 b 1044 505 827 -14 1044 168 z m 762 505 b 552 225 762 324 689 225 b 343 505 416 225 343 324 b 552 785 343 687 416 785 b 762 505 689 785 762 687 z m 294 1085 l 450 1085 l 550 1154 l 649 1085 l 807 1085 l 608 1221 l 491 1221 z m 756 1150 l 886 1150 l 1059 1340 l 884 1340 z "},"Ồ":{"ha":1105,"x_min":0,"x_max":0,"o":"m 1044 505 b 552 1024 1044 842 827 1024 b 61 505 276 1024 61 842 b 552 -14 61 170 276 -14 b 1044 505 827 -14 1044 168 z m 762 505 b 552 225 762 324 689 225 b 343 505 416 225 343 324 b 552 785 343 687 416 785 b 762 505 689 785 762 687 z m 610 1217 l 493 1217 l 296 1081 l 452 1081 l 552 1150 l 651 1081 l 809 1081 z m 217 1334 l 45 1334 l 219 1146 l 347 1146 z "},"Ổ":{"ha":1105,"x_min":0,"x_max":0,"o":"m 1044 505 b 552 1024 1044 842 827 1024 b 61 505 276 1024 61 842 b 552 -14 61 170 276 -14 b 1044 505 827 -14 1044 168 z m 762 505 b 552 225 762 324 689 225 b 343 505 416 225 343 324 b 552 785 343 687 416 785 b 762 505 689 785 762 687 z m 866 1166 l 866 1198 b 955 1274 909 1205 955 1231 b 732 1387 955 1347 876 1387 l 726 1298 b 805 1263 771 1298 805 1292 b 724 1229 805 1245 781 1231 l 740 1166 z m 606 1221 l 495 1221 l 296 1085 l 456 1085 l 552 1146 l 645 1085 l 805 1085 z "},"Ỗ":{"ha":1105,"x_min":0,"x_max":0,"o":"m 1044 505 b 552 1024 1044 842 827 1024 b 61 505 276 1024 61 842 b 552 -14 61 170 276 -14 b 1044 505 827 -14 1044 168 z m 762 505 b 552 225 762 324 689 225 b 343 505 416 225 343 324 b 552 785 343 687 416 785 b 762 505 689 785 762 687 z m 616 1233 l 491 1233 l 296 1091 l 460 1091 l 552 1160 l 649 1091 l 809 1091 z m 651 1397 b 631 1342 651 1371 647 1342 b 475 1381 585 1342 522 1381 b 395 1278 422 1381 394 1328 l 477 1255 b 499 1300 477 1280 481 1300 b 655 1259 546 1300 595 1259 b 736 1365 708 1259 735 1312 z "},"Ộ":{"ha":1105,"x_min":0,"x_max":0,"o":"m 1044 505 b 552 1024 1044 842 827 1024 b 61 505 276 1024 61 842 b 552 -14 61 170 276 -14 b 1044 505 827 -14 1044 168 z m 762 505 b 552 225 762 324 689 225 b 343 505 416 225 343 324 b 552 785 343 687 416 785 b 762 505 689 785 762 687 z m 649 1101 l 874 1101 l 874 1107 l 647 1332 l 458 1332 l 231 1107 l 231 1101 l 456 1101 l 552 1209 z m 552 -306 b 687 -182 626 -306 687 -250 b 552 -57 687 -113 626 -57 b 418 -182 478 -57 418 -113 b 552 -306 418 -250 478 -306 z "},"Ớ":{"ha":1166,"x_min":0,"x_max":0,"o":"m 1002 1044 b 938 849 1002 941 989 872 b 552 1024 848 964 710 1024 b 61 505 276 1024 61 842 b 552 -14 61 170 276 -14 b 1044 505 827 -14 1044 168 b 1000 742 1044 595 1028 674 b 1150 1044 1105 782 1150 888 z m 762 505 b 552 225 762 324 689 225 b 343 505 416 225 343 324 b 552 785 343 687 416 785 b 762 505 689 785 762 687 z m 462 1105 l 641 1105 l 789 1326 l 556 1326 z "},"Ờ":{"ha":1166,"x_min":0,"x_max":0,"o":"m 1002 1044 b 938 849 1002 941 989 872 b 552 1024 848 964 710 1024 b 61 505 276 1024 61 842 b 552 -14 61 170 276 -14 b 1044 505 827 -14 1044 168 b 1000 742 1044 595 1028 674 b 1150 1044 1105 782 1150 888 z m 762 505 b 552 225 762 324 689 225 b 343 505 416 225 343 324 b 552 785 343 687 416 785 b 762 505 689 785 762 687 z m 464 1105 l 643 1105 l 548 1326 l 316 1326 z "},"Ở":{"ha":1166,"x_min":0,"x_max":0,"o":"m 1002 1044 b 938 849 1002 941 989 872 b 552 1024 848 964 710 1024 b 61 505 276 1024 61 842 b 552 -14 61 170 276 -14 b 1044 505 827 -14 1044 168 b 1000 742 1044 595 1028 674 b 1150 1044 1105 782 1150 888 z m 762 505 b 552 225 762 324 689 225 b 343 505 416 225 343 324 b 552 785 343 687 416 785 b 762 505 689 785 762 687 z m 647 1123 l 647 1162 b 754 1255 701 1170 755 1199 b 444 1391 755 1342 646 1391 l 438 1282 b 531 1241 492 1282 532 1276 b 434 1199 532 1219 504 1201 l 452 1123 z "},"Ỡ":{"ha":1166,"x_min":0,"x_max":0,"o":"m 1002 1044 b 938 849 1002 941 989 872 b 552 1024 848 964 710 1024 b 61 505 276 1024 61 842 b 552 -14 61 170 276 -14 b 1044 505 827 -14 1044 168 b 1000 742 1044 595 1028 674 b 1150 1044 1105 782 1150 888 z m 762 505 b 552 225 762 324 689 225 b 343 505 416 225 343 324 b 552 785 343 687 416 785 b 762 505 689 785 762 687 z m 418 1105 b 470 1180 418 1154 438 1180 b 528 1150 490 1180 508 1166 b 653 1099 557 1126 592 1098 b 821 1312 745 1100 819 1172 l 689 1312 b 635 1235 688 1264 673 1235 b 579 1264 617 1235 599 1248 b 452 1316 549 1287 512 1316 b 284 1105 359 1315 284 1247 z "},"Ợ":{"ha":1166,"x_min":0,"x_max":0,"o":"m 1002 1044 b 938 849 1002 941 989 872 b 552 1024 848 964 710 1024 b 61 505 276 1024 61 842 b 552 -14 61 170 276 -14 b 1044 505 827 -14 1044 168 b 1000 742 1044 595 1028 674 b 1150 1044 1105 782 1150 888 z m 762 505 b 552 225 762 324 689 225 b 343 505 416 225 343 324 b 552 785 343 687 416 785 b 762 505 689 785 762 687 z m 552 -306 b 687 -182 626 -306 687 -250 b 552 -57 687 -113 626 -57 b 418 -182 478 -57 418 -113 b 552 -306 418 -250 478 -306 z "},"Ǿ":{"ha":1105,"x_min":0,"x_max":0,"o":"m 239 -53 l 307 43 b 552 -14 379 5 463 -14 b 1044 505 827 -14 1044 168 b 906 886 1044 671 991 799 l 977 986 l 866 1061 l 799 966 b 552 1024 727 1004 643 1024 b 61 505 276 1024 61 842 b 200 123 61 339 113 211 l 128 22 z m 365 356 b 343 505 351 397 343 447 b 552 785 343 687 416 785 b 653 762 591 785 625 777 z m 762 505 b 552 225 762 324 689 225 b 453 248 514 225 481 233 l 740 653 b 762 505 754 612 762 563 z m 462 1105 l 641 1105 l 789 1326 l 556 1326 z "},"Ο":{"ha":1105,"x_min":0,"x_max":0,"o":"m 1044 505 b 552 1024 1044 842 827 1024 b 61 505 276 1024 61 842 b 552 -14 61 170 276 -14 b 1044 505 827 -14 1044 168 z m 762 505 b 552 225 762 324 689 225 b 343 505 416 225 343 324 b 552 785 343 687 416 785 b 762 505 689 785 762 687 z "},"Ό":{"ha":1138,"x_min":0,"x_max":0,"o":"m 1134 505 b 643 1024 1134 842 917 1024 b 152 505 367 1024 152 842 b 643 -14 152 170 367 -14 b 1134 505 917 -14 1134 168 z m 852 505 b 643 225 852 324 779 225 b 434 505 507 225 434 324 b 643 785 434 687 507 785 b 852 505 779 785 852 687 z m -20 852 l 132 852 l 274 1089 l 45 1089 z "},"Ὀ":{"ha":1138,"x_min":0,"x_max":0,"o":"m 1134 505 b 643 1024 1134 842 917 1024 b 152 505 367 1024 152 842 b 643 -14 152 170 367 -14 b 1134 505 917 -14 1134 168 z m 852 505 b 643 225 852 324 779 225 b 434 505 507 225 434 324 b 643 785 434 687 507 785 b 852 505 779 785 852 687 z m 152 1010 l 36 1010 l 36 943 b -18 840 36 898 26 860 l 43 765 b 152 939 101 789 152 850 z "},"Ὁ":{"ha":1184,"x_min":0,"x_max":0,"o":"m 1180 505 b 689 1024 1180 842 963 1024 b 197 505 412 1024 197 842 b 689 -14 197 170 412 -14 b 1180 505 963 -14 1180 168 z m 898 505 b 689 225 898 324 825 225 b 479 505 552 225 479 324 b 689 785 479 687 552 785 b 898 505 825 785 898 687 z m 59 939 b 168 765 60 850 111 789 l 229 840 b 178 943 184 862 179 908 l 178 1010 l 59 1010 z "},"Ὂ":{"ha":1369,"x_min":0,"x_max":0,"o":"m 1365 505 b 874 1024 1365 842 1148 1024 b 383 505 598 1024 383 842 b 874 -14 383 170 598 -14 b 1365 505 1148 -14 1365 168 z m 1083 505 b 874 225 1083 324 1010 225 b 665 505 738 225 665 324 b 874 785 665 687 738 785 b 1083 505 1010 785 1083 687 z m 176 1010 l 45 1010 l 45 959 b -12 807 46 896 26 848 l 43 765 b 176 955 127 809 176 876 z m 438 791 l 357 1010 l 207 1010 l 207 996 l 371 781 l 438 781 z "},"Ὃ":{"ha":1336,"x_min":0,"x_max":0,"o":"m 1332 505 b 840 1024 1332 842 1115 1024 b 349 505 564 1024 349 842 b 840 -14 349 170 564 -14 b 1332 505 1115 -14 1332 168 z m 1050 505 b 840 225 1050 324 977 225 b 631 505 704 225 631 324 b 840 785 631 687 704 785 b 1050 505 977 785 1050 687 z m -16 939 b 97 765 -17 850 35 789 l 158 840 b 105 943 108 862 104 908 l 105 1010 l -16 1010 z m 397 799 l 318 1010 l 166 1010 l 166 996 l 329 779 l 397 779 z "},"Ὄ":{"ha":1284,"x_min":0,"x_max":0,"o":"m 1280 505 b 789 1024 1280 842 1063 1024 b 298 505 513 1024 298 842 b 789 -14 298 170 513 -14 b 1280 505 1063 -14 1280 168 z m 998 505 b 789 225 998 324 925 225 b 580 505 653 225 580 324 b 789 785 580 687 653 785 b 998 505 925 785 998 687 z m 166 1010 l 45 1010 l 45 943 b -8 840 44 908 40 862 l 53 765 b 166 939 113 789 165 852 z m 193 779 l 260 779 l 424 996 l 424 1010 l 274 1010 l 193 799 z "},"Ὅ":{"ha":1300,"x_min":0,"x_max":0,"o":"m 1296 505 b 805 1024 1296 842 1079 1024 b 314 505 529 1024 314 842 b 805 -14 314 170 529 -14 b 1296 505 1079 -14 1296 168 z m 1014 505 b 805 225 1014 324 941 225 b 596 505 669 225 596 324 b 805 785 596 687 669 785 b 1014 505 941 785 1014 687 z m 207 779 l 270 779 l 436 996 l 436 1010 l 284 1010 l 207 799 z m 99 765 l 160 840 b 109 943 117 860 109 898 l 109 1010 l -10 1010 l -10 939 b 99 765 -9 846 46 787 z "},"Ὸ":{"ha":1158,"x_min":0,"x_max":0,"o":"m 1154 505 b 663 1024 1154 842 937 1024 b 172 505 387 1024 172 842 b 663 -14 172 170 387 -14 b 1154 505 937 -14 1154 168 z m 872 505 b 663 225 872 324 799 225 b 454 505 527 225 454 324 b 663 785 454 687 527 785 b 872 505 799 785 872 687 z m 152 779 l 215 779 l 215 803 l 138 1010 l -12 1010 l -12 996 z "},"ϴ":{"ha":1105,"x_min":0,"x_max":0,"o":"m 1044 505 b 552 1024 1044 842 827 1024 b 61 505 276 1024 61 842 b 552 -14 61 170 276 -14 b 1044 505 827 -14 1044 168 z m 756 584 l 349 584 b 552 785 367 715 437 785 b 756 584 667 785 737 715 z m 552 225 b 349 426 437 225 367 295 l 756 426 b 552 225 737 295 667 225 z "},"Ό":{"ha":1077,"x_min":0,"x_max":0,"o":"m 1073 505 b 582 1024 1073 842 856 1024 b 91 505 306 1024 91 842 b 582 -14 91 170 306 -14 b 1073 505 856 -14 1073 168 z m 791 505 b 582 225 791 324 718 225 b 373 505 446 225 373 324 b 582 785 373 687 446 785 b 791 505 718 785 791 687 z m 14 852 l 146 852 l 310 1069 l 310 1083 l 93 1083 l 14 876 z "},"О":{"ha":1105,"x_min":0,"x_max":0,"o":"m 1044 505 b 552 1024 1044 842 827 1024 b 61 505 276 1024 61 842 b 552 -14 61 170 276 -14 b 1044 505 827 -14 1044 168 z m 762 505 b 552 225 762 324 689 225 b 343 505 416 225 343 324 b 552 785 343 687 416 785 b 762 505 689 785 762 687 z "},"Ӧ":{"ha":1105,"x_min":0,"x_max":0,"o":"m 1044 505 b 552 1024 1044 842 827 1024 b 61 505 276 1024 61 842 b 552 -14 61 170 276 -14 b 1044 505 827 -14 1044 168 z m 762 505 b 552 225 762 324 689 225 b 343 505 416 225 343 324 b 552 785 343 687 416 785 b 762 505 689 785 762 687 z m 397 1099 b 515 1213 462 1099 515 1150 b 397 1328 515 1276 462 1328 b 276 1213 329 1328 276 1276 b 397 1099 276 1150 329 1099 z m 710 1099 b 829 1213 775 1099 829 1150 b 710 1328 829 1276 775 1328 b 590 1213 643 1328 590 1276 b 710 1099 590 1150 643 1099 z "},"Ɵ":{"ha":1105,"x_min":0,"x_max":0,"o":"m 1044 505 b 552 1024 1044 842 827 1024 b 61 505 276 1024 61 842 b 552 -14 61 170 276 -14 b 1044 505 827 -14 1044 168 z m 756 584 l 349 584 b 552 785 367 715 437 785 b 756 584 667 785 737 715 z m 552 225 b 349 426 437 225 367 295 l 756 426 b 552 225 737 295 667 225 z "},"Ө":{"ha":1105,"x_min":0,"x_max":0,"o":"m 1044 505 b 552 1024 1044 842 827 1024 b 61 505 276 1024 61 842 b 552 -14 61 170 276 -14 b 1044 505 827 -14 1044 168 z m 756 584 l 349 584 b 552 785 367 715 437 785 b 756 584 667 785 737 715 z m 552 225 b 349 426 437 225 367 295 l 756 426 b 552 225 737 295 667 225 z "},"Ӫ":{"ha":1105,"x_min":0,"x_max":0,"o":"m 1044 505 b 552 1024 1044 842 827 1024 b 61 505 276 1024 61 842 b 552 -14 61 170 276 -14 b 1044 505 827 -14 1044 168 z m 756 584 l 349 584 b 552 785 367 715 437 785 b 756 584 667 785 737 715 z m 552 225 b 349 426 437 225 367 295 l 756 426 b 552 225 737 295 667 225 z m 397 1099 b 515 1213 462 1099 515 1150 b 397 1328 515 1276 462 1328 b 276 1213 329 1328 276 1276 b 397 1099 276 1150 329 1099 z m 710 1099 b 829 1213 775 1099 829 1150 b 710 1328 829 1276 775 1328 b 590 1213 643 1328 590 1276 b 710 1099 590 1150 643 1099 z "},"Œ":{"ha":1474,"x_min":0,"x_max":0,"o":"m 529 0 l 1401 0 l 1401 221 l 949 221 l 949 395 l 1365 395 l 1365 616 l 949 616 l 949 789 l 1403 789 l 1403 1010 l 529 1010 b 61 503 268 1010 61 848 b 529 0 61 160 268 0 z m 675 221 l 529 221 b 339 503 420 221 339 280 b 529 789 339 724 420 789 l 675 789 z "},"P":{"ha":911,"x_min":0,"x_max":0,"o":"m 65 0 l 339 0 l 339 300 l 491 300 b 876 653 722 300 876 436 b 501 1010 876 868 726 1010 l 65 1010 z m 339 513 l 339 791 l 436 791 b 590 653 532 791 590 740 b 436 513 590 567 532 513 z "},"Ṕ":{"ha":911,"x_min":0,"x_max":0,"o":"m 65 0 l 339 0 l 339 300 l 491 300 b 876 653 722 300 876 436 b 501 1010 876 868 726 1010 l 65 1010 z m 339 513 l 339 791 l 436 791 b 590 653 532 791 590 740 b 436 513 590 567 532 513 z m 355 1105 l 535 1105 l 683 1326 l 450 1326 z "},"Ṗ":{"ha":911,"x_min":0,"x_max":0,"o":"m 65 0 l 339 0 l 339 300 l 491 300 b 876 653 722 300 876 436 b 501 1010 876 868 726 1010 l 65 1010 z m 339 513 l 339 791 l 436 791 b 590 653 532 791 590 740 b 436 513 590 567 532 513 z m 446 1089 b 580 1213 520 1089 580 1145 b 446 1338 580 1282 520 1338 b 312 1213 372 1338 312 1282 b 446 1089 312 1145 372 1089 z "},"Ҏ":{"ha":943,"x_min":0,"x_max":0,"o":"m 73 0 l 347 0 l 347 300 l 499 300 b 595 308 533 300 565 303 l 677 182 l 765 239 l 699 342 b 884 653 814 398 884 507 b 509 1010 884 868 733 1010 l 73 1010 z m 485 673 l 397 616 l 462 513 b 444 513 456 513 450 513 l 347 513 l 347 791 l 444 791 b 598 653 540 791 598 740 b 561 555 598 613 585 579 z "},"Ƥ":{"ha":1247,"x_min":0,"x_max":0,"o":"m 278 590 l 278 663 b 385 791 277 722 301 791 l 400 791 l 400 0 l 675 0 l 675 300 l 827 300 b 1211 653 1057 300 1211 436 b 836 1010 1211 868 1061 1010 l 385 1010 b 37 710 173 1010 36 902 l 37 590 z m 675 513 l 675 791 l 771 791 b 925 653 868 791 925 740 b 771 513 925 567 868 513 z "},"Ρ":{"ha":911,"x_min":0,"x_max":0,"o":"m 65 0 l 339 0 l 339 300 l 491 300 b 876 653 722 300 876 436 b 501 1010 876 868 726 1010 l 65 1010 z m 339 513 l 339 791 l 436 791 b 590 653 532 791 590 740 b 436 513 590 567 532 513 z "},"Ῥ":{"ha":1154,"x_min":0,"x_max":0,"o":"m 280 0 l 554 0 l 554 300 l 706 300 b 1091 653 937 300 1091 436 b 716 1010 1091 868 941 1010 l 280 1010 z m 554 513 l 554 791 l 651 791 b 805 653 747 791 805 740 b 651 513 805 567 747 513 z m 73 939 b 182 765 74 850 125 789 l 243 840 b 191 943 198 862 192 908 l 191 1010 l 73 1010 z "},"Q":{"ha":1107,"x_min":0,"x_max":0,"o":"m 1044 505 b 552 1024 1044 842 827 1024 b 61 505 276 1024 61 842 b 552 -14 61 170 276 -14 b 727 13 614 -14 673 -4 l 803 -75 l 1046 -75 l 892 110 b 1044 505 986 198 1044 331 z m 456 375 l 569 225 b 552 225 563 225 558 225 b 343 505 416 225 343 324 b 552 785 343 687 416 785 b 762 505 689 785 762 687 b 719 312 762 424 747 359 l 669 375 z "},"R":{"ha":927,"x_min":0,"x_max":0,"o":"m 65 0 l 339 0 l 339 333 l 434 333 l 612 0 l 909 0 l 704 377 b 876 667 812 429 876 527 b 501 1010 876 882 726 1010 l 65 1010 z m 339 546 l 339 791 l 436 791 b 590 667 532 791 590 754 b 436 546 590 581 532 546 z "},"Ŕ":{"ha":927,"x_min":0,"x_max":0,"o":"m 65 0 l 339 0 l 339 333 l 434 333 l 612 0 l 909 0 l 704 377 b 876 667 812 429 876 527 b 501 1010 876 882 726 1010 l 65 1010 z m 339 546 l 339 791 l 436 791 b 590 667 532 791 590 754 b 436 546 590 581 532 546 z m 367 1105 l 546 1105 l 694 1326 l 462 1326 z "},"Ŗ":{"ha":927,"x_min":0,"x_max":0,"o":"m 65 0 l 339 0 l 339 333 l 434 333 l 612 0 l 909 0 l 704 377 b 876 667 812 429 876 527 b 501 1010 876 882 726 1010 l 65 1010 z m 339 546 l 339 791 l 436 791 b 590 667 532 791 590 754 b 436 546 590 581 532 546 z m 289 -316 l 474 -316 l 599 -80 l 354 -80 z "},"Ř":{"ha":927,"x_min":0,"x_max":0,"o":"m 65 0 l 339 0 l 339 333 l 434 333 l 612 0 l 909 0 l 704 377 b 876 667 812 429 876 527 b 501 1010 876 882 726 1010 l 65 1010 z m 361 1332 l 136 1332 l 136 1326 l 363 1101 l 552 1101 l 779 1326 l 779 1332 l 554 1332 l 458 1223 z m 339 546 l 339 791 l 436 791 b 590 667 532 791 590 754 b 436 546 590 581 532 546 z "},"Ȑ":{"ha":927,"x_min":0,"x_max":0,"o":"m 65 0 l 339 0 l 339 333 l 434 333 l 612 0 l 909 0 l 704 377 b 876 667 812 429 876 527 b 501 1010 876 882 726 1010 l 65 1010 z m 339 546 l 339 791 l 436 791 b 590 667 532 791 590 754 b 436 546 590 581 532 546 z m 244 1105 l 423 1105 l 328 1326 l 96 1326 z m 511 1105 l 686 1105 l 635 1326 l 415 1326 z "},"Ȓ":{"ha":927,"x_min":0,"x_max":0,"o":"m 65 0 l 339 0 l 339 333 l 434 333 l 612 0 l 909 0 l 704 377 b 876 667 812 429 876 527 b 501 1010 876 882 726 1010 l 65 1010 z m 185 1128 l 357 1128 b 456 1209 356 1170 384 1209 b 556 1128 528 1209 555 1170 l 728 1128 b 456 1347 727 1257 620 1347 b 185 1128 289 1347 184 1257 z m 339 546 l 339 791 l 436 791 b 590 667 532 791 590 754 b 436 546 590 581 532 546 z "},"Ṙ":{"ha":927,"x_min":0,"x_max":0,"o":"m 65 0 l 339 0 l 339 333 l 434 333 l 612 0 l 909 0 l 704 377 b 876 667 812 429 876 527 b 501 1010 876 882 726 1010 l 65 1010 z m 339 546 l 339 791 l 436 791 b 590 667 532 791 590 754 b 436 546 590 581 532 546 z m 458 1089 b 592 1213 532 1089 592 1145 b 458 1338 592 1282 532 1338 b 324 1213 384 1338 324 1282 b 458 1089 324 1145 384 1089 z "},"Ṛ":{"ha":927,"x_min":0,"x_max":0,"o":"m 65 0 l 339 0 l 339 333 l 434 333 l 612 0 l 909 0 l 704 377 b 876 667 812 429 876 527 b 501 1010 876 882 726 1010 l 65 1010 z m 339 546 l 339 791 l 436 791 b 590 667 532 791 590 754 b 436 546 590 581 532 546 z m 473 -306 b 608 -182 547 -306 608 -250 b 473 -57 608 -113 547 -57 b 339 -182 400 -57 339 -113 b 473 -306 339 -250 400 -306 z "},"Ṝ":{"ha":927,"x_min":0,"x_max":0,"o":"m 65 0 l 339 0 l 339 333 l 434 333 l 612 0 l 909 0 l 704 377 b 876 667 812 429 876 527 b 501 1010 876 882 726 1010 l 65 1010 z m 704 1263 l 211 1263 l 211 1138 l 704 1138 z m 339 546 l 339 791 l 436 791 b 590 667 532 791 590 754 b 436 546 590 581 532 546 z m 473 -306 b 608 -182 547 -306 608 -250 b 473 -57 608 -113 547 -57 b 339 -182 400 -57 339 -113 b 473 -306 339 -250 400 -306 z "},"Ṟ":{"ha":927,"x_min":0,"x_max":0,"o":"m 65 0 l 339 0 l 339 333 l 434 333 l 612 0 l 909 0 l 704 377 b 876 667 812 429 876 527 b 501 1010 876 882 726 1010 l 65 1010 z m 720 -127 l 227 -127 l 227 -252 l 720 -252 z m 339 546 l 339 791 l 436 791 b 590 667 532 791 590 754 b 436 546 590 581 532 546 z "},"℟":{"ha":941,"x_min":0,"x_max":0,"o":"m 633 1158 l 345 1219 l 327 1146 l 546 1103 l 530 1010 b 507 1010 522 1010 515 1010 l 71 1010 l 71 0 l 345 0 l 345 333 l 410 333 l 308 -247 l 389 -254 l 478 262 l 618 0 l 915 0 l 710 377 b 882 667 818 429 882 527 b 606 1001 882 848 774 968 z m 491 787 l 448 546 b 442 546 446 546 444 546 l 345 546 l 345 791 l 442 791 b 491 787 460 791 476 790 z m 563 754 b 596 667 584 734 596 705 b 530 560 596 612 572 578 z "},"℞":{"ha":1140,"x_min":0,"x_max":0,"o":"m 65 1010 l 65 0 l 339 0 l 339 363 l 593 363 l 696 219 l 537 0 l 692 0 l 773 112 l 854 0 l 1067 0 l 878 259 l 1026 466 l 876 466 l 802 364 l 750 436 b 878 692 824 490 878 571 b 489 1010 878 902 738 1010 z m 339 580 l 339 789 l 489 789 b 606 685 545 789 606 767 b 493 580 606 606 548 580 z "},"Ɍ":{"ha":965,"x_min":0,"x_max":0,"o":"m 95 0 l 369 0 l 369 333 l 464 333 l 641 0 l 939 0 l 734 377 b 906 667 841 429 906 527 b 531 1010 906 882 755 1010 l 95 1010 l 95 550 l 8 550 l 8 357 l 95 357 z m 369 546 l 369 791 l 466 791 b 619 667 562 791 619 754 b 466 546 619 581 562 546 z "},"S":{"ha":925,"x_min":0,"x_max":0,"o":"m 610 694 l 872 694 b 473 1024 871 893 718 1024 b 65 702 233 1024 64 895 b 353 418 65 545 174 457 l 454 397 b 606 298 566 372 605 344 b 472 213 605 248 559 213 b 300 355 366 213 304 262 l 39 355 b 475 -12 40 102 212 -12 b 886 298 731 -12 885 99 b 570 608 885 452 793 560 l 487 625 b 351 722 392 646 349 674 b 473 799 352 766 389 799 b 610 694 562 799 604 760 z "},"Ś":{"ha":925,"x_min":0,"x_max":0,"o":"m 610 694 l 872 694 b 473 1024 871 893 718 1024 b 65 702 233 1024 64 895 b 353 418 65 545 174 457 l 454 397 b 606 298 566 372 605 344 b 472 213 605 248 559 213 b 300 355 366 213 304 262 l 39 355 b 475 -12 40 102 212 -12 b 886 298 731 -12 885 99 b 570 608 885 452 793 560 l 487 625 b 351 722 392 646 349 674 b 473 799 352 766 389 799 b 610 694 562 799 604 760 z m 373 1105 l 552 1105 l 700 1326 l 468 1326 z "},"Ŝ":{"ha":925,"x_min":0,"x_max":0,"o":"m 610 694 l 872 694 b 473 1024 871 893 718 1024 b 65 702 233 1024 64 895 b 353 418 65 545 174 457 l 454 397 b 606 298 566 372 605 344 b 472 213 605 248 559 213 b 300 355 366 213 304 262 l 39 355 b 475 -12 40 102 212 -12 b 886 298 731 -12 885 99 b 570 608 885 452 793 560 l 487 625 b 351 722 392 646 349 674 b 473 799 352 766 389 799 b 610 694 562 799 604 760 z m 560 1101 l 785 1101 l 785 1107 l 558 1332 l 369 1332 l 142 1107 l 142 1101 l 367 1101 l 464 1209 z "},"Ş":{"ha":925,"x_min":0,"x_max":0,"o":"m 610 694 l 872 694 b 473 1024 871 893 718 1024 b 65 702 233 1024 64 895 b 353 418 65 545 174 457 l 454 397 b 606 298 566 372 605 344 b 472 213 605 248 559 213 b 300 355 366 213 304 262 l 39 355 b 415 -10 40 121 186 7 l 395 -99 b 487 -170 458 -109 490 -133 b 335 -231 485 -210 433 -231 l 335 -335 b 631 -164 520 -335 632 -270 b 507 -41 631 -100 585 -53 l 512 -11 b 886 298 746 -1 885 109 b 570 608 885 452 793 560 l 487 625 b 351 722 392 646 349 674 b 473 799 352 766 389 799 b 610 694 562 799 604 760 z "},"Š":{"ha":925,"x_min":0,"x_max":0,"o":"m 610 694 l 872 694 b 473 1024 871 893 718 1024 b 65 702 233 1024 64 895 b 353 418 65 545 174 457 l 454 397 b 606 298 566 372 605 344 b 472 213 605 248 559 213 b 300 355 366 213 304 262 l 39 355 b 475 -12 40 102 212 -12 b 886 298 731 -12 885 99 b 570 608 885 452 793 560 l 487 625 b 351 722 392 646 349 674 b 473 799 352 766 389 799 b 610 694 562 799 604 760 z m 367 1332 l 142 1332 l 142 1326 l 369 1101 l 558 1101 l 785 1326 l 785 1332 l 560 1332 l 464 1223 z "},"Ș":{"ha":925,"x_min":0,"x_max":0,"o":"m 610 694 l 872 694 b 473 1024 871 893 718 1024 b 65 702 233 1024 64 895 b 353 418 65 545 174 457 l 454 397 b 606 298 566 372 605 344 b 472 213 605 248 559 213 b 300 355 366 213 304 262 l 39 355 b 475 -12 40 102 212 -12 b 886 298 731 -12 885 99 b 570 608 885 452 793 560 l 487 625 b 351 722 392 646 349 674 b 473 799 352 766 389 799 b 610 694 562 799 604 760 z m 283 -316 l 469 -316 l 593 -80 l 348 -80 z "},"Ṡ":{"ha":925,"x_min":0,"x_max":0,"o":"m 610 694 l 872 694 b 473 1024 871 893 718 1024 b 65 702 233 1024 64 895 b 353 418 65 545 174 457 l 454 397 b 606 298 566 372 605 344 b 472 213 605 248 559 213 b 300 355 366 213 304 262 l 39 355 b 475 -12 40 102 212 -12 b 886 298 731 -12 885 99 b 570 608 885 452 793 560 l 487 625 b 351 722 392 646 349 674 b 473 799 352 766 389 799 b 610 694 562 799 604 760 z m 464 1089 b 598 1213 538 1089 598 1145 b 464 1338 598 1282 538 1338 b 329 1213 390 1338 329 1282 b 464 1089 329 1145 390 1089 z "},"Ṣ":{"ha":925,"x_min":0,"x_max":0,"o":"m 610 694 l 872 694 b 473 1024 871 893 718 1024 b 65 702 233 1024 64 895 b 353 418 65 545 174 457 l 454 397 b 606 298 566 372 605 344 b 472 213 605 248 559 213 b 300 355 366 213 304 262 l 39 355 b 475 -12 40 102 212 -12 b 886 298 731 -12 885 99 b 570 608 885 452 793 560 l 487 625 b 351 722 392 646 349 674 b 473 799 352 766 389 799 b 610 694 562 799 604 760 z m 468 -306 b 602 -182 542 -306 602 -250 b 468 -57 602 -113 542 -57 b 333 -182 394 -57 333 -113 b 468 -306 333 -250 394 -306 z "},"Ṥ":{"ha":925,"x_min":0,"x_max":0,"o":"m 610 694 l 872 694 b 473 1024 871 893 718 1024 b 65 702 233 1024 64 895 b 353 418 65 545 174 457 l 454 397 b 606 298 566 372 605 344 b 472 213 605 248 559 213 b 300 355 366 213 304 262 l 39 355 b 475 -12 40 102 212 -12 b 886 298 731 -12 885 99 b 570 608 885 452 793 560 l 487 625 b 351 722 392 646 349 674 b 473 799 352 766 389 799 b 610 694 562 799 604 760 z m 201 1243 b 308 1158 202 1196 248 1158 b 414 1243 370 1158 415 1196 b 308 1328 415 1290 370 1328 b 201 1243 248 1328 202 1290 z m 410 1103 l 533 1103 l 669 1272 l 513 1272 z "},"Ṧ":{"ha":925,"x_min":0,"x_max":0,"o":"m 610 694 l 872 694 b 473 1024 871 893 718 1024 b 65 702 233 1024 64 895 b 353 418 65 545 174 457 l 454 397 b 606 298 566 372 605 344 b 472 213 605 248 559 213 b 300 355 366 213 304 262 l 39 355 b 475 -12 40 102 212 -12 b 886 298 731 -12 885 99 b 570 608 885 452 793 560 l 487 625 b 351 722 392 646 349 674 b 473 799 352 766 389 799 b 610 694 562 799 604 760 z m 379 1310 l 160 1310 l 160 1302 l 375 1136 l 558 1136 l 769 1298 l 769 1310 l 552 1310 l 466 1239 z m 357 1430 b 464 1347 357 1383 402 1347 b 570 1430 525 1347 570 1383 b 464 1515 570 1478 525 1515 b 357 1430 402 1515 357 1478 z "},"Ṩ":{"ha":925,"x_min":0,"x_max":0,"o":"m 610 694 l 872 694 b 473 1024 871 893 718 1024 b 65 702 233 1024 64 895 b 353 418 65 545 174 457 l 454 397 b 606 298 566 372 605 344 b 472 213 605 248 559 213 b 300 355 366 213 304 262 l 39 355 b 475 -12 40 102 212 -12 b 886 298 731 -12 885 99 b 570 608 885 452 793 560 l 487 625 b 351 722 392 646 349 674 b 473 799 352 766 389 799 b 610 694 562 799 604 760 z m 468 -306 b 602 -182 542 -306 602 -250 b 468 -57 602 -113 542 -57 b 333 -182 394 -57 333 -113 b 468 -306 333 -250 394 -306 z m 464 1089 b 598 1213 538 1089 598 1145 b 464 1338 598 1282 538 1338 b 329 1213 390 1338 329 1282 b 464 1089 329 1145 390 1089 z "},"Ѕ":{"ha":925,"x_min":0,"x_max":0,"o":"m 610 694 l 872 694 b 473 1024 871 893 718 1024 b 65 702 233 1024 64 895 b 353 418 65 545 174 457 l 454 397 b 606 298 566 372 605 344 b 472 213 605 248 559 213 b 300 355 366 213 304 262 l 39 355 b 475 -12 40 102 212 -12 b 886 298 731 -12 885 99 b 570 608 885 452 793 560 l 487 625 b 351 722 392 646 349 674 b 473 799 352 766 389 799 b 610 694 562 799 604 760 z "},"Ƨ":{"ha":925,"x_min":0,"x_max":0,"o":"m 316 694 b 452 799 321 760 363 799 b 574 722 537 799 574 766 b 438 625 577 674 534 646 l 355 608 b 39 298 132 560 40 452 b 450 -12 40 99 194 -12 b 886 355 713 -12 885 102 l 625 355 b 454 213 621 262 559 213 b 320 298 366 213 321 248 b 472 397 321 344 359 372 l 572 418 b 860 702 751 457 861 545 b 452 1024 862 895 692 1024 b 53 694 207 1024 54 893 z "},"ẞ":{"ha":1028,"x_min":0,"x_max":0,"o":"m 65 0 l 339 0 l 339 661 b 454 815 339 757 383 815 b 639 754 522 815 592 792 l 466 586 l 466 444 l 554 444 b 732 298 665 444 732 389 b 590 193 732 233 678 193 b 442 225 547 193 491 205 l 371 32 b 616 -14 432 5 533 -14 b 988 298 834 -14 988 115 b 734 592 988 441 883 563 l 959 835 b 454 1024 809 945 600 1024 b 65 661 226 1024 65 873 z "},"T":{"ha":953,"x_min":0,"x_max":0,"o":"m 37 789 l 341 789 l 341 0 l 612 0 l 612 789 l 915 789 l 915 1010 l 37 1010 z "},"Ţ":{"ha":953,"x_min":0,"x_max":0,"o":"m 37 789 l 341 789 l 341 0 l 423 0 l 400 -99 b 493 -170 464 -109 496 -133 b 341 -231 491 -210 438 -231 l 341 -335 b 637 -164 526 -335 638 -270 b 513 -41 637 -100 591 -53 l 520 0 l 612 0 l 612 789 l 915 789 l 915 1010 l 37 1010 z "},"Ť":{"ha":953,"x_min":0,"x_max":0,"o":"m 37 789 l 341 789 l 341 0 l 612 0 l 612 789 l 915 789 l 915 1010 l 37 1010 z m 381 1332 l 156 1332 l 156 1326 l 383 1101 l 572 1101 l 799 1326 l 799 1332 l 574 1332 l 477 1223 z "},"Ț":{"ha":953,"x_min":0,"x_max":0,"o":"m 37 789 l 341 789 l 341 0 l 612 0 l 612 789 l 915 789 l 915 1010 l 37 1010 z m 291 -316 l 476 -316 l 601 -80 l 356 -80 z "},"Ṫ":{"ha":953,"x_min":0,"x_max":0,"o":"m 37 789 l 341 789 l 341 0 l 612 0 l 612 789 l 915 789 l 915 1010 l 37 1010 z m 477 1089 b 612 1213 551 1089 612 1145 b 477 1338 612 1282 551 1338 b 343 1213 403 1338 343 1282 b 477 1089 343 1145 403 1089 z "},"Ṭ":{"ha":953,"x_min":0,"x_max":0,"o":"m 37 789 l 341 789 l 341 0 l 612 0 l 612 789 l 915 789 l 915 1010 l 37 1010 z m 475 -306 b 610 -182 549 -306 610 -250 b 475 -57 610 -113 549 -57 b 341 -182 401 -57 341 -113 b 475 -306 341 -250 401 -306 z "},"Ṯ":{"ha":953,"x_min":0,"x_max":0,"o":"m 37 789 l 341 789 l 341 0 l 612 0 l 612 789 l 915 789 l 915 1010 l 37 1010 z m 722 -127 l 229 -127 l 229 -252 l 722 -252 z "},"Ṱ":{"ha":953,"x_min":0,"x_max":0,"o":"m 37 789 l 341 789 l 341 0 l 612 0 l 612 789 l 915 789 l 915 1010 l 37 1010 z m 572 -294 l 797 -294 l 797 -288 l 570 -63 l 381 -63 l 154 -288 l 154 -294 l 379 -294 l 475 -185 z "},"Ƭ":{"ha":996,"x_min":0,"x_max":0,"o":"m 959 1010 l 365 1010 b 37 708 149 1010 37 898 l 37 586 l 258 586 l 258 659 b 365 789 258 722 275 789 l 385 789 l 385 0 l 655 0 l 655 789 l 959 789 z "},"Ʈ":{"ha":953,"x_min":0,"x_max":0,"o":"m 37 789 l 341 789 l 341 -22 b 639 -284 341 -260 494 -284 l 758 -284 l 758 -81 l 712 -81 b 612 -24 664 -81 612 -69 l 612 789 l 915 789 l 915 1010 l 37 1010 z "},"Ⱦ":{"ha":953,"x_min":0,"x_max":0,"o":"m 235 -128 l 375 -128 l 414 0 l 612 0 l 612 655 l 652 789 l 915 789 l 915 1010 l 719 1010 l 758 1138 l 618 1138 l 579 1010 l 37 1010 l 37 789 l 341 789 l 341 224 z "},"Τ":{"ha":953,"x_min":0,"x_max":0,"o":"m 37 789 l 341 789 l 341 0 l 612 0 l 612 789 l 915 789 l 915 1010 l 37 1010 z "},"U":{"ha":1002,"x_min":0,"x_max":0,"o":"m 663 1010 l 663 387 b 501 225 663 292 595 225 b 339 387 407 225 339 292 l 339 1010 l 65 1010 l 65 363 b 501 -12 65 132 240 -12 b 937 363 761 -12 937 132 l 937 1010 z "},"Ư":{"ha":1213,"x_min":0,"x_max":0,"o":"m 1026 1030 b 1026 1025 1026 1028 1026 1027 b 937 822 1026 920 1026 845 l 937 1010 l 663 1010 l 663 387 b 501 225 663 292 595 225 b 339 387 407 225 339 292 l 339 1010 l 65 1010 l 65 363 b 501 -12 65 132 240 -12 b 937 363 761 -12 937 132 l 937 698 b 1176 1030 1126 721 1176 843 z "},"Ù":{"ha":1002,"x_min":0,"x_max":0,"o":"m 663 1010 l 663 387 b 501 225 663 292 595 225 b 339 387 407 225 339 292 l 339 1010 l 65 1010 l 65 363 b 501 -12 65 132 240 -12 b 937 363 761 -12 937 132 l 937 1010 z m 412 1105 l 592 1105 l 497 1326 l 264 1326 z "},"Ú":{"ha":1002,"x_min":0,"x_max":0,"o":"m 663 1010 l 663 387 b 501 225 663 292 595 225 b 339 387 407 225 339 292 l 339 1010 l 65 1010 l 65 363 b 501 -12 65 132 240 -12 b 937 363 761 -12 937 132 l 937 1010 z m 410 1105 l 590 1105 l 738 1326 l 505 1326 z "},"Û":{"ha":1002,"x_min":0,"x_max":0,"o":"m 663 1010 l 663 387 b 501 225 663 292 595 225 b 339 387 407 225 339 292 l 339 1010 l 65 1010 l 65 363 b 501 -12 65 132 240 -12 b 937 363 761 -12 937 132 l 937 1010 z m 598 1101 l 823 1101 l 823 1107 l 596 1332 l 406 1332 l 180 1107 l 180 1101 l 404 1101 l 501 1209 z "},"Ü":{"ha":1002,"x_min":0,"x_max":0,"o":"m 663 1010 l 663 387 b 501 225 663 292 595 225 b 339 387 407 225 339 292 l 339 1010 l 65 1010 l 65 363 b 501 -12 65 132 240 -12 b 937 363 761 -12 937 132 l 937 1010 z m 345 1099 b 464 1213 410 1099 464 1150 b 345 1328 464 1276 410 1328 b 225 1213 278 1328 225 1276 b 345 1099 225 1150 278 1099 z m 659 1099 b 777 1213 724 1099 777 1150 b 659 1328 777 1276 724 1328 b 539 1213 592 1328 539 1276 b 659 1099 539 1150 592 1099 z "},"Ũ":{"ha":1002,"x_min":0,"x_max":0,"o":"m 663 1010 l 663 387 b 501 225 663 292 595 225 b 339 387 407 225 339 292 l 339 1010 l 65 1010 l 65 363 b 501 -12 65 132 240 -12 b 937 363 761 -12 937 132 l 937 1010 z m 367 1105 b 418 1180 367 1154 387 1180 b 476 1150 439 1180 456 1166 b 602 1099 506 1126 541 1098 b 769 1312 694 1100 767 1172 l 637 1312 b 584 1235 636 1264 622 1235 b 528 1264 565 1235 548 1248 b 400 1316 498 1287 461 1316 b 233 1105 307 1315 233 1247 z "},"Ū":{"ha":1002,"x_min":0,"x_max":0,"o":"m 663 1010 l 663 387 b 501 225 663 292 595 225 b 339 387 407 225 339 292 l 339 1010 l 65 1010 l 65 363 b 501 -12 65 132 240 -12 b 937 363 761 -12 937 132 l 937 1010 z m 748 1263 l 254 1263 l 254 1138 l 748 1138 z "},"Ŭ":{"ha":1002,"x_min":0,"x_max":0,"o":"m 663 1010 l 663 387 b 501 225 663 292 595 225 b 339 387 407 225 339 292 l 339 1010 l 65 1010 l 65 363 b 501 -12 65 132 240 -12 b 937 363 761 -12 937 132 l 937 1010 z m 600 1282 b 501 1199 599 1239 572 1199 b 400 1282 428 1199 400 1241 l 231 1282 b 501 1071 230 1154 335 1071 b 771 1282 666 1071 771 1154 z "},"Ů":{"ha":1002,"x_min":0,"x_max":0,"o":"m 663 1010 l 663 387 b 501 225 663 292 595 225 b 339 387 407 225 339 292 l 339 1010 l 65 1010 l 65 363 b 501 -12 65 132 240 -12 b 937 363 761 -12 937 132 l 937 1010 z m 501 1061 b 659 1213 588 1061 659 1129 b 501 1365 659 1297 588 1365 b 343 1213 414 1365 343 1297 b 501 1061 343 1129 414 1061 z m 501 1154 b 438 1213 466 1154 438 1181 b 501 1272 438 1246 467 1272 b 564 1213 536 1273 564 1246 b 501 1154 564 1181 535 1155 z "},"Ű":{"ha":1002,"x_min":0,"x_max":0,"o":"m 663 1010 l 663 387 b 501 225 663 292 595 225 b 339 387 407 225 339 292 l 339 1010 l 65 1010 l 65 363 b 501 -12 65 132 240 -12 b 937 363 761 -12 937 132 l 937 1010 z m 256 1101 l 440 1101 l 612 1302 l 402 1302 z m 543 1101 l 722 1101 l 911 1302 l 702 1302 z "},"Ų":{"ha":1002,"x_min":0,"x_max":0,"o":"m 663 1010 l 663 387 b 501 225 663 292 595 225 b 339 387 407 225 339 292 l 339 1010 l 65 1010 l 65 363 b 372 1 65 173 184 41 b 371 -144 357 -41 356 -95 b 552 -274 396 -227 461 -274 b 671 -245 605 -274 645 -258 l 639 -122 b 598 -130 627 -124 615 -130 b 552 -79 572 -130 552 -112 b 651 0 552 -39 587 -20 l 640 3 b 937 363 821 46 937 176 l 937 1010 z "},"Ǔ":{"ha":1002,"x_min":0,"x_max":0,"o":"m 663 1010 l 663 387 b 501 225 663 292 595 225 b 339 387 407 225 339 292 l 339 1010 l 65 1010 l 65 363 b 501 -12 65 132 240 -12 b 937 363 761 -12 937 132 l 937 1010 z m 404 1332 l 180 1332 l 180 1326 l 406 1101 l 596 1101 l 823 1326 l 823 1332 l 598 1332 l 501 1223 z "},"Ǖ":{"ha":1002,"x_min":0,"x_max":0,"o":"m 663 1010 l 663 387 b 501 225 663 292 595 225 b 339 387 407 225 339 292 l 339 1010 l 65 1010 l 65 363 b 501 -12 65 132 240 -12 b 937 363 761 -12 937 132 l 937 1010 z m 748 1515 l 254 1515 l 254 1391 l 748 1391 z m 345 1099 b 464 1213 410 1099 464 1150 b 345 1328 464 1276 410 1328 b 225 1213 278 1328 225 1276 b 345 1099 225 1150 278 1099 z m 659 1099 b 777 1213 724 1099 777 1150 b 659 1328 777 1276 724 1328 b 539 1213 592 1328 539 1276 b 659 1099 539 1150 592 1099 z "},"Ǘ":{"ha":1002,"x_min":0,"x_max":0,"o":"m 663 1010 l 663 387 b 501 225 663 292 595 225 b 339 387 407 225 339 292 l 339 1010 l 65 1010 l 65 363 b 501 -12 65 132 240 -12 b 937 363 761 -12 937 132 l 937 1010 z m 400 1338 l 584 1338 l 755 1528 l 532 1528 z m 356 1073 b 466 1176 416 1073 466 1120 b 356 1280 466 1234 416 1280 b 243 1176 293 1280 243 1234 b 356 1073 243 1120 293 1073 z m 649 1073 b 760 1176 710 1073 760 1120 b 649 1280 760 1234 710 1280 b 536 1176 586 1280 536 1234 b 649 1073 536 1120 586 1073 z "},"Ǚ":{"ha":1002,"x_min":0,"x_max":0,"o":"m 663 1010 l 663 387 b 501 225 663 292 595 225 b 339 387 407 225 339 292 l 339 1010 l 65 1010 l 65 363 b 501 -12 65 132 240 -12 b 937 363 761 -12 937 132 l 937 1010 z m 416 1468 l 197 1468 l 197 1462 l 412 1296 l 596 1296 l 807 1458 l 807 1468 l 590 1468 l 503 1399 z m 541 1203 b 647 1119 541 1156 584 1119 b 754 1203 706 1119 754 1154 b 647 1286 754 1251 706 1286 b 541 1203 584 1286 541 1249 z m 251 1203 b 355 1119 251 1154 296 1119 b 462 1203 416 1119 462 1154 b 355 1286 462 1249 418 1286 b 251 1203 294 1286 251 1249 z "},"Ǜ":{"ha":1002,"x_min":0,"x_max":0,"o":"m 663 1010 l 663 387 b 501 225 663 292 595 225 b 339 387 407 225 339 292 l 339 1010 l 65 1010 l 65 363 b 501 -12 65 132 240 -12 b 937 363 761 -12 937 132 l 937 1010 z m 539 1203 b 645 1119 538 1154 585 1119 b 752 1203 707 1119 751 1156 b 645 1286 751 1249 707 1286 b 539 1203 585 1286 538 1251 z m 249 1203 b 353 1119 248 1154 293 1119 b 462 1203 413 1119 461 1154 b 353 1286 461 1249 415 1286 b 249 1203 293 1286 248 1249 z m 481 1411 l 320 1411 l 446 1296 l 572 1296 z "},"Ȕ":{"ha":1002,"x_min":0,"x_max":0,"o":"m 663 1010 l 663 387 b 501 225 663 292 595 225 b 339 387 407 225 339 292 l 339 1010 l 65 1010 l 65 363 b 501 -12 65 132 240 -12 b 937 363 761 -12 937 132 l 937 1010 z m 287 1105 l 467 1105 l 372 1326 l 139 1326 z m 554 1105 l 729 1105 l 679 1326 l 459 1326 z "},"Ȗ":{"ha":1002,"x_min":0,"x_max":0,"o":"m 663 1010 l 663 387 b 501 225 663 292 595 225 b 339 387 407 225 339 292 l 339 1010 l 65 1010 l 65 363 b 501 -12 65 132 240 -12 b 937 363 761 -12 937 132 l 937 1010 z m 229 1128 l 400 1128 b 499 1209 400 1170 427 1209 b 600 1128 571 1209 599 1170 l 771 1128 b 499 1347 770 1257 664 1347 b 229 1128 332 1347 228 1257 z "},"Ṳ":{"ha":1002,"x_min":0,"x_max":0,"o":"m 663 1010 l 663 387 b 501 225 663 292 595 225 b 339 387 407 225 339 292 l 339 1010 l 65 1010 l 65 363 b 501 -12 65 132 240 -12 b 937 363 761 -12 937 132 l 937 1010 z m 365 -300 b 499 -176 439 -300 499 -244 b 365 -51 499 -107 439 -51 b 231 -176 291 -51 231 -107 b 365 -300 231 -244 291 -300 z m 760 -300 b 894 -176 834 -300 894 -244 b 760 -51 894 -107 834 -51 b 625 -176 686 -51 625 -107 b 760 -300 625 -244 686 -300 z "},"Ṵ":{"ha":1002,"x_min":0,"x_max":0,"o":"m 663 1010 l 663 387 b 501 225 663 292 595 225 b 339 387 407 225 339 292 l 339 1010 l 65 1010 l 65 363 b 501 -12 65 132 240 -12 b 937 363 761 -12 937 132 l 937 1010 z m 385 -278 b 436 -203 385 -229 404 -203 b 494 -233 457 -203 474 -217 b 619 -284 523 -256 559 -285 b 787 -71 712 -283 785 -211 l 655 -71 b 602 -148 654 -119 640 -147 b 545 -119 583 -148 566 -135 b 418 -67 516 -96 479 -67 b 251 -278 325 -68 251 -136 z "},"Ṷ":{"ha":1002,"x_min":0,"x_max":0,"o":"m 663 1010 l 663 387 b 501 225 663 292 595 225 b 339 387 407 225 339 292 l 339 1010 l 65 1010 l 65 363 b 501 -12 65 132 240 -12 b 937 363 761 -12 937 132 l 937 1010 z m 598 -288 l 823 -288 l 823 -282 l 596 -57 l 406 -57 l 180 -282 l 180 -288 l 404 -288 l 501 -180 z "},"Ṹ":{"ha":1002,"x_min":0,"x_max":0,"o":"m 663 1010 l 663 387 b 501 225 663 292 595 225 b 339 387 407 225 339 292 l 339 1010 l 65 1010 l 65 363 b 501 -12 65 132 240 -12 b 937 363 761 -12 937 132 l 937 1010 z m 376 1091 b 424 1158 376 1135 394 1158 b 478 1131 443 1158 459 1146 b 595 1086 505 1111 538 1086 b 752 1275 681 1087 750 1151 l 628 1275 b 579 1207 627 1233 614 1207 b 526 1233 561 1206 545 1218 b 407 1278 498 1253 464 1279 b 251 1091 320 1278 251 1217 z m 393 1338 l 576 1338 l 747 1528 l 524 1528 z "},"Ṻ":{"ha":1002,"x_min":0,"x_max":0,"o":"m 663 1010 l 663 387 b 501 225 663 292 595 225 b 339 387 407 225 339 292 l 339 1010 l 65 1010 l 65 363 b 501 -12 65 132 240 -12 b 937 363 761 -12 937 132 l 937 1010 z m 748 1217 l 253 1217 l 253 1095 l 748 1095 z m 249 1361 b 353 1276 248 1314 291 1276 b 462 1361 415 1276 461 1314 b 353 1446 461 1409 413 1446 b 249 1361 293 1446 248 1409 z m 539 1361 b 645 1278 538 1314 583 1278 b 752 1361 705 1278 751 1314 b 645 1446 751 1409 705 1446 b 539 1361 583 1446 538 1409 z "},"Ụ":{"ha":1002,"x_min":0,"x_max":0,"o":"m 663 1010 l 663 387 b 501 225 663 292 595 225 b 339 387 407 225 339 292 l 339 1010 l 65 1010 l 65 363 b 501 -12 65 132 240 -12 b 937 363 761 -12 937 132 l 937 1010 z m 501 -300 b 635 -176 575 -300 635 -244 b 501 -51 635 -107 575 -51 b 367 -176 427 -51 367 -107 b 501 -300 367 -244 427 -300 z "},"Ủ":{"ha":1002,"x_min":0,"x_max":0,"o":"m 663 1010 l 663 387 b 501 225 663 292 595 225 b 339 387 407 225 339 292 l 339 1010 l 65 1010 l 65 363 b 501 -12 65 132 240 -12 b 937 363 761 -12 937 132 l 937 1010 z m 596 1123 l 596 1162 b 702 1255 650 1170 703 1199 b 393 1391 703 1342 595 1391 l 387 1282 b 479 1241 441 1282 480 1276 b 383 1199 480 1219 453 1201 l 400 1123 z "},"Ứ":{"ha":1213,"x_min":0,"x_max":0,"o":"m 1026 1030 b 1026 1025 1026 1028 1026 1027 b 937 822 1026 920 1026 845 l 937 1010 l 663 1010 l 663 387 b 501 225 663 292 595 225 b 339 387 407 225 339 292 l 339 1010 l 65 1010 l 65 363 b 501 -12 65 132 240 -12 b 937 363 761 -12 937 132 l 937 698 b 1176 1030 1126 721 1176 843 z m 410 1105 l 590 1105 l 738 1326 l 505 1326 z "},"Ừ":{"ha":1213,"x_min":0,"x_max":0,"o":"m 1026 1030 b 1026 1025 1026 1028 1026 1027 b 937 822 1026 920 1026 845 l 937 1010 l 663 1010 l 663 387 b 501 225 663 292 595 225 b 339 387 407 225 339 292 l 339 1010 l 65 1010 l 65 363 b 501 -12 65 132 240 -12 b 937 363 761 -12 937 132 l 937 698 b 1176 1030 1126 721 1176 843 z m 412 1105 l 592 1105 l 497 1326 l 264 1326 z "},"Ử":{"ha":1213,"x_min":0,"x_max":0,"o":"m 1026 1030 b 1026 1025 1026 1028 1026 1027 b 937 822 1026 920 1026 845 l 937 1010 l 663 1010 l 663 387 b 501 225 663 292 595 225 b 339 387 407 225 339 292 l 339 1010 l 65 1010 l 65 363 b 501 -12 65 132 240 -12 b 937 363 761 -12 937 132 l 937 698 b 1176 1030 1126 721 1176 843 z m 596 1123 l 596 1162 b 702 1255 650 1170 703 1199 b 393 1391 703 1342 595 1391 l 387 1282 b 479 1241 441 1282 480 1276 b 383 1199 480 1219 453 1201 l 400 1123 z "},"Ữ":{"ha":1213,"x_min":0,"x_max":0,"o":"m 1026 1030 b 1026 1025 1026 1028 1026 1027 b 937 822 1026 920 1026 845 l 937 1010 l 663 1010 l 663 387 b 501 225 663 292 595 225 b 339 387 407 225 339 292 l 339 1010 l 65 1010 l 65 363 b 501 -12 65 132 240 -12 b 937 363 761 -12 937 132 l 937 698 b 1176 1030 1126 721 1176 843 z m 367 1105 b 418 1180 367 1154 387 1180 b 476 1150 439 1180 456 1166 b 602 1099 506 1126 541 1098 b 769 1312 694 1100 767 1172 l 637 1312 b 584 1235 636 1264 622 1235 b 528 1264 565 1235 548 1248 b 400 1316 498 1287 461 1316 b 233 1105 307 1315 233 1247 z "},"Ự":{"ha":1213,"x_min":0,"x_max":0,"o":"m 1026 1030 b 1026 1025 1026 1028 1026 1027 b 937 822 1026 920 1026 845 l 937 1010 l 663 1010 l 663 387 b 501 225 663 292 595 225 b 339 387 407 225 339 292 l 339 1010 l 65 1010 l 65 363 b 501 -12 65 132 240 -12 b 937 363 761 -12 937 132 l 937 698 b 1176 1030 1126 721 1176 843 z m 501 -300 b 635 -176 575 -300 635 -244 b 501 -51 635 -107 575 -51 b 367 -176 427 -51 367 -107 b 501 -300 367 -244 427 -300 z "},"Ʉ":{"ha":1073,"x_min":0,"x_max":0,"o":"m 1081 566 l 979 566 l 979 1010 l 704 1010 l 704 566 l 381 566 l 381 1010 l 107 1010 l 107 566 l -8 566 l -8 416 l 107 416 l 107 363 b 543 -12 107 132 281 -12 b 979 363 802 -12 979 132 l 979 416 l 1081 416 z m 704 416 l 704 387 b 543 225 704 292 637 225 b 381 387 448 225 381 292 l 381 416 z "},"V":{"ha":1105,"x_min":0,"x_max":0,"o":"m 341 1010 l 32 1010 l 365 0 l 740 0 l 1073 1010 l 763 1010 l 556 298 l 548 298 z "},"Ṽ":{"ha":1105,"x_min":0,"x_max":0,"o":"m 341 1010 l 32 1010 l 365 0 l 740 0 l 1073 1010 l 763 1010 l 556 298 l 548 298 z m 418 1105 b 470 1180 418 1154 438 1180 b 528 1150 490 1180 508 1166 b 653 1099 557 1126 592 1098 b 821 1312 745 1100 819 1172 l 689 1312 b 635 1235 688 1264 673 1235 b 579 1264 617 1235 599 1248 b 452 1316 549 1287 512 1316 b 284 1105 359 1315 284 1247 z "},"Ṿ":{"ha":1105,"x_min":0,"x_max":0,"o":"m 341 1010 l 32 1010 l 365 0 l 740 0 l 1073 1010 l 763 1010 l 556 298 l 548 298 z m 552 -306 b 687 -182 626 -306 687 -250 b 552 -57 687 -113 626 -57 b 418 -182 478 -57 418 -113 b 552 -306 418 -250 478 -306 z "},"W":{"ha":1519,"x_min":0,"x_max":0,"o":"m 322 0 l 584 0 l 756 564 l 763 564 l 935 0 l 1198 0 l 1495 1010 l 1190 1010 l 1052 387 l 1044 387 l 880 1010 l 639 1010 l 475 389 l 468 389 l 329 1010 l 24 1010 z "},"Ŵ":{"ha":1519,"x_min":0,"x_max":0,"o":"m 322 0 l 584 0 l 756 564 l 763 564 l 935 0 l 1198 0 l 1495 1010 l 1190 1010 l 1052 387 l 1044 387 l 880 1010 l 639 1010 l 475 389 l 468 389 l 329 1010 l 24 1010 z m 856 1101 l 1081 1101 l 1081 1107 l 854 1332 l 665 1332 l 438 1107 l 438 1101 l 663 1101 l 760 1209 z "},"Ẁ":{"ha":1519,"x_min":0,"x_max":0,"o":"m 322 0 l 584 0 l 756 564 l 763 564 l 935 0 l 1198 0 l 1495 1010 l 1190 1010 l 1052 387 l 1044 387 l 880 1010 l 639 1010 l 475 389 l 468 389 l 329 1010 l 24 1010 z m 671 1105 l 850 1105 l 756 1326 l 523 1326 z "},"Ẃ":{"ha":1519,"x_min":0,"x_max":0,"o":"m 322 0 l 584 0 l 756 564 l 763 564 l 935 0 l 1198 0 l 1495 1010 l 1190 1010 l 1052 387 l 1044 387 l 880 1010 l 639 1010 l 475 389 l 468 389 l 329 1010 l 24 1010 z m 669 1105 l 848 1105 l 996 1326 l 763 1326 z "},"Ẅ":{"ha":1519,"x_min":0,"x_max":0,"o":"m 322 0 l 584 0 l 756 564 l 763 564 l 935 0 l 1198 0 l 1495 1010 l 1190 1010 l 1052 387 l 1044 387 l 880 1010 l 639 1010 l 475 389 l 468 389 l 329 1010 l 24 1010 z m 604 1099 b 722 1213 669 1099 722 1150 b 604 1328 722 1276 669 1328 b 483 1213 537 1328 483 1276 b 604 1099 483 1150 537 1099 z m 917 1099 b 1036 1213 982 1099 1036 1150 b 917 1328 1036 1276 982 1328 b 797 1213 850 1328 797 1276 b 917 1099 797 1150 850 1099 z "},"Ẇ":{"ha":1519,"x_min":0,"x_max":0,"o":"m 322 0 l 584 0 l 756 564 l 763 564 l 935 0 l 1198 0 l 1495 1010 l 1190 1010 l 1052 387 l 1044 387 l 880 1010 l 639 1010 l 475 389 l 468 389 l 329 1010 l 24 1010 z m 760 1089 b 894 1213 834 1089 894 1145 b 760 1338 894 1282 834 1338 b 625 1213 686 1338 625 1282 b 760 1089 625 1145 686 1089 z "},"Ẉ":{"ha":1519,"x_min":0,"x_max":0,"o":"m 322 0 l 584 0 l 756 564 l 763 564 l 935 0 l 1198 0 l 1495 1010 l 1190 1010 l 1052 387 l 1044 387 l 880 1010 l 639 1010 l 475 389 l 468 389 l 329 1010 l 24 1010 z m 760 -306 b 894 -182 834 -306 894 -250 b 760 -57 894 -113 834 -57 b 625 -182 686 -57 625 -113 b 760 -306 625 -250 686 -306 z "},"X":{"ha":1059,"x_min":0,"x_max":0,"o":"m 359 1010 l 51 1010 l 351 505 l 41 0 l 353 0 l 525 300 l 533 300 l 704 0 l 1018 0 l 704 505 l 1006 1010 l 700 1010 l 533 716 l 525 716 z "},"Ẋ":{"ha":1059,"x_min":0,"x_max":0,"o":"m 359 1010 l 51 1010 l 351 505 l 41 0 l 353 0 l 525 300 l 533 300 l 704 0 l 1018 0 l 704 505 l 1006 1010 l 700 1010 l 533 716 l 525 716 z m 529 1089 b 663 1213 603 1089 663 1145 b 529 1338 663 1282 603 1338 b 395 1213 455 1338 395 1282 b 529 1089 395 1145 455 1089 z "},"Ẍ":{"ha":1059,"x_min":0,"x_max":0,"o":"m 359 1010 l 51 1010 l 351 505 l 41 0 l 353 0 l 525 300 l 533 300 l 704 0 l 1018 0 l 704 505 l 1006 1010 l 700 1010 l 533 716 l 525 716 z m 373 1099 b 491 1213 438 1099 491 1150 b 373 1328 491 1276 438 1328 b 253 1213 306 1328 253 1276 b 373 1099 253 1150 306 1099 z m 687 1099 b 805 1213 752 1099 805 1150 b 687 1328 805 1276 752 1328 b 566 1213 619 1328 566 1276 b 687 1099 566 1150 619 1099 z "},"Ҳ":{"ha":1059,"x_min":0,"x_max":0,"o":"m 359 1010 l 51 1010 l 351 505 l 41 0 l 353 0 l 525 300 l 533 300 l 704 0 l 836 0 l 836 -243 l 1099 -243 l 1099 170 l 912 170 l 704 505 l 1006 1010 l 700 1010 l 533 716 l 525 716 z "},"Ӽ":{"ha":1059,"x_min":0,"x_max":0,"o":"m 359 1010 l 51 1010 l 351 505 l 41 0 l 353 0 l 525 300 l 533 300 l 704 0 l 874 0 b 793 -95 871 -63 844 -95 b 722 -87 756 -95 748 -93 l 712 -286 b 831 -296 756 -294 789 -296 b 1136 10 1018 -296 1136 -193 l 1136 239 l 874 239 l 874 232 l 704 505 l 1006 1010 l 700 1010 l 533 716 l 525 716 z "},"Χ":{"ha":1059,"x_min":0,"x_max":0,"o":"m 359 1010 l 51 1010 l 351 505 l 41 0 l 353 0 l 525 300 l 533 300 l 704 0 l 1018 0 l 704 505 l 1006 1010 l 700 1010 l 533 716 l 525 716 z "},"Y":{"ha":1061,"x_min":0,"x_max":0,"o":"m 24 1010 l 395 318 l 395 0 l 667 0 l 667 318 l 1038 1010 l 732 1010 l 535 600 l 527 600 l 329 1010 z "},"Ƴ":{"ha":1174,"x_min":0,"x_max":0,"o":"m 36 1010 l 446 373 l 446 0 l 718 0 l 718 373 l 953 733 b 1103 795 994 796 1023 817 l 1158 996 b 751 868 1015 1046 849 1031 l 588 600 l 576 600 l 329 1010 z "},"Ý":{"ha":1061,"x_min":0,"x_max":0,"o":"m 24 1010 l 395 318 l 395 0 l 667 0 l 667 318 l 1038 1010 l 732 1010 l 535 600 l 527 600 l 329 1010 z m 440 1105 l 619 1105 l 767 1326 l 535 1326 z "},"Ŷ":{"ha":1061,"x_min":0,"x_max":0,"o":"m 24 1010 l 395 318 l 395 0 l 667 0 l 667 318 l 1038 1010 l 732 1010 l 535 600 l 527 600 l 329 1010 z m 627 1101 l 852 1101 l 852 1107 l 625 1332 l 436 1332 l 209 1107 l 209 1101 l 434 1101 l 531 1209 z "},"Ÿ":{"ha":1061,"x_min":0,"x_max":0,"o":"m 24 1010 l 395 318 l 395 0 l 667 0 l 667 318 l 1038 1010 l 732 1010 l 535 600 l 527 600 l 329 1010 z m 375 1099 b 493 1213 440 1099 493 1150 b 375 1328 493 1276 440 1328 b 254 1213 308 1328 254 1276 b 375 1099 254 1150 308 1099 z m 689 1099 b 807 1213 754 1099 807 1150 b 689 1328 807 1276 754 1328 b 568 1213 621 1328 568 1276 b 689 1099 568 1150 621 1099 z "},"Ȳ":{"ha":1061,"x_min":0,"x_max":0,"o":"m 24 1010 l 395 318 l 395 0 l 667 0 l 667 318 l 1038 1010 l 732 1010 l 535 600 l 527 600 l 329 1010 z m 777 1263 l 284 1263 l 284 1138 l 777 1138 z "},"Ẏ":{"ha":1061,"x_min":0,"x_max":0,"o":"m 24 1010 l 395 318 l 395 0 l 667 0 l 667 318 l 1038 1010 l 732 1010 l 535 600 l 527 600 l 329 1010 z m 531 1089 b 665 1213 605 1089 665 1145 b 531 1338 665 1282 605 1338 b 397 1213 457 1338 397 1282 b 531 1089 397 1145 457 1089 z "},"Ỳ":{"ha":1061,"x_min":0,"x_max":0,"o":"m 24 1010 l 395 318 l 395 0 l 667 0 l 667 318 l 1038 1010 l 732 1010 l 535 600 l 527 600 l 329 1010 z m 442 1105 l 621 1105 l 527 1326 l 294 1326 z "},"Ỵ":{"ha":1061,"x_min":0,"x_max":0,"o":"m 24 1010 l 395 318 l 395 0 l 667 0 l 667 318 l 1038 1010 l 732 1010 l 535 600 l 527 600 l 329 1010 z m 531 -306 b 665 -182 605 -306 665 -250 b 531 -57 665 -113 605 -57 b 397 -182 457 -57 397 -113 b 531 -306 397 -250 457 -306 z "},"Ỷ":{"ha":1061,"x_min":0,"x_max":0,"o":"m 24 1010 l 395 318 l 395 0 l 667 0 l 667 318 l 1038 1010 l 732 1010 l 535 600 l 527 600 l 329 1010 z m 625 1123 l 625 1162 b 732 1255 680 1170 733 1199 b 422 1391 733 1342 624 1391 l 416 1282 b 509 1241 471 1282 510 1276 b 412 1199 510 1219 482 1201 l 430 1123 z "},"Ỹ":{"ha":1061,"x_min":0,"x_max":0,"o":"m 24 1010 l 395 318 l 395 0 l 667 0 l 667 318 l 1038 1010 l 732 1010 l 535 600 l 527 600 l 329 1010 z m 397 1105 b 448 1180 397 1154 416 1180 b 506 1150 469 1180 486 1166 b 631 1099 535 1126 571 1098 b 799 1312 724 1100 797 1172 l 667 1312 b 614 1235 666 1264 652 1235 b 557 1264 595 1235 578 1248 b 430 1316 528 1287 491 1316 b 262 1105 337 1315 262 1247 z "},"Ɏ":{"ha":1061,"x_min":0,"x_max":0,"o":"m 1044 797 l 924 797 l 1038 1010 l 732 1010 l 629 797 l 432 797 l 329 1010 l 24 1010 l 138 797 l 18 797 l 18 669 l 207 669 l 395 318 l 395 0 l 667 0 l 667 318 l 855 669 l 1044 669 z m 494 669 l 568 669 l 535 600 l 527 600 z "},"Υ":{"ha":1061,"x_min":0,"x_max":0,"o":"m 24 1010 l 395 318 l 395 0 l 667 0 l 667 318 l 1038 1010 l 732 1010 l 535 600 l 527 600 l 329 1010 z "},"Ύ":{"ha":1484,"x_min":0,"x_max":0,"o":"m 349 1010 l 720 318 l 720 0 l 992 0 l 992 318 l 1363 1010 l 1057 1010 l 860 600 l 852 600 l 655 1010 z m 4 852 l 156 852 l 298 1089 l 69 1089 z "},"Ϋ":{"ha":1061,"x_min":0,"x_max":0,"o":"m 24 1010 l 395 318 l 395 0 l 667 0 l 667 318 l 1038 1010 l 732 1010 l 535 600 l 527 600 l 329 1010 z m 375 1099 b 493 1213 440 1099 493 1150 b 375 1328 493 1276 440 1328 b 254 1213 308 1328 254 1276 b 375 1099 254 1150 308 1099 z m 689 1099 b 807 1213 754 1099 807 1150 b 689 1328 807 1276 754 1328 b 568 1213 621 1328 568 1276 b 689 1099 568 1150 621 1099 z "},"Ὑ":{"ha":1359,"x_min":0,"x_max":0,"o":"m 225 1010 l 596 318 l 596 0 l 868 0 l 868 318 l 1239 1010 l 933 1010 l 736 600 l 728 600 l 531 1010 z m 61 939 b 170 765 62 850 113 789 l 231 840 b 180 943 186 862 181 908 l 180 1010 l 61 1010 z "},"Ὓ":{"ha":1580,"x_min":0,"x_max":0,"o":"m 446 1010 l 817 318 l 817 0 l 1089 0 l 1089 318 l 1460 1010 l 1154 1010 l 957 600 l 949 600 l 752 1010 z m 47 939 b 160 765 46 850 98 789 l 221 840 b 168 943 171 862 167 908 l 168 1010 l 47 1010 z m 460 799 l 381 1010 l 229 1010 l 229 996 l 393 779 l 460 779 z "},"Ὕ":{"ha":1665,"x_min":0,"x_max":0,"o":"m 531 1010 l 902 318 l 902 0 l 1174 0 l 1174 318 l 1545 1010 l 1239 1010 l 1042 600 l 1034 600 l 836 1010 z m 217 779 l 280 779 l 446 996 l 446 1010 l 294 1010 l 217 799 z m 109 765 l 170 840 b 118 943 127 860 119 898 l 118 1010 l 0 1010 l 0 939 b 109 765 0 846 56 787 z "},"Ὗ":{"ha":1570,"x_min":0,"x_max":0,"o":"m 436 1010 l 807 318 l 807 0 l 1079 0 l 1079 318 l 1450 1010 l 1144 1010 l 947 600 l 939 600 l 742 1010 z m 322 1184 b 280 1126 322 1152 304 1126 b 109 1168 223 1126 168 1168 b -6 1044 41 1168 -6 1109 l 97 1014 b 138 1073 97 1046 112 1073 b 310 1030 199 1073 237 1030 b 424 1152 377 1030 424 1087 z m 164 935 b 276 793 164 852 223 809 l 331 854 b 280 941 284 868 280 909 l 280 994 l 164 994 z "},"Ῠ":{"ha":1061,"x_min":0,"x_max":0,"o":"m 24 1010 l 395 318 l 395 0 l 667 0 l 667 318 l 1038 1010 l 732 1010 l 535 600 l 527 600 l 329 1010 z m 629 1282 b 531 1199 629 1239 601 1199 b 430 1282 457 1199 430 1241 l 260 1282 b 531 1071 260 1154 364 1071 b 801 1282 696 1071 800 1154 z "},"Ῡ":{"ha":1061,"x_min":0,"x_max":0,"o":"m 24 1010 l 395 318 l 395 0 l 667 0 l 667 318 l 1038 1010 l 732 1010 l 535 600 l 527 600 l 329 1010 z m 777 1263 l 284 1263 l 284 1138 l 777 1138 z "},"Ὺ":{"ha":1383,"x_min":0,"x_max":0,"o":"m 249 1010 l 619 318 l 619 0 l 892 0 l 892 318 l 1263 1010 l 957 1010 l 760 600 l 752 600 l 554 1010 z m 219 779 l 282 779 l 282 803 l 205 1010 l 55 1010 l 55 996 z "},"Ύ":{"ha":1373,"x_min":0,"x_max":0,"o":"m 239 1010 l 610 318 l 610 0 l 882 0 l 882 318 l 1253 1010 l 947 1010 l 750 600 l 742 600 l 545 1010 z m -101 852 l 32 852 l 195 1069 l 195 1083 l -22 1083 l -101 876 z "},"":{"ha":1061,"x_min":0,"x_max":0,"o":"m 24 1010 l 395 318 l 395 17 b 387 -144 374 -27 370 -89 b 568 -274 412 -227 477 -274 b 687 -245 621 -274 660 -258 l 655 -122 b 614 -130 643 -124 631 -130 b 568 -79 587 -130 568 -112 b 667 0 568 -39 603 -20 l 667 318 l 1038 1010 l 732 1010 l 535 600 l 527 600 l 329 1010 z "},"Z":{"ha":965,"x_min":0,"x_max":0,"o":"m 69 0 l 894 0 l 894 221 l 418 221 l 896 858 l 896 1010 l 71 1010 l 71 789 l 546 789 l 69 152 z "},"Ź":{"ha":965,"x_min":0,"x_max":0,"o":"m 69 0 l 894 0 l 894 221 l 418 221 l 896 858 l 896 1010 l 71 1010 l 71 789 l 546 789 l 69 152 z m 395 1105 l 574 1105 l 722 1326 l 489 1326 z "},"Ż":{"ha":965,"x_min":0,"x_max":0,"o":"m 69 0 l 894 0 l 894 221 l 418 221 l 896 858 l 896 1010 l 71 1010 l 71 789 l 546 789 l 69 152 z m 485 1089 b 619 1213 559 1089 619 1145 b 485 1338 619 1282 559 1338 b 351 1213 411 1338 351 1282 b 485 1089 351 1145 411 1089 z "},"Ž":{"ha":965,"x_min":0,"x_max":0,"o":"m 69 0 l 894 0 l 894 221 l 418 221 l 896 858 l 896 1010 l 71 1010 l 71 789 l 546 789 l 69 152 z m 389 1332 l 164 1332 l 164 1326 l 391 1101 l 580 1101 l 807 1326 l 807 1332 l 582 1332 l 485 1223 z "},"Ẑ":{"ha":965,"x_min":0,"x_max":0,"o":"m 69 0 l 894 0 l 894 221 l 418 221 l 896 858 l 896 1010 l 71 1010 l 71 789 l 546 789 l 69 152 z m 582 1101 l 807 1101 l 807 1107 l 580 1332 l 391 1332 l 164 1107 l 164 1101 l 389 1101 l 485 1209 z "},"Ẓ":{"ha":965,"x_min":0,"x_max":0,"o":"m 69 0 l 894 0 l 894 221 l 418 221 l 896 858 l 896 1010 l 71 1010 l 71 789 l 546 789 l 69 152 z m 483 -306 b 618 -182 557 -306 618 -250 b 483 -57 618 -113 557 -57 b 349 -182 409 -57 349 -113 b 483 -306 349 -250 409 -306 z "},"Ẕ":{"ha":965,"x_min":0,"x_max":0,"o":"m 69 0 l 894 0 l 894 221 l 418 221 l 896 858 l 896 1010 l 71 1010 l 71 789 l 546 789 l 69 152 z m 730 -127 l 237 -127 l 237 -252 l 730 -252 z "},"Ȥ":{"ha":965,"x_min":0,"x_max":0,"o":"m 71 789 l 554 789 l 69 152 l 69 0 l 586 0 b 694 -128 680 0 695 -59 l 694 -189 l 913 -189 l 913 -79 b 586 221 914 110 800 221 l 410 221 l 896 858 l 896 1010 l 71 1010 z "},"Ƶ":{"ha":965,"x_min":0,"x_max":0,"o":"m 69 0 l 894 0 l 894 221 l 418 221 l 603 468 l 767 468 l 767 614 l 712 614 l 896 858 l 896 1010 l 71 1010 l 71 789 l 546 789 l 415 614 l 237 614 l 237 468 l 306 468 l 69 152 z "},"Ζ":{"ha":965,"x_min":0,"x_max":0,"o":"m 69 0 l 894 0 l 894 221 l 418 221 l 896 858 l 896 1010 l 71 1010 l 71 789 l 546 789 l 69 152 z "},"Ɀ":{"ha":965,"x_min":0,"x_max":0,"o":"m 773 -296 b 896 -272 821 -296 862 -286 l 896 -67 b 791 -83 862 -79 829 -83 b 399 182 655 -83 574 103 l 884 874 l 884 1010 l 69 1010 l 69 795 l 535 795 l 67 138 l 67 0 l 144 0 b 773 -296 446 0 491 -296 z "},"a":{"ha":821,"x_min":0,"x_max":0,"o":"m 280 -12 b 499 107 379 -12 453 22 l 505 107 l 505 0 l 760 0 l 760 519 b 410 767 760 659 627 767 b 63 511 184 767 73 649 l 314 511 b 406 580 320 558 355 580 b 487 519 454 580 487 558 l 487 517 b 312 450 487 473 439 459 b 34 209 155 438 34 375 b 280 -12 34 58 135 -12 z m 369 160 b 290 225 323 160 290 182 b 381 304 290 264 318 294 b 489 331 424 311 461 320 l 489 268 b 369 160 489 199 431 160 z "},"á":{"ha":821,"x_min":0,"x_max":0,"o":"m 280 -12 b 499 107 379 -12 453 22 l 505 107 l 505 0 l 760 0 l 760 519 b 410 767 760 659 627 767 b 63 511 184 767 73 649 l 314 511 b 406 580 320 558 355 580 b 487 519 454 580 487 558 l 487 517 b 312 450 487 473 439 459 b 34 209 155 438 34 375 b 280 -12 34 58 135 -12 z m 327 852 l 507 852 l 655 1073 l 422 1073 z m 369 160 b 290 225 323 160 290 182 b 381 304 290 264 318 294 b 489 331 424 311 461 320 l 489 268 b 369 160 489 199 431 160 z "},"ă":{"ha":821,"x_min":0,"x_max":0,"o":"m 280 -12 b 499 107 379 -12 453 22 l 505 107 l 505 0 l 760 0 l 760 519 b 410 767 760 659 627 767 b 63 511 184 767 73 649 l 314 511 b 406 580 320 558 355 580 b 487 519 454 580 487 558 l 487 517 b 312 450 487 473 439 459 b 34 209 155 438 34 375 b 280 -12 34 58 135 -12 z m 517 1030 b 418 947 516 986 489 947 b 318 1030 345 947 317 988 l 148 1030 b 418 819 147 902 252 819 b 689 1030 583 819 688 902 z m 369 160 b 290 225 323 160 290 182 b 381 304 290 264 318 294 b 489 331 424 311 461 320 l 489 268 b 369 160 489 199 431 160 z "},"ắ":{"ha":821,"x_min":0,"x_max":0,"o":"m 280 -12 b 499 107 379 -12 453 22 l 505 107 l 505 0 l 760 0 l 760 519 b 410 767 760 659 627 767 b 63 511 184 767 73 649 l 314 511 b 406 580 320 558 355 580 b 487 519 454 580 487 558 l 487 517 b 312 450 487 473 439 459 b 34 209 155 438 34 375 b 280 -12 34 58 135 -12 z m 535 1004 b 416 927 534 967 503 927 b 298 1004 331 927 297 967 l 148 1004 b 416 829 147 900 252 829 b 689 1004 581 829 688 900 z m 369 160 b 290 225 323 160 290 182 b 381 304 290 264 318 294 b 489 331 424 311 461 320 l 489 268 b 369 160 489 199 431 160 z m 347 992 l 481 992 l 612 1113 l 444 1113 z "},"ặ":{"ha":821,"x_min":0,"x_max":0,"o":"m 280 -12 b 499 107 379 -12 453 22 l 505 107 l 505 0 l 760 0 l 760 519 b 410 767 760 659 627 767 b 63 511 184 767 73 649 l 314 511 b 406 580 320 558 355 580 b 487 519 454 580 487 558 l 487 517 b 312 450 487 473 439 459 b 34 209 155 438 34 375 b 280 -12 34 58 135 -12 z m 517 1030 b 418 947 516 986 489 947 b 318 1030 345 947 317 988 l 148 1030 b 418 819 147 902 252 819 b 689 1030 583 819 688 902 z m 408 -306 b 543 -182 482 -306 543 -250 b 408 -57 543 -113 482 -57 b 274 -182 334 -57 274 -113 b 408 -306 274 -250 334 -306 z m 369 160 b 290 225 323 160 290 182 b 381 304 290 264 318 294 b 489 331 424 311 461 320 l 489 268 b 369 160 489 199 431 160 z "},"ằ":{"ha":821,"x_min":0,"x_max":0,"o":"m 280 -12 b 499 107 379 -12 453 22 l 505 107 l 505 0 l 760 0 l 760 519 b 410 767 760 659 627 767 b 63 511 184 767 73 649 l 314 511 b 406 580 320 558 355 580 b 487 519 454 580 487 558 l 487 517 b 312 450 487 473 439 459 b 34 209 155 438 34 375 b 280 -12 34 58 135 -12 z m 535 1006 b 416 929 534 969 501 929 b 298 1006 331 929 297 969 l 148 1006 b 416 833 147 906 252 833 b 689 1006 583 833 688 906 z m 369 160 b 290 225 323 160 290 182 b 381 304 290 264 318 294 b 489 331 424 311 461 320 l 489 268 b 369 160 489 199 431 160 z m 359 992 l 489 992 l 395 1113 l 227 1113 z "},"ẳ":{"ha":821,"x_min":0,"x_max":0,"o":"m 280 -12 b 499 107 379 -12 453 22 l 505 107 l 505 0 l 760 0 l 760 519 b 410 767 760 659 627 767 b 63 511 184 767 73 649 l 314 511 b 406 580 320 558 355 580 b 487 519 454 580 487 558 l 487 517 b 312 450 487 473 439 459 b 34 209 155 438 34 375 b 280 -12 34 58 135 -12 z m 537 982 b 414 913 538 945 502 913 b 292 982 328 913 293 943 l 138 982 b 414 811 139 878 244 811 b 692 982 585 811 693 878 z m 481 1010 l 481 1038 b 588 1111 536 1044 589 1065 b 320 1219 589 1182 496 1219 l 314 1134 b 406 1099 368 1134 407 1130 b 310 1069 407 1083 378 1071 l 329 1010 z m 369 160 b 290 225 323 160 290 182 b 381 304 290 264 318 294 b 489 331 424 311 461 320 l 489 268 b 369 160 489 199 431 160 z "},"ẵ":{"ha":821,"x_min":0,"x_max":0,"o":"m 280 -12 b 499 107 379 -12 453 22 l 505 107 l 505 0 l 760 0 l 760 519 b 410 767 760 659 627 767 b 63 511 184 767 73 649 l 314 511 b 406 580 320 558 355 580 b 487 519 454 580 487 558 l 487 517 b 312 450 487 473 439 459 b 34 209 155 438 34 375 b 280 -12 34 58 135 -12 z m 533 982 b 414 915 532 943 497 915 b 296 982 327 915 295 945 l 144 982 b 414 809 144 878 250 809 b 687 982 580 809 686 878 z m 519 1201 b 479 1142 518 1168 499 1142 b 306 1184 418 1142 364 1184 b 191 1061 238 1184 191 1126 l 292 1032 b 335 1089 291 1065 313 1089 b 509 1048 394 1089 434 1048 b 623 1170 574 1048 623 1107 z m 369 160 b 290 225 323 160 290 182 b 381 304 290 264 318 294 b 489 331 424 311 461 320 l 489 268 b 369 160 489 199 431 160 z "},"ǎ":{"ha":821,"x_min":0,"x_max":0,"o":"m 280 -12 b 499 107 379 -12 453 22 l 505 107 l 505 0 l 760 0 l 760 519 b 410 767 760 659 627 767 b 63 511 184 767 73 649 l 314 511 b 406 580 320 558 355 580 b 487 519 454 580 487 558 l 487 517 b 312 450 487 473 439 459 b 34 209 155 438 34 375 b 280 -12 34 58 135 -12 z m 322 1079 l 97 1079 l 97 1073 l 324 848 l 513 848 l 740 1073 l 740 1079 l 515 1079 l 418 971 z m 369 160 b 290 225 323 160 290 182 b 381 304 290 264 318 294 b 489 331 424 311 461 320 l 489 268 b 369 160 489 199 431 160 z "},"â":{"ha":821,"x_min":0,"x_max":0,"o":"m 280 -12 b 499 107 379 -12 453 22 l 505 107 l 505 0 l 760 0 l 760 519 b 410 767 760 659 627 767 b 63 511 184 767 73 649 l 314 511 b 406 580 320 558 355 580 b 487 519 454 580 487 558 l 487 517 b 312 450 487 473 439 459 b 34 209 155 438 34 375 b 280 -12 34 58 135 -12 z m 515 848 l 740 848 l 740 854 l 513 1079 l 324 1079 l 97 854 l 97 848 l 322 848 l 418 957 z m 369 160 b 290 225 323 160 290 182 b 381 304 290 264 318 294 b 489 331 424 311 461 320 l 489 268 b 369 160 489 199 431 160 z "},"ấ":{"ha":821,"x_min":0,"x_max":0,"o":"m 280 -12 b 499 107 379 -12 453 22 l 505 107 l 505 0 l 760 0 l 760 519 b 410 767 760 659 627 767 b 63 511 184 767 73 649 l 314 511 b 406 580 320 558 355 580 b 487 519 454 580 487 558 l 487 517 b 312 450 487 473 439 459 b 34 209 155 438 34 375 b 280 -12 34 58 135 -12 z m 160 833 l 316 833 l 416 902 l 515 833 l 673 833 l 473 969 l 357 969 z m 621 898 l 752 898 l 925 1087 l 750 1087 z m 369 160 b 290 225 323 160 290 182 b 381 304 290 264 318 294 b 489 331 424 311 461 320 l 489 268 b 369 160 489 199 431 160 z "},"ậ":{"ha":821,"x_min":0,"x_max":0,"o":"m 280 -12 b 499 107 379 -12 453 22 l 505 107 l 505 0 l 760 0 l 760 519 b 410 767 760 659 627 767 b 63 511 184 767 73 649 l 314 511 b 406 580 320 558 355 580 b 487 519 454 580 487 558 l 487 517 b 312 450 487 473 439 459 b 34 209 155 438 34 375 b 280 -12 34 58 135 -12 z m 515 848 l 740 848 l 740 854 l 513 1079 l 324 1079 l 97 854 l 97 848 l 322 848 l 418 957 z m 408 -306 b 543 -182 482 -306 543 -250 b 408 -57 543 -113 482 -57 b 274 -182 334 -57 274 -113 b 408 -306 274 -250 334 -306 z m 369 160 b 290 225 323 160 290 182 b 381 304 290 264 318 294 b 489 331 424 311 461 320 l 489 268 b 369 160 489 199 431 160 z "},"ầ":{"ha":821,"x_min":0,"x_max":0,"o":"m 280 -12 b 499 107 379 -12 453 22 l 505 107 l 505 0 l 760 0 l 760 519 b 410 767 760 659 627 767 b 63 511 184 767 73 649 l 314 511 b 406 580 320 558 355 580 b 487 519 454 580 487 558 l 487 517 b 312 450 487 473 439 459 b 34 209 155 438 34 375 b 280 -12 34 58 135 -12 z m 475 965 l 359 965 l 162 829 l 318 829 l 418 898 l 517 829 l 675 829 z m 83 1081 l -89 1081 l 85 894 l 213 894 z m 369 160 b 290 225 323 160 290 182 b 381 304 290 264 318 294 b 489 331 424 311 461 320 l 489 268 b 369 160 489 199 431 160 z "},"ẩ":{"ha":821,"x_min":0,"x_max":0,"o":"m 280 -12 b 499 107 379 -12 453 22 l 505 107 l 505 0 l 760 0 l 760 519 b 410 767 760 659 627 767 b 63 511 184 767 73 649 l 314 511 b 406 580 320 558 355 580 b 487 519 454 580 487 558 l 487 517 b 312 450 487 473 439 459 b 34 209 155 438 34 375 b 280 -12 34 58 135 -12 z m 732 913 l 732 945 b 821 1022 775 953 821 979 b 598 1134 821 1095 742 1134 l 592 1046 b 671 1010 637 1046 671 1040 b 590 977 671 992 647 979 l 606 913 z m 472 969 l 361 969 l 162 833 l 322 833 l 418 894 l 511 833 l 671 833 z m 369 160 b 290 225 323 160 290 182 b 381 304 290 264 318 294 b 489 331 424 311 461 320 l 489 268 b 369 160 489 199 431 160 z "},"ẫ":{"ha":821,"x_min":0,"x_max":0,"o":"m 280 -12 b 499 107 379 -12 453 22 l 505 107 l 505 0 l 760 0 l 760 519 b 410 767 760 659 627 767 b 63 511 184 767 73 649 l 314 511 b 406 580 320 558 355 580 b 487 519 454 580 487 558 l 487 517 b 312 450 487 473 439 459 b 34 209 155 438 34 375 b 280 -12 34 58 135 -12 z m 481 981 l 357 981 l 162 838 l 326 838 l 418 908 l 515 838 l 675 838 z m 517 1144 b 497 1089 516 1119 512 1089 b 341 1128 451 1089 388 1128 b 260 1026 288 1128 260 1075 l 343 1002 b 365 1048 343 1028 347 1048 b 521 1006 412 1048 461 1006 b 602 1113 574 1006 601 1059 z m 369 160 b 290 225 323 160 290 182 b 381 304 290 264 318 294 b 489 331 424 311 461 320 l 489 268 b 369 160 489 199 431 160 z "},"ȁ":{"ha":821,"x_min":0,"x_max":0,"o":"m 280 -12 b 499 107 379 -12 453 22 l 505 107 l 505 0 l 760 0 l 760 519 b 410 767 760 659 627 767 b 63 511 184 767 73 649 l 314 511 b 406 580 320 558 355 580 b 487 519 454 580 487 558 l 487 517 b 312 450 487 473 439 459 b 34 209 155 438 34 375 b 280 -12 34 58 135 -12 z m 204 852 l 384 852 l 289 1073 l 56 1073 z m 472 852 l 646 852 l 596 1073 l 376 1073 z m 369 160 b 290 225 323 160 290 182 b 381 304 290 264 318 294 b 489 331 424 311 461 320 l 489 268 b 369 160 489 199 431 160 z "},"ä":{"ha":821,"x_min":0,"x_max":0,"o":"m 280 -12 b 499 107 379 -12 453 22 l 505 107 l 505 0 l 760 0 l 760 519 b 410 767 760 659 627 767 b 63 511 184 767 73 649 l 314 511 b 406 580 320 558 355 580 b 487 519 454 580 487 558 l 487 517 b 312 450 487 473 439 459 b 34 209 155 438 34 375 b 280 -12 34 58 135 -12 z m 262 846 b 381 961 327 846 381 898 b 262 1075 381 1024 327 1075 b 142 961 195 1075 142 1024 b 262 846 142 898 195 846 z m 576 846 b 694 961 641 846 694 898 b 576 1075 694 1024 641 1075 b 456 961 509 1075 456 1024 b 576 846 456 898 509 846 z m 369 160 b 290 225 323 160 290 182 b 381 304 290 264 318 294 b 489 331 424 311 461 320 l 489 268 b 369 160 489 199 431 160 z "},"ǟ":{"ha":821,"x_min":0,"x_max":0,"o":"m 280 -12 b 499 107 379 -12 453 22 l 505 107 l 505 0 l 760 0 l 760 519 b 410 767 760 659 627 767 b 63 511 184 767 73 649 l 314 511 b 406 580 320 558 355 580 b 487 519 454 580 487 558 l 487 517 b 312 450 487 473 439 459 b 34 209 155 438 34 375 b 280 -12 34 58 135 -12 z m 665 1263 l 172 1263 l 172 1138 l 665 1138 z m 262 846 b 381 961 327 846 381 898 b 262 1075 381 1024 327 1075 b 142 961 195 1075 142 1024 b 262 846 142 898 195 846 z m 576 846 b 694 961 641 846 694 898 b 576 1075 694 1024 641 1075 b 456 961 509 1075 456 1024 b 576 846 456 898 509 846 z m 369 160 b 290 225 323 160 290 182 b 381 304 290 264 318 294 b 489 331 424 311 461 320 l 489 268 b 369 160 489 199 431 160 z "},"ȧ":{"ha":821,"x_min":0,"x_max":0,"o":"m 280 -12 b 499 107 379 -12 453 22 l 505 107 l 505 0 l 760 0 l 760 519 b 410 767 760 659 627 767 b 63 511 184 767 73 649 l 314 511 b 406 580 320 558 355 580 b 487 519 454 580 487 558 l 487 517 b 312 450 487 473 439 459 b 34 209 155 438 34 375 b 280 -12 34 58 135 -12 z m 418 836 b 552 961 492 836 552 892 b 418 1085 552 1029 492 1085 b 284 961 344 1085 284 1029 b 418 836 284 892 344 836 z m 369 160 b 290 225 323 160 290 182 b 381 304 290 264 318 294 b 489 331 424 311 461 320 l 489 268 b 369 160 489 199 431 160 z "},"ạ":{"ha":821,"x_min":0,"x_max":0,"o":"m 280 -12 b 499 107 379 -12 453 22 l 505 107 l 505 0 l 760 0 l 760 519 b 410 767 760 659 627 767 b 63 511 184 767 73 649 l 314 511 b 406 580 320 558 355 580 b 487 519 454 580 487 558 l 487 517 b 312 450 487 473 439 459 b 34 209 155 438 34 375 b 280 -12 34 58 135 -12 z m 408 -306 b 543 -182 482 -306 543 -250 b 408 -57 543 -113 482 -57 b 274 -182 334 -57 274 -113 b 408 -306 274 -250 334 -306 z m 369 160 b 290 225 323 160 290 182 b 381 304 290 264 318 294 b 489 331 424 311 461 320 l 489 268 b 369 160 489 199 431 160 z "},"ǡ":{"ha":821,"x_min":0,"x_max":0,"o":"m 280 -12 b 499 107 379 -12 453 22 l 505 107 l 505 0 l 760 0 l 760 519 b 410 767 760 659 627 767 b 63 511 184 767 73 649 l 314 511 b 406 580 320 558 355 580 b 487 519 454 580 487 558 l 487 517 b 312 450 487 473 439 459 b 34 209 155 438 34 375 b 280 -12 34 58 135 -12 z m 665 1257 l 172 1257 l 172 1132 l 665 1132 z m 419 840 b 539 954 485 840 539 892 b 419 1069 539 1018 485 1069 b 298 954 352 1069 298 1018 b 419 840 298 892 352 840 z m 369 160 b 290 225 323 160 290 182 b 381 304 290 264 318 294 b 489 331 424 311 461 320 l 489 268 b 369 160 489 199 431 160 z "},"à":{"ha":821,"x_min":0,"x_max":0,"o":"m 280 -12 b 499 107 379 -12 453 22 l 505 107 l 505 0 l 760 0 l 760 519 b 410 767 760 659 627 767 b 63 511 184 767 73 649 l 314 511 b 406 580 320 558 355 580 b 487 519 454 580 487 558 l 487 517 b 312 450 487 473 439 459 b 34 209 155 438 34 375 b 280 -12 34 58 135 -12 z m 329 852 l 509 852 l 414 1073 l 182 1073 z m 369 160 b 290 225 323 160 290 182 b 381 304 290 264 318 294 b 489 331 424 311 461 320 l 489 268 b 369 160 489 199 431 160 z "},"ả":{"ha":821,"x_min":0,"x_max":0,"o":"m 280 -12 b 499 107 379 -12 453 22 l 505 107 l 505 0 l 760 0 l 760 519 b 410 767 760 659 627 767 b 63 511 184 767 73 649 l 314 511 b 406 580 320 558 355 580 b 487 519 454 580 487 558 l 487 517 b 312 450 487 473 439 459 b 34 209 155 438 34 375 b 280 -12 34 58 135 -12 z m 513 870 l 513 909 b 619 1002 567 917 620 947 b 310 1138 620 1089 512 1138 l 304 1030 b 397 988 358 1030 398 1024 b 300 947 398 967 370 949 l 318 870 z m 369 160 b 290 225 323 160 290 182 b 381 304 290 264 318 294 b 489 331 424 311 461 320 l 489 268 b 369 160 489 199 431 160 z "},"ȃ":{"ha":821,"x_min":0,"x_max":0,"o":"m 280 -12 b 499 107 379 -12 453 22 l 505 107 l 505 0 l 760 0 l 760 519 b 410 767 760 659 627 767 b 63 511 184 767 73 649 l 314 511 b 406 580 320 558 355 580 b 487 519 454 580 487 558 l 487 517 b 312 450 487 473 439 459 b 34 209 155 438 34 375 b 280 -12 34 58 135 -12 z m 146 876 l 318 876 b 416 957 317 917 344 957 b 517 876 488 957 516 917 l 689 876 b 416 1095 688 1004 581 1095 b 146 876 250 1095 145 1004 z m 369 160 b 290 225 323 160 290 182 b 381 304 290 264 318 294 b 489 331 424 311 461 320 l 489 268 b 369 160 489 199 431 160 z "},"ā":{"ha":821,"x_min":0,"x_max":0,"o":"m 280 -12 b 499 107 379 -12 453 22 l 505 107 l 505 0 l 760 0 l 760 519 b 410 767 760 659 627 767 b 63 511 184 767 73 649 l 314 511 b 406 580 320 558 355 580 b 487 519 454 580 487 558 l 487 517 b 312 450 487 473 439 459 b 34 209 155 438 34 375 b 280 -12 34 58 135 -12 z m 665 1010 l 172 1010 l 172 886 l 665 886 z m 369 160 b 290 225 323 160 290 182 b 381 304 290 264 318 294 b 489 331 424 311 461 320 l 489 268 b 369 160 489 199 431 160 z "},"ą":{"ha":821,"x_min":0,"x_max":0,"o":"m 280 -12 b 499 107 379 -12 453 22 l 505 107 l 505 44 b 479 -144 470 3 458 -75 b 661 -274 505 -227 570 -274 b 779 -245 714 -274 753 -258 l 748 -122 b 706 -130 735 -124 724 -130 b 661 -79 680 -130 660 -112 b 760 0 660 -39 696 -20 l 760 519 b 410 767 760 659 627 767 b 63 511 184 767 73 649 l 314 511 b 406 580 320 558 355 580 b 487 519 454 580 487 558 l 487 517 b 312 450 487 473 439 459 b 34 209 155 438 34 375 b 280 -12 34 58 135 -12 z m 369 160 b 290 225 323 160 290 182 b 381 304 290 264 318 294 b 489 331 424 311 461 320 l 489 268 b 369 160 489 199 431 160 z "},"ẚ":{"ha":821,"x_min":0,"x_max":0,"o":"m 280 -12 b 499 107 379 -12 453 22 l 505 107 l 505 0 l 760 0 l 760 519 b 410 767 760 659 627 767 b 63 511 184 767 73 649 l 314 511 b 406 580 320 558 355 580 b 487 519 454 580 487 558 l 487 517 b 312 450 487 473 439 459 b 34 209 155 438 34 375 b 280 -12 34 58 135 -12 z m 359 862 b 499 994 436 862 499 915 b 359 1132 499 1075 436 1132 l 359 1037 b 404 994 385 1037 404 1019 b 359 955 404 972 385 955 z m 369 160 b 290 225 323 160 290 182 b 381 304 290 264 318 294 b 489 331 424 311 461 320 l 489 268 b 369 160 489 199 431 160 z "},"å":{"ha":821,"x_min":0,"x_max":0,"o":"m 280 -12 b 499 107 379 -12 453 22 l 505 107 l 505 0 l 760 0 l 760 519 b 410 767 760 659 627 767 b 63 511 184 767 73 649 l 314 511 b 406 580 320 558 355 580 b 487 519 454 580 487 558 l 487 517 b 312 450 487 473 439 459 b 34 209 155 438 34 375 b 280 -12 34 58 135 -12 z m 418 836 b 580 994 507 836 580 908 b 418 1152 580 1081 507 1152 b 256 994 329 1152 256 1081 b 418 836 256 908 329 836 z m 369 160 b 290 225 323 160 290 182 b 381 304 290 264 318 294 b 489 331 424 311 461 320 l 489 268 b 369 160 489 199 431 160 z m 418 933 b 353 994 382 933 353 961 b 418 1055 353 1028 382 1055 b 483 994 454 1056 483 1028 b 418 933 483 961 454 934 z "},"ǻ":{"ha":821,"x_min":0,"x_max":0,"o":"m 280 -12 b 499 107 379 -12 453 22 l 505 107 l 505 0 l 760 0 l 760 519 b 410 767 760 659 627 767 b 63 511 184 767 73 649 l 314 511 b 406 580 320 558 355 580 b 487 519 454 580 487 558 l 487 517 b 312 450 487 473 439 459 b 34 209 155 438 34 375 b 280 -12 34 58 135 -12 z m 418 820 b 576 964 506 820 576 885 b 418 1109 576 1044 506 1109 b 260 964 331 1109 260 1044 b 418 820 260 885 331 820 z m 339 1160 l 499 1160 l 647 1316 l 438 1316 z m 369 160 b 290 225 323 160 290 182 b 381 304 290 264 318 294 b 489 331 424 311 461 320 l 489 268 b 369 160 489 199 431 160 z m 418 908 b 355 964 383 908 355 933 b 418 1020 355 995 384 1020 b 481 964 453 1021 481 995 b 418 908 481 933 452 908 z "},"":{"ha":821,"x_min":0,"x_max":0,"o":"m 280 -12 b 499 107 379 -12 453 22 l 505 107 l 505 44 b 479 -144 470 3 458 -75 b 661 -274 505 -227 570 -274 b 779 -245 714 -274 753 -258 l 748 -122 b 706 -130 735 -124 724 -130 b 661 -79 680 -130 660 -112 b 760 0 660 -39 696 -20 l 760 519 b 410 767 760 659 627 767 b 63 511 184 767 73 649 l 314 511 b 406 580 320 558 355 580 b 487 519 454 580 487 558 l 487 517 b 312 450 487 473 439 459 b 34 209 155 438 34 375 b 280 -12 34 58 135 -12 z m 418 836 b 580 994 507 836 580 908 b 418 1152 580 1081 507 1152 b 256 994 329 1152 256 1081 b 418 836 256 908 329 836 z m 369 160 b 290 225 323 160 290 182 b 381 304 290 264 318 294 b 489 331 424 311 461 320 l 489 268 b 369 160 489 199 431 160 z m 418 933 b 353 994 382 933 353 961 b 418 1055 353 1028 382 1055 b 483 994 454 1056 483 1028 b 418 933 483 961 454 934 z "},"ḁ":{"ha":821,"x_min":0,"x_max":0,"o":"m 280 -12 b 499 107 379 -12 453 22 l 505 107 l 505 0 l 760 0 l 760 519 b 410 767 760 659 627 767 b 63 511 184 767 73 649 l 314 511 b 406 580 320 558 355 580 b 487 519 454 580 487 558 l 487 517 b 312 450 487 473 439 459 b 34 209 155 438 34 375 b 280 -12 34 58 135 -12 z m 268 -146 b 408 -264 268 -213 327 -264 b 545 -146 485 -264 545 -215 b 408 -30 545 -83 485 -30 b 268 -146 327 -30 268 -83 z m 369 160 b 290 225 323 160 290 182 b 381 304 290 264 318 294 b 489 331 424 311 461 320 l 489 268 b 369 160 489 199 431 160 z m 359 -146 b 408 -105 359 -122 379 -105 b 452 -146 434 -105 452 -122 b 408 -191 452 -174 434 -191 b 359 -146 379 -191 359 -174 z "},"ã":{"ha":821,"x_min":0,"x_max":0,"o":"m 280 -12 b 499 107 379 -12 453 22 l 505 107 l 505 0 l 760 0 l 760 519 b 410 767 760 659 627 767 b 63 511 184 767 73 649 l 314 511 b 406 580 320 558 355 580 b 487 519 454 580 487 558 l 487 517 b 312 450 487 473 439 459 b 34 209 155 438 34 375 b 280 -12 34 58 135 -12 z m 284 852 b 335 927 284 902 304 927 b 394 897 356 927 373 913 b 519 846 423 874 458 846 b 687 1059 611 847 685 920 l 554 1059 b 501 982 553 1012 539 983 b 445 1012 482 982 465 996 b 318 1063 415 1035 378 1064 b 150 852 224 1063 150 994 z m 369 160 b 290 225 323 160 290 182 b 381 304 290 264 318 294 b 489 331 424 311 461 320 l 489 268 b 369 160 489 199 431 160 z "},"ɐ":{"ha":821,"x_min":0,"x_max":0,"o":"m 541 769 b 322 651 442 769 367 736 l 316 651 l 316 758 l 61 758 l 61 239 b 410 -10 61 99 194 -10 b 758 247 637 -10 748 109 l 507 247 b 414 178 501 200 466 178 b 333 239 367 178 333 199 l 333 241 b 509 308 333 285 382 298 b 787 548 665 319 787 382 b 541 769 787 699 686 769 z m 452 598 b 531 533 498 598 531 575 b 440 454 531 494 503 464 b 331 426 397 447 360 438 l 331 489 b 452 598 331 558 390 598 z "},"а":{"ha":821,"x_min":0,"x_max":0,"o":"m 280 -12 b 499 107 379 -12 453 22 l 505 107 l 505 0 l 760 0 l 760 519 b 410 767 760 659 627 767 b 63 511 184 767 73 649 l 314 511 b 406 580 320 558 355 580 b 487 519 454 580 487 558 l 487 517 b 312 450 487 473 439 459 b 34 209 155 438 34 375 b 280 -12 34 58 135 -12 z m 369 160 b 290 225 323 160 290 182 b 381 304 290 264 318 294 b 489 331 424 311 461 320 l 489 268 b 369 160 489 199 431 160 z "},"ӑ":{"ha":821,"x_min":0,"x_max":0,"o":"m 280 -12 b 499 107 379 -12 453 22 l 505 107 l 505 0 l 760 0 l 760 519 b 410 767 760 659 627 767 b 63 511 184 767 73 649 l 314 511 b 406 580 320 558 355 580 b 487 519 454 580 487 558 l 487 517 b 312 450 487 473 439 459 b 34 209 155 438 34 375 b 280 -12 34 58 135 -12 z m 517 1030 b 418 947 516 986 489 947 b 318 1030 345 947 317 988 l 148 1030 b 418 819 147 902 252 819 b 689 1030 583 819 688 902 z m 369 160 b 290 225 323 160 290 182 b 381 304 290 264 318 294 b 489 331 424 311 461 320 l 489 268 b 369 160 489 199 431 160 z "},"ӓ":{"ha":821,"x_min":0,"x_max":0,"o":"m 280 -12 b 499 107 379 -12 453 22 l 505 107 l 505 0 l 760 0 l 760 519 b 410 767 760 659 627 767 b 63 511 184 767 73 649 l 314 511 b 406 580 320 558 355 580 b 487 519 454 580 487 558 l 487 517 b 312 450 487 473 439 459 b 34 209 155 438 34 375 b 280 -12 34 58 135 -12 z m 262 846 b 381 961 327 846 381 898 b 262 1075 381 1024 327 1075 b 142 961 195 1075 142 1024 b 262 846 142 898 195 846 z m 576 846 b 694 961 641 846 694 898 b 576 1075 694 1024 641 1075 b 456 961 509 1075 456 1024 b 576 846 456 898 509 846 z m 369 160 b 290 225 323 160 290 182 b 381 304 290 264 318 294 b 489 331 424 311 461 320 l 489 268 b 369 160 489 199 431 160 z "},"æ":{"ha":1259,"x_min":0,"x_max":0,"o":"m 868 -14 b 1217 245 1052 -14 1192 87 l 969 245 b 852 178 953 202 908 178 b 724 304 771 178 724 231 l 724 316 l 1217 316 l 1217 379 b 840 767 1217 620 1069 767 b 612 684 750 767 674 744 b 416 767 575 736 508 767 b 63 511 182 767 73 649 l 314 511 b 406 580 320 558 355 580 b 487 519 454 580 487 559 l 487 517 b 312 450 487 473 440 460 b 34 209 156 438 34 375 b 300 -12 34 59 135 -12 b 594 114 427 -12 546 30 l 597 114 b 868 -14 649 26 753 -14 z m 369 160 b 290 225 323 160 290 182 b 381 304 290 264 318 294 b 489 331 424 311 461 320 l 489 268 b 369 160 489 199 431 160 z m 724 466 b 846 576 726 531 779 576 b 967 466 913 576 965 531 z "},"ǣ":{"ha":1259,"x_min":0,"x_max":0,"o":"m 868 -14 b 1217 245 1052 -14 1192 87 l 969 245 b 852 178 953 202 908 178 b 724 304 771 178 724 231 l 724 316 l 1217 316 l 1217 379 b 840 767 1217 620 1069 767 b 612 684 750 767 674 744 b 416 767 575 736 508 767 b 63 511 182 767 73 649 l 314 511 b 406 580 320 558 355 580 b 487 519 454 580 487 559 l 487 517 b 312 450 487 473 440 460 b 34 209 156 438 34 375 b 300 -12 34 59 135 -12 b 594 114 427 -12 546 30 l 597 114 b 868 -14 649 26 753 -14 z m 858 1010 l 365 1010 l 365 886 l 858 886 z m 369 160 b 290 225 323 160 290 182 b 381 304 290 264 318 294 b 489 331 424 311 461 320 l 489 268 b 369 160 489 199 431 160 z m 724 466 b 846 576 726 531 779 576 b 967 466 913 576 965 531 z "},"ǽ":{"ha":1259,"x_min":0,"x_max":0,"o":"m 868 -14 b 1217 245 1052 -14 1192 87 l 969 245 b 852 178 953 202 908 178 b 724 304 771 178 724 231 l 724 316 l 1217 316 l 1217 379 b 840 767 1217 620 1069 767 b 612 684 750 767 674 744 b 416 767 575 736 508 767 b 63 511 182 767 73 649 l 314 511 b 406 580 320 558 355 580 b 487 519 454 580 487 559 l 487 517 b 312 450 487 473 440 460 b 34 209 156 438 34 375 b 300 -12 34 59 135 -12 b 594 114 427 -12 546 30 l 597 114 b 868 -14 649 26 753 -14 z m 521 852 l 700 852 l 848 1073 l 616 1073 z m 369 160 b 290 225 323 160 290 182 b 381 304 290 264 318 294 b 489 331 424 311 461 320 l 489 268 b 369 160 489 199 431 160 z m 724 466 b 846 576 726 531 779 576 b 967 466 913 576 965 531 z "},"ӕ":{"ha":1259,"x_min":0,"x_max":0,"o":"m 868 -14 b 1217 245 1052 -14 1192 87 l 969 245 b 852 178 953 202 908 178 b 724 304 771 178 724 231 l 724 316 l 1217 316 l 1217 379 b 840 767 1217 620 1069 767 b 612 684 750 767 674 744 b 416 767 575 736 508 767 b 63 511 182 767 73 649 l 314 511 b 406 580 320 558 355 580 b 487 519 454 580 487 559 l 487 517 b 312 450 487 473 440 460 b 34 209 156 438 34 375 b 300 -12 34 59 135 -12 b 594 114 427 -12 546 30 l 597 114 b 868 -14 649 26 753 -14 z m 369 160 b 290 225 323 160 290 182 b 381 304 290 264 318 294 b 489 331 424 311 461 320 l 489 268 b 369 160 489 199 431 160 z m 724 466 b 846 576 726 531 779 576 b 967 466 913 576 965 531 z "},"":{"ha":896,"x_min":0,"x_max":0,"o":"m 343 -10 b 554 124 450 -10 523 47 l 560 124 l 560 0 l 831 0 l 831 758 l 558 758 l 558 625 l 554 625 b 341 767 525 702 454 767 b 45 379 191 767 45 653 b 343 -10 45 116 182 -10 z m 444 199 b 326 379 369 199 326 266 b 444 558 326 491 369 558 b 564 379 519 558 564 491 b 444 199 564 268 519 199 z "},"":{"ha":896,"x_min":0,"x_max":0,"o":"m 343 -10 b 554 124 450 -10 523 47 l 560 124 l 560 0 l 831 0 l 831 758 l 558 758 l 558 625 l 554 625 b 341 767 525 702 454 767 b 45 379 191 767 45 653 b 343 -10 45 116 182 -10 z m 444 199 b 326 379 369 199 326 266 b 444 558 326 491 369 558 b 564 379 519 558 564 491 b 444 199 564 268 519 199 z m 367 852 l 546 852 l 694 1073 l 462 1073 z "},"":{"ha":896,"x_min":0,"x_max":0,"o":"m 343 -10 b 554 124 450 -10 523 47 l 560 124 l 560 0 l 831 0 l 831 758 l 558 758 l 558 625 l 554 625 b 341 767 525 702 454 767 b 45 379 191 767 45 653 b 343 -10 45 116 182 -10 z m 556 1030 b 458 947 556 986 528 947 b 357 1030 384 947 357 988 l 187 1030 b 458 819 187 902 291 819 b 728 1030 623 819 727 902 z m 444 199 b 326 379 369 199 326 266 b 444 558 326 491 369 558 b 564 379 519 558 564 491 b 444 199 564 268 519 199 z "},"":{"ha":896,"x_min":0,"x_max":0,"o":"m 343 -10 b 554 124 450 -10 523 47 l 560 124 l 560 0 l 831 0 l 831 758 l 558 758 l 558 625 l 554 625 b 341 767 525 702 454 767 b 45 379 191 767 45 653 b 343 -10 45 116 182 -10 z m 444 199 b 326 379 369 199 326 266 b 444 558 326 491 369 558 b 564 379 519 558 564 491 b 444 199 564 268 519 199 z m 574 1004 b 456 927 574 967 542 927 b 337 1004 370 927 337 967 l 187 1004 b 456 829 187 900 291 829 b 728 1004 621 829 727 900 z m 387 992 l 521 992 l 651 1113 l 483 1113 z "},"":{"ha":896,"x_min":0,"x_max":0,"o":"m 343 -10 b 554 124 450 -10 523 47 l 560 124 l 560 0 l 831 0 l 831 758 l 558 758 l 558 625 l 554 625 b 341 767 525 702 454 767 b 45 379 191 767 45 653 b 343 -10 45 116 182 -10 z m 556 1030 b 458 947 556 986 528 947 b 357 1030 384 947 357 988 l 187 1030 b 458 819 187 902 291 819 b 728 1030 623 819 727 902 z m 444 199 b 326 379 369 199 326 266 b 444 558 326 491 369 558 b 564 379 519 558 564 491 b 444 199 564 268 519 199 z m 448 -306 b 582 -182 522 -306 582 -250 b 448 -57 582 -113 522 -57 b 314 -182 374 -57 314 -113 b 448 -306 314 -250 374 -306 z "},"":{"ha":896,"x_min":0,"x_max":0,"o":"m 343 -10 b 554 124 450 -10 523 47 l 560 124 l 560 0 l 831 0 l 831 758 l 558 758 l 558 625 l 554 625 b 341 767 525 702 454 767 b 45 379 191 767 45 653 b 343 -10 45 116 182 -10 z m 444 199 b 326 379 369 199 326 266 b 444 558 326 491 369 558 b 564 379 519 558 564 491 b 444 199 564 268 519 199 z m 574 1006 b 456 929 574 969 540 929 b 337 1006 370 929 337 969 l 187 1006 b 456 833 187 906 291 833 b 728 1006 623 833 727 906 z m 399 992 l 529 992 l 434 1113 l 266 1113 z "},"":{"ha":896,"x_min":0,"x_max":0,"o":"m 343 -10 b 554 124 450 -10 523 47 l 560 124 l 560 0 l 831 0 l 831 758 l 558 758 l 558 625 l 554 625 b 341 767 525 702 454 767 b 45 379 191 767 45 653 b 343 -10 45 116 182 -10 z m 444 199 b 326 379 369 199 326 266 b 444 558 326 491 369 558 b 564 379 519 558 564 491 b 444 199 564 268 519 199 z m 576 982 b 454 913 577 945 542 913 b 331 982 368 913 332 943 l 178 982 b 454 811 179 878 283 811 b 732 982 624 811 733 878 z m 521 1010 l 521 1038 b 627 1111 575 1044 628 1065 b 359 1219 628 1182 536 1219 l 353 1134 b 446 1099 407 1134 447 1130 b 349 1069 447 1083 417 1071 l 369 1010 z "},"":{"ha":896,"x_min":0,"x_max":0,"o":"m 343 -10 b 554 124 450 -10 523 47 l 560 124 l 560 0 l 831 0 l 831 758 l 558 758 l 558 625 l 554 625 b 341 767 525 702 454 767 b 45 379 191 767 45 653 b 343 -10 45 116 182 -10 z m 444 199 b 326 379 369 199 326 266 b 444 558 326 491 369 558 b 564 379 519 558 564 491 b 444 199 564 268 519 199 z m 572 982 b 454 915 572 943 536 915 b 335 982 366 915 335 945 l 183 982 b 454 809 183 878 290 809 b 726 982 619 809 726 878 z m 558 1201 b 519 1142 558 1168 538 1142 b 345 1184 457 1142 404 1184 b 231 1061 278 1184 230 1126 l 331 1032 b 375 1089 331 1065 353 1089 b 548 1048 434 1089 473 1048 b 663 1170 613 1048 662 1107 z "},"":{"ha":896,"x_min":0,"x_max":0,"o":"m 343 -10 b 554 124 450 -10 523 47 l 560 124 l 560 0 l 831 0 l 831 758 l 558 758 l 558 625 l 554 625 b 341 767 525 702 454 767 b 45 379 191 767 45 653 b 343 -10 45 116 182 -10 z m 361 1079 l 136 1079 l 136 1073 l 363 848 l 552 848 l 779 1073 l 779 1079 l 554 1079 l 458 971 z m 444 199 b 326 379 369 199 326 266 b 444 558 326 491 369 558 b 564 379 519 558 564 491 b 444 199 564 268 519 199 z "},"":{"ha":896,"x_min":0,"x_max":0,"o":"m 343 -10 b 554 124 450 -10 523 47 l 560 124 l 560 0 l 831 0 l 831 758 l 558 758 l 558 625 l 554 625 b 341 767 525 702 454 767 b 45 379 191 767 45 653 b 343 -10 45 116 182 -10 z m 554 848 l 779 848 l 779 854 l 552 1079 l 363 1079 l 136 854 l 136 848 l 361 848 l 458 957 z m 444 199 b 326 379 369 199 326 266 b 444 558 326 491 369 558 b 564 379 519 558 564 491 b 444 199 564 268 519 199 z "},"":{"ha":896,"x_min":0,"x_max":0,"o":"m 343 -10 b 554 124 450 -10 523 47 l 560 124 l 560 0 l 831 0 l 831 758 l 558 758 l 558 625 l 554 625 b 341 767 525 702 454 767 b 45 379 191 767 45 653 b 343 -10 45 116 182 -10 z m 444 199 b 326 379 369 199 326 266 b 444 558 326 491 369 558 b 564 379 519 558 564 491 b 444 199 564 268 519 199 z m 199 833 l 355 833 l 456 902 l 554 833 l 712 833 l 513 969 l 397 969 z m 661 898 l 791 898 l 965 1087 l 789 1087 z "},"":{"ha":896,"x_min":0,"x_max":0,"o":"m 343 -10 b 554 124 450 -10 523 47 l 560 124 l 560 0 l 831 0 l 831 758 l 558 758 l 558 625 l 554 625 b 341 767 525 702 454 767 b 45 379 191 767 45 653 b 343 -10 45 116 182 -10 z m 554 848 l 779 848 l 779 854 l 552 1079 l 363 1079 l 136 854 l 136 848 l 361 848 l 458 957 z m 444 199 b 326 379 369 199 326 266 b 444 558 326 491 369 558 b 564 379 519 558 564 491 b 444 199 564 268 519 199 z m 448 -306 b 582 -182 522 -306 582 -250 b 448 -57 582 -113 522 -57 b 314 -182 374 -57 314 -113 b 448 -306 314 -250 374 -306 z "},"":{"ha":896,"x_min":0,"x_max":0,"o":"m 343 -10 b 554 124 450 -10 523 47 l 560 124 l 560 0 l 831 0 l 831 758 l 558 758 l 558 625 l 554 625 b 341 767 525 702 454 767 b 45 379 191 767 45 653 b 343 -10 45 116 182 -10 z m 444 199 b 326 379 369 199 326 266 b 444 558 326 491 369 558 b 564 379 519 558 564 491 b 444 199 564 268 519 199 z m 515 965 l 399 965 l 201 829 l 357 829 l 458 898 l 556 829 l 714 829 z m 122 1081 l -49 1081 l 124 894 l 253 894 z "},"":{"ha":896,"x_min":0,"x_max":0,"o":"m 343 -10 b 554 124 450 -10 523 47 l 560 124 l 560 0 l 831 0 l 831 758 l 558 758 l 558 625 l 554 625 b 341 767 525 702 454 767 b 45 379 191 767 45 653 b 343 -10 45 116 182 -10 z m 444 199 b 326 379 369 199 326 266 b 444 558 326 491 369 558 b 564 379 519 558 564 491 b 444 199 564 268 519 199 z m 771 913 l 771 945 b 860 1022 815 953 860 979 b 637 1134 860 1095 781 1134 l 631 1046 b 710 1010 677 1046 710 1040 b 629 977 710 992 687 979 l 645 913 z m 511 969 l 400 969 l 201 833 l 361 833 l 458 894 l 550 833 l 710 833 z "},"":{"ha":896,"x_min":0,"x_max":0,"o":"m 343 -10 b 554 124 450 -10 523 47 l 560 124 l 560 0 l 831 0 l 831 758 l 558 758 l 558 625 l 554 625 b 341 767 525 702 454 767 b 45 379 191 767 45 653 b 343 -10 45 116 182 -10 z m 444 199 b 326 379 369 199 326 266 b 444 558 326 491 369 558 b 564 379 519 558 564 491 b 444 199 564 268 519 199 z m 521 981 l 397 981 l 201 838 l 365 838 l 458 908 l 554 838 l 714 838 z m 556 1144 b 537 1089 556 1119 552 1089 b 381 1128 491 1089 428 1128 b 300 1026 327 1128 299 1075 l 383 1002 b 404 1048 382 1028 386 1048 b 560 1006 451 1048 501 1006 b 641 1113 613 1006 641 1059 z "},"":{"ha":896,"x_min":0,"x_max":0,"o":"m 343 -10 b 554 124 450 -10 523 47 l 560 124 l 560 0 l 831 0 l 831 758 l 558 758 l 558 625 l 554 625 b 341 767 525 702 454 767 b 45 379 191 767 45 653 b 343 -10 45 116 182 -10 z m 444 199 b 326 379 369 199 326 266 b 444 558 326 491 369 558 b 564 379 519 558 564 491 b 444 199 564 268 519 199 z m 244 852 l 423 852 l 328 1073 l 96 1073 z m 511 852 l 686 852 l 635 1073 l 415 1073 z "},"":{"ha":896,"x_min":0,"x_max":0,"o":"m 343 -10 b 554 124 450 -10 523 47 l 560 124 l 560 0 l 831 0 l 831 758 l 558 758 l 558 625 l 554 625 b 341 767 525 702 454 767 b 45 379 191 767 45 653 b 343 -10 45 116 182 -10 z m 444 199 b 326 379 369 199 326 266 b 444 558 326 491 369 558 b 564 379 519 558 564 491 b 444 199 564 268 519 199 z m 302 846 b 420 961 367 846 420 898 b 302 1075 420 1024 367 1075 b 182 961 235 1075 182 1024 b 302 846 182 898 235 846 z m 616 846 b 734 961 681 846 734 898 b 616 1075 734 1024 681 1075 b 495 961 548 1075 495 1024 b 616 846 495 898 548 846 z "},"":{"ha":896,"x_min":0,"x_max":0,"o":"m 343 -10 b 554 124 450 -10 523 47 l 560 124 l 560 0 l 831 0 l 831 758 l 558 758 l 558 625 l 554 625 b 341 767 525 702 454 767 b 45 379 191 767 45 653 b 343 -10 45 116 182 -10 z m 444 199 b 326 379 369 199 326 266 b 444 558 326 491 369 558 b 564 379 519 558 564 491 b 444 199 564 268 519 199 z m 704 1263 l 211 1263 l 211 1138 l 704 1138 z m 302 846 b 420 961 367 846 420 898 b 302 1075 420 1024 367 1075 b 182 961 235 1075 182 1024 b 302 846 182 898 235 846 z m 616 846 b 734 961 681 846 734 898 b 616 1075 734 1024 681 1075 b 495 961 548 1075 495 1024 b 616 846 495 898 548 846 z "},"":{"ha":896,"x_min":0,"x_max":0,"o":"m 343 -10 b 554 124 450 -10 523 47 l 560 124 l 560 0 l 831 0 l 831 758 l 558 758 l 558 625 l 554 625 b 341 767 525 702 454 767 b 45 379 191 767 45 653 b 343 -10 45 116 182 -10 z m 444 199 b 326 379 369 199 326 266 b 444 558 326 491 369 558 b 564 379 519 558 564 491 b 444 199 564 268 519 199 z m 458 836 b 592 961 532 836 592 892 b 458 1085 592 1029 532 1085 b 324 961 384 1085 324 1029 b 458 836 324 892 384 836 z "},"":{"ha":896,"x_min":0,"x_max":0,"o":"m 343 -10 b 554 124 450 -10 523 47 l 560 124 l 560 0 l 831 0 l 831 758 l 558 758 l 558 625 l 554 625 b 341 767 525 702 454 767 b 45 379 191 767 45 653 b 343 -10 45 116 182 -10 z m 444 199 b 326 379 369 199 326 266 b 444 558 326 491 369 558 b 564 379 519 558 564 491 b 444 199 564 268 519 199 z m 448 -306 b 582 -182 522 -306 582 -250 b 448 -57 582 -113 522 -57 b 314 -182 374 -57 314 -113 b 448 -306 314 -250 374 -306 z "},"":{"ha":896,"x_min":0,"x_max":0,"o":"m 343 -10 b 554 124 450 -10 523 47 l 560 124 l 560 0 l 831 0 l 831 758 l 558 758 l 558 625 l 554 625 b 341 767 525 702 454 767 b 45 379 191 767 45 653 b 343 -10 45 116 182 -10 z m 444 199 b 326 379 369 199 326 266 b 444 558 326 491 369 558 b 564 379 519 558 564 491 b 444 199 564 268 519 199 z m 704 1257 l 211 1257 l 211 1132 l 704 1132 z m 458 840 b 579 954 524 840 579 892 b 458 1069 579 1018 524 1069 b 338 954 392 1069 338 1018 b 458 840 338 892 392 840 z "},"":{"ha":896,"x_min":0,"x_max":0,"o":"m 343 -10 b 554 124 450 -10 523 47 l 560 124 l 560 0 l 831 0 l 831 758 l 558 758 l 558 625 l 554 625 b 341 767 525 702 454 767 b 45 379 191 767 45 653 b 343 -10 45 116 182 -10 z m 444 199 b 326 379 369 199 326 266 b 444 558 326 491 369 558 b 564 379 519 558 564 491 b 444 199 564 268 519 199 z m 369 852 l 548 852 l 454 1073 l 221 1073 z "}}}
